<svg width="26" height="27" viewBox="0 0 26 27" fill="none" xmlns="http://www.w3.org/2000/svg">
<rect width="26" height="26" rx="5" fill="url(#paint0_linear_2_372)"/>
<g filter="url(#filter0_d_2_372)">
<path d="M3 4H23V13.2183C23 15.7554 21.6244 18.1 19.3914 19.3686L13.0001 23L6.60859 19.3686C4.37557 18.1 3 15.7554 3 13.2183L3 4Z" fill="white"/>
</g>
<path fill-rule="evenodd" clip-rule="evenodd" d="M9 9V12.0024C9.42674 11.5387 10.2026 11.225 11.0898 11.225H12.0538V14.7152C12.0538 15.6437 11.7916 16.5529 11.4025 17H15.596C15.2078 16.5525 14.9462 15.6444 14.9462 14.717V11.225H15.9103C16.7974 11.225 17.5733 11.5387 18 12.0024V9H9Z" fill="#333333"/>
<defs>
<filter id="filter0_d_2_372" x="1.4" y="4" width="23.2" height="22.6" filterUnits="userSpaceOnUse" color-interpolation-filters="sRGB">
<feFlood flood-opacity="0" result="BackgroundImageFix"/>
<feColorMatrix in="SourceAlpha" type="matrix" values="0 0 0 0 0 0 0 0 0 0 0 0 0 0 0 0 0 0 127 0" result="hardAlpha"/>
<feOffset dy="2"/>
<feGaussianBlur stdDeviation="0.8"/>
<feComposite in2="hardAlpha" operator="out"/>
<feColorMatrix type="matrix" values="0 0 0 0 0.925 0 0 0 0 0.667349 0 0 0 0 0.188854 0 0 0 1 0"/>
<feBlend mode="normal" in2="BackgroundImageFix" result="effect1_dropShadow_2_372"/>
<feBlend mode="normal" in="SourceGraphic" in2="effect1_dropShadow_2_372" result="shape"/>
</filter>
<linearGradient id="paint0_linear_2_372" x1="6.5" y1="0" x2="21.5" y2="26" gradientUnits="userSpaceOnUse">
<stop stop-color="#FFF3AC"/>
<stop offset="1" stop-color="#FFC105"/>
</linearGradient>
</defs>
</svg>
