<svg width="26" height="26" viewBox="0 0 26 26" fill="none" xmlns="http://www.w3.org/2000/svg">
<rect x="0.5" y="0.5" width="25" height="25" rx="4.5" fill="#BA9F33" stroke="#A17C34"/>
<path fill-rule="evenodd" clip-rule="evenodd" d="M5.2567 11.5531C5.18069 11.4813 5.10039 11.4095 5.02653 11.3377C4.95268 11.266 4.87682 11.1941 4.80081 11.1224L4.57495 10.9006C4.53802 10.8624 4.49894 10.8289 4.46201 10.7906C4.42508 10.757 4.38171 10.7188 4.34478 10.6851C4.04506 10.3913 3.74362 10.0974 3.44805 9.80341C3.75421 10.0928 4.05394 10.3802 4.3601 10.6739L4.46645 10.7839C4.50338 10.8219 4.54245 10.8556 4.57938 10.8938L4.80511 11.1091C4.88111 11.1808 4.95497 11.2527 5.03097 11.3309C5.10698 11.4092 5.18069 11.4815 5.2567 11.5531ZM1.27884 11.5087C1.27884 11.5087 2.36881 11.6252 2.90084 11.7038C3.39365 11.7756 4.93536 12.0201 4.93536 12.0201L1.27884 11.5087ZM1.27884 11.5087C1.585 11.5356 1.89117 11.5692 2.19733 11.6029C2.35364 11.6186 2.5035 11.6365 2.65336 11.6521L2.88338 11.6792C2.95938 11.6903 3.03324 11.7015 3.10925 11.7128L4.0213 11.863L4.47718 11.9416C4.62705 11.9685 4.77691 11.9978 4.93321 12.0247C4.78335 12.009 4.62705 11.9865 4.47718 11.964L4.0213 11.8968L3.10925 11.7577C3.03324 11.7465 2.95938 11.7307 2.88338 11.7196L2.65322 11.6922C2.50336 11.6765 2.34705 11.6541 2.19719 11.636C1.89103 11.598 1.585 11.5579 1.27884 11.5087ZM4.82686 12.3135C4.82686 12.3135 3.66303 12.6187 3.26999 12.7354C2.88352 12.8453 1.71311 13.2132 1.71311 13.2132L4.82686 12.3135Z" fill="#CFB66C"/>
<path fill-rule="evenodd" clip-rule="evenodd" d="M4.83061 12.2187C4.57052 12.3003 4.31187 12.3797 4.04804 12.4544L3.26546 12.6782C3.00537 12.7599 2.74672 12.8392 2.48736 12.9208L2.0983 13.035C1.96934 13.0747 1.83821 13.1096 1.70493 13.1494C1.83375 13.1033 1.96502 13.0561 2.09398 13.0164L2.48303 12.8836C2.74312 12.7972 3.00177 12.7156 3.26114 12.6293C3.52555 12.5594 3.78578 12.4847 4.0502 12.417C4.3015 12.3494 4.56605 12.2817 4.83061 12.2187ZM1.86011 13.9236C1.98893 13.8723 3.47541 13.1331 3.8208 12.9605C3.99371 12.8741 4.49631 12.6838 4.49631 12.6838L1.86011 13.9236Z" fill="#CFB66C"/>
<path fill-rule="evenodd" clip-rule="evenodd" d="M1.84715 13.904C1.96077 13.862 2.06806 13.8106 2.17736 13.7618L2.50109 13.6152L3.15084 13.3116C3.36714 13.2117 3.57738 13.1016 3.80046 13.0078C3.91423 12.9612 4.028 12.9229 4.14163 12.8868L4.31467 12.8338C4.37365 12.8189 4.42844 12.8019 4.48771 12.787C4.27141 12.8868 4.04372 12.9718 3.82713 13.0694C3.61084 13.1735 3.38964 13.2585 3.16642 13.3519L2.50584 13.6342C2.28407 13.7214 2.06791 13.8148 1.84715 13.904ZM1.99134 14.4919C1.99134 14.4919 3.33873 13.7254 3.80248 13.479C4.04531 13.3474 4.83061 12.9693 4.83061 12.9693L1.99134 14.4919Z" fill="#CFB66C"/>
<path fill-rule="evenodd" clip-rule="evenodd" d="M1.98908 14.5349C2.2161 14.392 2.44758 14.2468 2.67906 14.0994L3.02455 13.8849C3.14245 13.8135 3.25603 13.7465 3.37623 13.6751C3.49413 13.6036 3.60771 13.5321 3.72777 13.4652C3.78492 13.4291 3.84481 13.3977 3.90685 13.3714L4.09025 13.2776C4.33267 13.157 4.57509 13.0341 4.83061 12.9291C4.59913 13.0788 4.36103 13.2062 4.12307 13.3378C4.00517 13.4048 3.88497 13.4652 3.76707 13.5321C3.64917 13.5991 3.53559 13.6707 3.41539 13.7355C3.29749 13.8069 3.18391 13.8739 3.06385 13.9386L2.70785 14.1374L1.98908 14.5349ZM4.81261 13.1099C4.81261 13.1099 3.97624 13.7665 3.70546 13.9765C3.43468 14.1864 2.6376 14.7761 2.6376 14.7761L4.81261 13.1099Z" fill="#CFB66C"/>
<path fill-rule="evenodd" clip-rule="evenodd" d="M9.66959 18.3851L9.23498 17.5638L9.48773 16.5365L11.2906 15.8415L10.5233 14.2697L10.9025 12.6824L11.6144 11.261L13.8143 10.9158L15.4308 9.37718L18.9214 9.64059L19.6066 13.3664L18.2871 18.0575L17.5354 20.4861L14.4884 20.6012L13.0736 19.6227L11.4171 18.9319L9.66959 18.3851Z" fill="#E2CC85"/>
<path fill-rule="evenodd" clip-rule="evenodd" d="M15.0601 18.3484C15.0601 18.3484 14.6361 18.5388 13.9129 18.495C13.7036 18.2193 12.2378 18.0903 12.2378 18.0903C12.2378 18.0903 12.0548 18.0356 11.7312 18.1668C11.4056 18.2966 11.0976 18.2806 10.8098 18.3506C10.5219 18.4205 10.2361 18.0531 10.0155 17.9765C9.7949 17.8956 9.50235 17.7009 9.50235 17.7009L8.88461 17.6417L7.64412 17.1276L5.67338 15.2023L5.13786 16.0244L4.97269 17.0417L5.56851 18.2473L7.17273 19.6803L10.3009 20.4591L12.155 19.9235L14.4777 18.9608L15.0601 18.3484Z" fill="#F1D789"/>
<path fill-rule="evenodd" clip-rule="evenodd" d="M3.97763 11.4399L4.37836 10.2623L4.85582 9.50177L6.39345 9.37718L5.93187 10.6839L4.6464 12.9039L5.17997 14.8856L4.23439 15.3444L3.94379 14.9119L3.70973 13.9199L3.694 12.8055L3.97763 11.4399Z" fill="#F4ECB4"/>
<path fill-rule="evenodd" clip-rule="evenodd" d="M5.72099 18.228L5.43359 17.822C5.43359 17.822 5.35679 17.629 5.40076 17.4604C5.44415 17.2896 5.43793 17.2785 5.41609 17.2141C5.39425 17.1498 5.20984 16.9279 5.22083 16.7371C5.23168 16.5441 5.2055 16.4797 5.3458 16.3268C5.49275 16.1782 5.44893 15.9208 5.44893 15.9208L5.63985 16.0406L5.68324 15.974C5.68324 15.974 5.75339 16.0295 5.75339 16.116C5.76872 15.9963 5.70508 15.4416 5.84986 15.3152C5.99464 15.1889 6.25137 15.9075 6.25137 15.9075L6.09343 14.8648L5.68743 13.7957L4.96555 12.8196L4.92216 11.7436V11.6504C4.92216 11.6504 4.59079 12.1652 4.49866 12.5717C4.43285 12.8512 4.59079 13.1906 4.55796 13.5921C4.53149 13.9915 4.49866 13.9604 4.59513 14.1186C4.6916 14.2768 4.9265 14.6022 4.83436 14.8373C4.75322 15.0393 4.47667 14.8973 4.47667 14.8973C4.47667 14.8973 4.42185 15.0614 4.34722 15.1213C4.3209 15.0238 4.2924 14.9616 4.23976 14.902C4.23527 14.9397 4.22443 14.9907 4.22443 14.9907C4.22443 14.9907 4.17612 14.8376 4.12781 14.6446C4.06214 14.3874 3.99185 14.048 3.92821 13.866C3.90188 13.9703 3.83607 14.2875 3.83607 14.2875L3.87339 14.7756L4.05332 15.4455L4.22688 15.8842L4.39582 16.4211L4.54263 16.7817L4.66109 17.0568L4.76421 17.6758L5.2622 18.2081L5.52775 18.328L5.72099 18.228Z" fill="#F3E19D"/>
<path fill-rule="evenodd" clip-rule="evenodd" d="M4.26753 10.5029C4.26753 10.5029 3.93264 11.1146 3.83621 11.7313C3.73979 12.3479 3.65339 12.9995 3.71433 13.839C3.77595 14.6853 3.89309 15.2043 3.98762 15.5756C4.15012 16.1921 4.57102 17.0493 4.57102 17.0493L4.58537 17.0161C4.51462 16.8719 4.45816 16.7201 4.41691 16.5632C4.36138 16.329 4.3408 16.0507 4.28947 15.9247C4.24424 15.7988 4.16827 15.6905 4.1313 15.5358C4.09636 15.3879 4.09067 15.1537 3.98342 14.9792C3.93819 14.9084 3.88266 14.7229 3.86628 14.5373C3.84569 14.2589 3.87657 13.9473 3.85192 13.6911C3.80669 13.2647 3.77595 12.9753 3.81698 12.7521C3.85802 12.5288 4.07185 11.895 4.20334 11.3912C4.28961 11.0686 4.23815 10.7968 4.39632 10.5162C4.55449 10.2379 4.65119 9.99262 4.68599 9.82252C4.72662 9.66785 4.26753 10.5029 4.26753 10.5029Z" fill="#F2E8B0"/>
<path fill-rule="evenodd" clip-rule="evenodd" d="M6.03574 10.2296C6.03574 10.2296 5.85235 10.2847 5.76498 10.3813C5.6776 10.4736 5.64046 10.5505 5.52257 10.7065C5.40468 10.8626 5.39806 10.9901 5.3019 11.1856C5.20589 11.3768 4.994 11.6647 4.9678 11.768C4.9416 11.8713 4.89798 12.3547 4.84343 12.5833C4.79535 12.8119 4.89799 13.0932 4.89799 13.0932L5.02236 13.0667C5.02236 13.0667 5.02236 13.2294 5.14687 13.3394C5.27124 13.447 5.29312 12.9745 5.29312 12.9745L5.75821 11.3944L6.45909 10.9153L6.53553 10.5285L6.03574 10.2296Z" fill="#F5EEC0"/>
<path fill-rule="evenodd" clip-rule="evenodd" d="M6.34432 10.9839C6.34432 10.9839 6.02096 11.0054 5.86259 11.1221C5.79837 11.1695 5.77268 11.2084 5.70422 11.2667C5.5779 11.3724 5.44931 11.4696 5.38735 11.6082C5.31875 11.7463 5.2438 11.9558 5.19243 12.3508C5.17097 12.517 5.17097 12.6703 5.15601 12.8042C5.13455 12.9855 5.10251 13.1301 5.11959 13.2311C5.14105 13.4383 5.35305 13.5463 5.37366 13.7816L5.81262 13.5571L6.2259 11.9142L7.10383 11.3592L6.607 10.7979L6.34376 10.9829L6.34432 10.9839Z" fill="#E6DB9D"/>
<path fill-rule="evenodd" clip-rule="evenodd" d="M3.97829 22.2737C3.98018 22.257 3.98206 22.2404 3.98394 22.2233C4.04964 21.6531 4.06078 21.2209 4.10897 20.9503C4.17915 20.5667 4.22749 20.424 4.21649 20.2804C4.20115 20.0499 4.18364 19.8813 4.20563 19.7038C4.23848 19.4688 4.46684 19.1894 4.46032 18.9964C4.45584 18.8433 4.379 18.7436 4.31315 18.6505C4.24731 18.5574 4.19464 18.4797 4.19464 18.4797C4.19464 18.4797 4.64468 18.167 4.64034 16.9072C4.64953 16.9098 4.65838 16.9136 4.66668 16.9183L4.88838 17.5547L5.03989 17.741L5.62162 18.8366L6.37021 19.5708L7.47652 20.3225L8.17026 21.0853L8.24045 23.119L7.33384 24.3077L7.18536 24.5794C6.00579 23.9811 4.92426 23.2036 3.97829 22.2737Z" fill="#E5CB7A"/>
<path fill-rule="evenodd" clip-rule="evenodd" d="M6.6776 24.2847C6.6776 24.2847 6.69311 24.0298 6.90175 23.8642C6.93511 23.9201 6.9572 23.9739 6.95062 24.014C6.98837 23.9471 7.25246 23.5176 7.84955 23.4056C8.44664 23.2961 8.5909 22.8577 8.5909 22.8577L9.85809 21.6968L11.3074 20.3525L13.0697 19.7283L13.8933 19.5247C13.8933 19.5247 13.9088 19.5852 13.8778 19.7194C14.0309 19.7083 14.3704 19.63 14.7233 19.5047C14.8654 19.4488 14.9987 19.4264 15.0697 19.5002C15.174 19.5986 15.1895 19.8313 15.1961 19.9699C15.367 19.9318 15.5645 19.7664 15.7228 19.782C15.9759 19.8089 16.2 20.1086 16.4576 20.1086C16.7971 20.1086 16.9502 19.8984 17.1878 19.7328C17.3299 19.6344 17.534 19.5116 17.6494 19.4286C17.9246 19.2249 20.8366 18.328 20.8366 18.328L21.8576 18.3951L22.0219 19.5001L21.9341 22.3887C21.9233 22.3991 21.9124 22.41 21.9015 22.4205L17.2593 24.8639L10.8246 25.8581C9.38321 25.6207 7.99224 25.1385 6.71096 24.432L6.6776 24.2847Z" fill="#D8C173"/>
<path fill-rule="evenodd" clip-rule="evenodd" d="M4.2623 22.6704C4.36124 22.4998 4.45021 22.3572 4.46588 22.3061C4.47823 22.409 4.50086 22.6346 4.54646 22.8744C4.45074 22.8074 4.35602 22.7394 4.2623 22.6704Z" fill="#F1D789"/>
<path fill-rule="evenodd" clip-rule="evenodd" d="M9.09393 25.3864L9.9244 25.1575L9.99521 25.1795C9.99521 25.1795 10.0329 25.2015 10.0329 25.276C10.137 25.2168 10.2256 25.2277 10.2898 25.1883C10.323 25.2585 10.3561 25.4911 10.5024 25.5196C10.6552 25.5526 10.8191 25.4538 10.9853 25.3288C11.1491 25.1993 11.3357 25.0369 11.4769 24.9711C11.5287 25.0654 11.5745 25.1629 11.6143 25.2628C11.8003 25.1159 12.1237 24.5191 12.5843 24.5299C12.7174 24.2182 12.9399 23.952 13.2241 23.7641C13.6516 23.4767 13.9195 23.4547 14.254 23.481C14.3869 23.3101 14.5506 23.165 14.7368 23.0532C14.7922 23.0752 14.9451 23.1673 15.1356 23.0795C15.3283 22.9918 15.5453 22.6516 15.831 22.6078C15.985 22.5868 16.1415 22.6194 16.274 22.6999C16.274 22.6999 17.1062 21.8814 17.6804 21.6093C17.6583 21.5435 17.614 21.2955 18.2872 20.7469C18.3249 20.7799 18.2983 20.872 18.3249 20.8771C18.3359 20.8771 18.5001 20.8069 18.708 20.6488C18.965 20.458 19.2728 20.2582 19.4588 20.2034C19.8092 20.1003 20.1809 20.3109 20.1809 20.3109C20.2125 20.2889 20.2478 20.2726 20.285 20.2626C20.3735 20.2473 20.4377 20.2363 20.4865 20.2192C20.4821 20.3333 20.5464 20.5286 20.4865 20.6975C20.5558 20.7362 20.6293 20.7671 20.7055 20.7897C20.668 20.8708 20.5859 21.0771 20.4487 21.1759C20.5637 21.2307 20.5792 21.2944 20.7432 21.3495C20.6767 21.4416 20.568 21.5997 20.5195 21.6966C20.4707 21.7998 20.2957 22.2277 20.2181 22.39C20.1362 22.5524 20.0256 22.8508 19.9723 22.9107C19.919 22.9706 19.7264 23.2244 19.5781 23.3494C19.7095 23.3011 20.2471 23.1388 20.4751 23.0773C20.4072 23.176 20.0631 23.6818 19.7322 24.1683C18.1482 25.1089 16.3799 25.7043 14.5454 25.9147C12.7108 26.1251 10.852 25.9457 9.0929 25.3885L9.09393 25.3864Z" fill="#E0CD81"/>
<path fill-rule="evenodd" clip-rule="evenodd" d="M6.34892 10.8855C6.34892 10.8855 6.15203 10.8855 6.11352 10.913C6.07501 10.9404 6.31056 10.9976 6.38296 11.0251C6.45536 11.0525 6.61164 11.1781 6.65239 11.2788C6.69091 11.3747 8.06764 11.9346 8.06764 11.9346L9.04134 11.8842L9.37706 11.4162L8.73847 10.8516L9.18629 9.51926L8.59308 9.61522L7.16649 10.474L6.45088 10.7506L6.34892 10.8855Z" fill="#DFC57C"/>
<path fill-rule="evenodd" clip-rule="evenodd" d="M8.52757 11.3565C8.54157 11.3779 8.56129 11.3956 8.58475 11.4075C8.60821 11.4195 8.63458 11.4254 8.66121 11.4247C8.86168 11.4247 9.04626 11.4717 9.12288 11.5677C9.25133 11.7215 9.60726 12.2125 9.60726 12.2125L10.4587 12.5029L10.5137 11.5526L9.58336 10.94L8.5246 11.3093V11.3563L8.52757 11.3565Z" fill="#E5CC7C"/>
<path fill-rule="evenodd" clip-rule="evenodd" d="M8.32317 11.7453C8.32317 11.7453 8.47739 11.7563 8.67201 11.6855C8.86663 11.6146 9.18642 11.4621 9.32516 11.5219C9.51963 11.6037 9.47938 11.8603 9.68977 12.0905C9.81716 12.232 10.0498 12.2277 10.1818 12.3803C10.3137 12.5329 10.7677 12.4621 10.7677 12.4621L10.9399 13.3805L10.2489 14.2564L10.0228 15.3444H9.08837L8.23471 15.0095L7.81422 14.0036L8.02446 12.9863L8.32317 11.7453Z" fill="#D2C281"/>
<path fill-rule="evenodd" clip-rule="evenodd" d="M10.111 11.7066C10.1333 11.7137 10.1565 11.7175 10.1798 11.7178C10.154 11.74 10.1001 11.7888 10.1216 11.9156C10.1432 12.0423 10.212 12.2023 10.154 12.3C10.2003 12.3523 10.2348 12.4145 10.2551 12.4822C10.2917 12.5912 10.3025 12.6911 10.5412 12.7068C10.5068 12.7287 10.475 12.7548 10.4466 12.7846C10.4466 12.7846 10.6123 12.9335 10.6963 13.0712C10.7822 13.0674 11.0104 12.9941 11.0104 12.9941L11.0577 13.0275L11.1589 12.9836C11.1589 12.9836 11.0643 12.9458 11.1331 12.708C11.1976 12.4991 11.2558 12.5102 11.2607 12.4947C11.2657 12.4792 11.3081 12.2591 11.3081 12.1702C11.3403 12.0547 11.3661 11.7036 11.3661 11.7036L11.2973 10.928L10.9101 10.6857L10.5951 10.3717L10.2981 10.9495L10.1025 11.151L10.0874 11.651L10.111 11.7066Z" fill="#E2C270"/>
<path fill-rule="evenodd" clip-rule="evenodd" d="M11.082 11.1034C11.082 11.1034 11.1528 11.3055 11.1795 11.4611C11.1889 11.4308 11.1941 11.3994 11.195 11.3678C11.195 11.3678 11.2503 11.6745 11.2612 11.8011C11.2834 11.7966 11.305 11.79 11.31 11.8121C11.315 11.8342 11.3655 12.081 11.3538 12.2187C11.446 12.0661 11.5736 11.938 11.7258 11.8455C11.8144 11.7899 11.9185 11.73 12.0271 11.7254C12.1976 11.721 12.3215 11.8344 12.5253 11.8344C13.0169 11.8344 13.4621 11.4722 13.7899 11.3612C14.0312 11.2789 14.2393 11.219 14.3855 11.0855C14.4564 11.0256 14.5827 10.8923 14.6977 10.6945C14.8506 10.4308 15.01 10.2013 15.1696 10.1725C15.0974 10.1858 15.0239 10.191 14.9506 10.188C14.9506 10.188 14.9993 10.1391 15.082 10.0724C15.1646 10.0058 15.2636 9.92364 15.4052 9.92364C15.6577 9.92364 15.7839 9.96128 15.9256 9.96128C16.0674 9.95689 16.1493 9.92364 16.1493 9.92364C16.1493 9.92364 16.2977 10.0281 16.632 10.0281C16.9665 10.0325 17.1901 10.0613 17.3652 10.077C17.5402 10.0927 18.1269 10.0281 18.2952 10.033C18.405 10.0373 18.5127 10.0637 18.612 10.1108L18.0694 8.52902L16.1202 6.8198L14.9598 7.64409L13.1747 9.43489L11.4474 10.077L11.0864 10.4836V11.1034H11.082Z" fill="#CCB360"/>
<path fill-rule="evenodd" clip-rule="evenodd" d="M14.9276 10.1147C14.9276 10.1147 14.9767 10.0666 15.059 10.0008C15.1413 9.93499 15.2419 9.85373 15.3845 9.85373C15.6385 9.85373 15.7656 9.89104 15.9083 9.89104C16.051 9.8867 16.1334 9.85373 16.1334 9.85373C16.1334 9.85373 16.283 9.95668 16.6193 9.95668C16.9559 9.96102 17.181 9.9895 17.3572 10.0048C17.5334 10.0202 18.1239 9.95668 18.2933 9.96145C18.4037 9.96555 18.5122 9.99167 18.612 10.0382L18.3646 9.33407L18.0772 8.79677L17.2569 7.91274C17.2569 7.91274 16.2724 7.34247 16.2649 7.33814C16.2605 7.3338 15.9239 7.24603 15.9239 7.24603L15.0323 7.77683L14.2232 9.83653L14.2077 10.2703L14.7313 10.5138C14.8628 10.2969 15.0079 10.1234 15.1438 10.1014C15.0211 10.1146 14.9276 10.1147 14.9276 10.1147Z" fill="#D5B457"/>
<path fill-rule="evenodd" clip-rule="evenodd" d="M14.9176 10.2618C14.8405 10.2663 14.7768 10.2504 14.7591 10.1936C14.6931 10.0025 14.6403 9.97518 14.585 9.97518C14.5297 9.97518 14.4551 10.098 14.4108 10.1093C14.3665 10.1205 14.314 9.96828 14.314 9.96828L14.2655 9.94549C14.2655 9.94549 13.9815 10.1366 13.7812 10.3619C13.5809 10.5871 13.2528 10.9695 13.1053 11.0376C12.9579 11.1057 12.4514 11.1286 12.2781 11.1673C12.1048 11.206 11.9126 11.3358 11.8862 11.3653C11.8598 11.3949 11.9634 11.4266 11.9788 11.4562C11.9942 11.4835 11.8092 11.4721 11.7938 11.5012C11.7829 11.524 11.8373 11.6536 11.8643 11.7196C11.9115 11.6953 11.9634 11.6821 12.0161 11.6809C12.1856 11.6764 12.309 11.7925 12.5115 11.7925C13.0003 11.7925 13.4428 11.4216 13.7686 11.3077C14.0086 11.2236 14.2156 11.1621 14.3609 11.0256C14.4313 10.9642 14.5568 10.8276 14.6713 10.6251C14.7549 10.4864 14.836 10.3574 14.9176 10.2618Z" fill="#D2B257"/>
<path fill-rule="evenodd" clip-rule="evenodd" d="M7.85358 21.2699C7.85358 21.2699 7.8101 21.1093 7.40723 20.6949C7.29289 20.5778 7.22261 20.4804 7.14566 20.4107C6.95437 20.2326 6.8422 20.185 6.70598 20.083C6.40701 19.8639 6.08168 19.8639 5.83112 19.5948C5.58055 19.3258 5.28855 18.8117 5.08566 18.2864C4.88568 17.7613 4.83061 17.5942 4.83061 17.5791C4.83061 17.5639 4.88568 17.4619 4.95596 17.4771C5.02625 17.4922 5.02625 17.6267 5.04393 17.6593C5.07894 17.7125 5.11866 17.7626 5.16261 17.8089C5.26594 17.9262 5.41318 18.0664 5.48795 18.2755C5.47259 18.0976 5.411 17.9002 5.411 17.9002C5.411 17.9002 5.79793 18.141 6.12761 18.3926C6.45962 18.6444 6.59584 18.7312 6.69279 18.8917C6.78974 19.0522 7.01813 19.4754 7.12754 19.5991C7.23695 19.7229 8.73612 20.1893 8.73612 20.1893L9.44925 20.7141L9.80329 21.48L9.52621 21.9091L8.99422 22.022L8.13022 21.6401L7.85358 21.2699Z" fill="#D2B159"/>
<path fill-rule="evenodd" clip-rule="evenodd" d="M5.96722 18.552C5.96722 18.552 6.14864 18.8464 6.5911 19.1251C6.98937 19.3702 7.61981 19.5927 8.18185 19.7253C8.50473 19.804 8.82775 19.8646 9.11752 19.8692C9.89846 19.8803 10.436 19.6534 11.102 19.5792C11.4627 19.541 11.9051 19.5118 12.3652 19.4014C12.9559 19.2576 13.3054 19.0956 13.7811 18.868C14.1262 18.7063 14.4426 18.5849 14.6992 18.4298C15.0598 18.2141 15.323 17.9736 15.6284 17.9018C15.5908 18.0074 15.551 18.1962 15.2501 18.3917C15.4094 18.3871 15.6284 18.376 15.6284 18.376C15.6284 18.376 15.4161 18.504 15.0422 18.7917C14.812 18.9695 14.5068 19.2704 14.1949 19.4705C13.9935 19.5986 13.7744 19.6927 13.6306 19.7694C13.2806 19.965 13.1395 20.0638 12.9095 20.3028C12.9913 20.2984 12.998 20.3028 12.998 20.3028C12.998 20.3028 12.7081 20.341 12.5003 20.4533C12.4565 20.4533 12.3807 20.4376 12.248 20.4759C12.144 20.5095 12.0068 20.5861 11.8653 20.6264C11.6639 20.6871 11.5977 20.6602 11.5977 20.6602L11.6308 20.7276C11.6308 20.7276 11.3683 20.723 11.2808 20.732C11.2963 20.7365 11.2919 20.7433 11.2919 20.7433C11.2765 20.7459 11.2617 20.7512 11.2482 20.759C11.2061 20.7867 11.1597 20.8072 11.1111 20.8196C11.0845 20.824 11.0624 20.824 11.0291 20.8308C11.0402 20.8578 11.1265 21.0086 11.1663 21.0975C11.1332 21.12 10.6354 21.5021 10.6354 21.5021C10.6508 21.5268 10.6634 21.5532 10.673 21.5808C10.6884 21.6301 10.6952 21.7022 10.7106 21.7358C10.7481 21.8032 10.7703 21.8145 10.7703 21.8145C10.7703 21.8145 10.7106 21.8257 10.6065 21.8527C10.5181 21.8752 10.4096 21.9133 10.2565 21.9358C10.2095 21.942 10.1622 21.9458 10.1149 21.9471C10.137 21.9965 10.2343 22.1853 10.0551 22.4032C9.87586 22.6212 9.82059 22.6529 9.76532 22.7921C9.7375 22.7708 9.70787 22.7519 9.6768 22.7358C9.61715 22.7089 9.53519 22.6686 9.50646 22.6145C9.48972 22.6866 9.46753 22.7572 9.44011 22.8258C9.38484 22.9763 9.30302 23.1248 9.28757 23.2371C9.22777 23.1697 9.11723 23.0371 8.96454 23.064C8.81186 23.091 8.69023 23.3023 8.66369 23.363C8.66369 23.3248 8.63715 23.2956 8.63058 23.3405C8.62606 23.39 8.54206 23.9067 8.07306 24.3248C8.06869 24.2192 8.06869 23.9854 8.0576 23.9091C8.01385 23.9536 7.96033 24.0192 7.64169 24.1586C7.32975 24.2979 7.37918 24.4373 7.37918 24.4373C7.37918 24.4373 7.35264 24.2151 7.52079 23.981C7.69112 23.7473 7.7951 23.6371 7.7951 23.6192C7.79235 23.6009 7.78468 23.5838 7.77294 23.5697C7.75077 23.5472 7.70658 23.5202 7.70658 23.5023C7.73312 23.4912 7.99635 23.363 7.9809 23.0976C7.96544 22.8596 7.86598 22.7358 7.7951 22.6483C7.78417 22.637 7.89923 22.5539 7.88362 22.5269C7.87254 22.5112 7.73108 22.4055 7.71329 22.3492C7.71747 22.3156 7.7249 22.2825 7.73546 22.2503C7.75092 22.2009 7.762 22.1671 7.75762 22.1334C7.74654 22.0773 7.68675 21.9222 7.6691 21.9065C7.68456 21.9109 7.7951 21.9065 7.7951 21.9065C7.7951 21.9065 7.70673 21.7626 7.69112 21.6952C7.67552 21.6278 7.64242 21.4501 7.62477 21.4165C7.66239 21.4209 7.75529 21.4276 7.75529 21.4165C7.75981 21.3827 7.67348 21.3266 7.71154 21.2832C7.73808 21.2876 7.78898 21.3101 7.83754 21.3731C7.811 21.3011 7.76681 21.1618 7.67377 21.1057C7.71752 21.09 7.86627 21.0494 7.99679 21.128C8.12731 21.2067 8.17179 21.3168 8.17179 21.3168C8.17179 21.3168 8.24923 21.3775 8.36881 21.4675C8.5059 21.5776 8.68061 21.7342 8.95944 21.845C9.01923 21.8788 9.17177 21.8788 9.28246 21.8562C9.33066 21.8446 9.37686 21.8256 9.41955 21.8001C9.43496 21.7909 9.45128 21.7833 9.46826 21.7776C9.44447 21.7291 9.41713 21.6825 9.38644 21.6381C9.42407 21.6381 9.46826 21.6427 9.46826 21.6427C9.46826 21.6427 9.4948 21.582 9.37536 21.465C9.4019 21.438 9.43515 21.4205 9.43515 21.375C9.39752 21.3706 9.33117 21.3144 9.31571 21.2919C9.33773 21.2762 9.37098 21.2245 9.40861 21.2088C9.37536 21.1818 9.29355 21.0694 9.25592 21.0583C9.29186 21.0447 9.32664 21.0282 9.3599 21.0088C9.3599 21.0088 9.17411 20.9593 9.11432 20.9188C9.05452 20.8744 8.96615 20.7975 8.91306 20.775C8.85765 20.7525 8.76038 20.7414 8.72056 20.6963C8.75804 20.7076 8.81784 20.6963 8.86217 20.6963C8.89527 20.6963 8.91088 20.7008 8.92182 20.7008C8.91744 20.6851 8.91744 20.6513 9.00377 20.6402C9.0453 20.6338 9.0856 20.6209 9.12321 20.6019C9.12321 20.6019 9.04125 20.5975 8.94821 20.5076C8.85517 20.4176 8.77788 20.3458 8.72479 20.3345C8.66952 20.3233 8.56554 20.3727 8.50138 20.3681C8.41286 20.357 8.37523 20.312 8.37523 20.312C8.37523 20.312 8.08108 20.339 7.42848 19.9345C6.86424 19.5838 6.61866 19.2737 6.61866 19.2737C6.56586 19.2542 6.51482 19.2301 6.46612 19.2017C6.25378 19.0894 5.95949 18.8556 5.96839 18.5498L5.96722 18.552Z" fill="#C2A44D"/>
<path fill-rule="evenodd" clip-rule="evenodd" d="M14.141 5.26085C14.1923 5.27762 14.2379 5.30856 14.2725 5.35015C14.3768 5.47063 14.4433 5.69821 14.206 5.94154C14.2991 5.97493 14.3376 5.98567 14.4188 5.97493C14.3369 6.0732 14.1506 6.28298 14.1395 6.46599C14.1284 6.61546 14.2215 6.66018 14.2215 6.66018C14.2215 6.66018 14.0796 6.82524 14.073 7.10151C14.1401 7.02544 14.2134 6.95526 14.2923 6.89173C14.4564 6.76007 14.6825 6.6106 14.8355 6.51689C14.8335 6.55617 14.8387 6.59549 14.851 6.63281C14.851 6.63281 15.1369 6.39626 15.3772 6.5013C15.4858 6.55043 15.437 6.70431 15.437 6.70431C15.437 6.70431 15.5856 6.64856 15.6898 6.75345C15.794 6.85834 15.9414 7.12888 16.0169 7.23377C16.0501 7.2829 16.1366 7.37661 16.2252 7.52166C16.3462 7.72474 16.4472 7.93922 16.5269 8.16204C16.5313 8.04597 16.5601 7.86532 16.8883 7.97903C17.2164 8.09511 17.5889 8.33843 17.9015 8.81757C18.2141 9.29671 18.2916 9.83764 18.449 10.0436C18.6086 10.2422 18.7727 10.5725 18.7838 10.7109C18.7949 10.8493 18.735 11.2955 19.0631 12.5029C19.1562 12.128 19.2982 11.2955 19.2982 11.2955L19.3758 10.5613L19.4645 8.28944L17.1076 6.31858L15.2651 4.97281L14.0656 5.08888L14.141 5.26085Z" fill="#CAA13E"/>
<path fill-rule="evenodd" clip-rule="evenodd" d="M18.5408 8.66665C18.5408 8.66665 18.5073 8.44723 17.9507 8.07422C17.394 7.70588 16.9598 7.70588 16.559 7.39299C16.2517 7.14665 15.9311 6.58069 15.7224 6.39433C15.5197 6.21016 15.4863 5.67756 15.4863 5.67756L16.1699 5.10706L17.1865 3.64265L18.046 2.69958L18.4578 3.27007L19.0303 3.94019L19.3487 5.28494L19.4645 7.25329L18.5397 8.6668L18.5408 8.66665Z" fill="#B59544"/>
<path fill-rule="evenodd" clip-rule="evenodd" d="M19.1935 11.0524C19.2096 10.7511 19.1741 10.4491 19.0887 10.1609C18.9479 9.70157 18.6401 8.88605 18.4972 8.58064C18.4394 8.2423 18.4823 8.21542 18.5442 8.17732C18.6062 8.13922 18.8391 8.0001 18.9667 7.512C19.0943 7.0239 19.4902 7.00795 19.4902 7.00795L19.7337 6.8198L20.1034 7.78979L20.4259 8.66586L20.5263 9.33575L20.6011 9.907L20.4259 11.1146L19.5608 11.9346L19.1935 11.0524Z" fill="#C89D3A"/>
<path fill-rule="evenodd" clip-rule="evenodd" d="M6.6776 24.3031C6.69627 24.2916 6.71276 24.2769 6.7263 24.2597C6.74181 24.2377 6.75307 24.2113 6.76404 24.2048C6.78627 24.1938 6.89054 24.1614 6.94597 24.1718C7.0014 24.1822 7.14794 24.242 7.2256 24.2377C7.3853 24.2333 7.57162 24.1124 7.86675 24.1675C8.31047 24.2487 8.41475 24.5474 8.67214 24.7165C8.84764 24.8352 9.02928 24.7824 9.0559 24.7824H9.11571C9.12683 24.7824 9.20887 24.6901 9.25333 24.6946C9.34211 24.699 9.35088 24.7715 9.40631 24.7758C9.5372 24.7912 9.79021 24.71 9.91672 24.743C9.95423 24.7546 9.98834 24.7751 10.0162 24.8026C10.044 24.8301 10.0646 24.8638 10.0764 24.9009C10.103 24.9822 10.0808 25.0854 10.0165 25.1448C9.87899 25.2698 9.74809 25.3886 9.72148 25.4922C9.75533 25.5178 9.78784 25.545 9.81888 25.5739C8.72116 25.297 7.66501 24.8784 6.6776 24.3288V24.3031Z" fill="#CEB052"/>
<path fill-rule="evenodd" clip-rule="evenodd" d="M18.47 19.8908C18.47 19.8908 18.812 19.4268 18.9305 19.1969C19.0489 18.96 18.5555 15.9597 18.5555 15.9597L19.5468 12.6555L19.5203 11.5801C19.5203 11.5801 19.5686 10.5872 19.6826 10.1565C19.8187 10.4042 20.2419 10.7032 20.334 10.8616C20.3774 10.558 20.5247 9.91782 20.5029 9.2351C20.584 9.36217 20.7791 10.6407 20.7791 10.6407L20.9743 11.5018L21.2287 12.4166L21.5116 13.3828L21.6804 14.0499L21.7768 14.2105L21.8581 14.4916L21.9348 14.7951L22.1563 15.5068L22.2864 16.0913L22.3895 17.1511C22.4119 17.2323 22.428 17.3151 22.4378 17.3988C22.4421 17.5148 22.4224 17.5818 22.4224 17.6019C22.4224 17.6221 22.4597 17.8562 22.4444 18.0325C22.4224 18.209 22.4224 18.3471 22.2864 18.4738C22.1504 18.6004 22.0649 19.3573 22.0649 19.3573L21.8215 19.1922C21.8215 19.1922 21.8698 18.9668 21.7557 18.7616C21.6417 18.5564 21.4202 18.5139 21.2952 18.5475C21.1703 18.5742 20.9203 18.6142 20.8391 18.6857C20.7623 18.757 20.5738 18.9779 20.4005 19.0784C20.1837 19.2108 19.8304 19.2212 19.6419 19.2658C19.4511 19.3099 19.2406 19.4423 19.019 19.596C18.8452 19.7104 18.6618 19.8088 18.4708 19.8901L18.47 19.8908Z" fill="#CCA847"/>
<path fill-rule="evenodd" clip-rule="evenodd" d="M18.47 24.6967C18.47 24.6967 18.4848 24.7061 18.5135 24.7214C20.1145 23.9899 21.549 22.9529 22.7322 21.6717C22.7193 21.227 22.7025 20.771 22.6841 20.6021C22.6459 20.2438 22.673 19.879 22.6617 19.6681C22.6504 19.4571 22.5287 18.5977 22.4724 18.3758C22.4115 18.1538 22.2942 18.0438 22.2764 18.0438C22.2606 18.0483 22.1658 18.4615 22.1658 18.5654C22.1658 18.6693 22.1433 18.9193 22.1433 18.9831C22.1275 18.9786 22.1208 18.9396 22.1208 18.9237C22.0982 18.9786 22.0712 19.0754 22.0599 19.0864C22.0486 19.0974 22.0757 18.9941 22.0599 18.9721C22.0442 18.9501 22.0154 18.9611 22.0216 18.9062C22.0243 18.8736 22.0295 18.8413 22.0373 18.8095C22.0373 18.8095 21.9698 18.9062 21.9203 19.1523C21.8707 19.3963 21.8707 19.4029 21.8527 19.4248C21.8369 19.4513 21.7468 19.5391 21.7422 19.5722C21.7377 19.6314 21.8257 19.6908 21.8323 19.7237C21.8368 19.7788 21.7535 20.0336 21.7264 20.1583C21.6994 20.2831 21.7107 20.5275 21.6819 20.6528C21.6593 20.7671 21.6373 20.833 21.5602 20.8813C21.6165 20.8923 21.6706 20.9077 21.6706 20.9077C21.6706 20.9077 21.7495 21.2329 21.5489 21.5099C21.4769 21.6066 21.4589 21.6506 21.3822 21.7385C21.2312 21.9011 21.114 22.0862 21.1027 22.2066C21.0949 22.1711 21.0896 22.1351 21.0869 22.0988C21.0869 22.0988 20.8527 22.3648 20.7534 22.5165C20.6251 22.7121 20.447 22.7011 20.3969 22.7495C20.3469 22.7979 20.336 22.8857 20.3524 22.9561C20.3078 22.967 20.224 22.9825 20.1676 23.1517C20.1405 23.2395 20.0729 23.3255 19.967 23.3846C19.8611 23.4438 19.7326 23.4616 19.6673 23.4769C19.7236 23.4923 19.7461 23.4923 19.7732 23.5098C19.7394 23.5647 19.5839 23.6505 19.4104 23.7605C19.2369 23.8638 19.1534 24.0153 19.1106 24.1143C19.0661 24.2065 19.0003 24.2659 18.8944 24.277C18.9389 24.3033 19.0049 24.3647 19.0386 24.3846C18.989 24.3956 18.9049 24.3956 18.7547 24.5209C18.597 24.6484 18.5421 24.6857 18.47 24.6967Z" fill="#C39D3C"/>
<path fill-rule="evenodd" clip-rule="evenodd" d="M15.345 25.8581C15.4308 25.7892 15.5237 25.7327 15.6215 25.69C15.9709 25.531 16.3404 25.5002 16.486 25.449C16.625 25.3982 16.7347 25.3282 16.9071 25.2897C16.9025 25.3347 16.8987 25.377 16.8946 25.417C16.3861 25.6001 15.8691 25.7474 15.345 25.8581Z" fill="#D2BA6B"/>
<path fill-rule="evenodd" clip-rule="evenodd" d="M21.7377 16.6972C21.7377 16.6972 21.668 17.0859 21.5436 17.3309C21.4193 17.5759 21.2848 17.9152 21.2848 17.9152C21.2857 17.8387 21.2944 17.7626 21.311 17.6881C21.154 17.7824 20.7723 18.0095 20.664 18.1106C20.5615 18.2049 20.3892 18.3713 20.3456 18.45C20.4481 18.1399 20.5549 17.8613 20.5725 17.7331C20.4155 17.85 19.6825 18.4725 19.301 18.8837L18.1123 19.8747C17.9751 19.951 17.8339 20.0191 17.6892 20.0789C17.4843 20.1686 17.2422 20.2451 17.0634 20.3171C17.1114 20.1845 17.1876 20.0675 17.2945 19.9552C17.408 19.8451 17.7481 19.4653 17.8005 19.2886C17.8485 19.1043 17.8594 18.9942 17.7961 18.8391C17.7372 18.8548 17.6021 18.8616 17.5105 18.8886C17.4189 18.9155 17.3207 19.0166 17.3207 19.0166C17.3207 19.0166 17.3904 18.6054 17.541 18.2166C17.4275 18.2211 17.2334 18.2547 17.2334 18.2547C17.2334 18.2547 17.5039 17.7873 17.9667 17.4616C17.8249 17.4927 17.6862 17.537 17.5523 17.594C17.2819 17.7109 16.9853 17.8839 16.765 17.9783C16.8893 17.8005 17.7616 16.5177 18.2808 15.3221C18.7984 14.1288 18.9917 13.8232 19.1052 13.1828C19.164 12.8659 19.1483 12.3977 19.164 11.9783C19.1792 11.5625 19.2294 11.1895 19.1967 10.94C19.3319 11.113 19.8379 11.6007 19.8553 12.6907C19.8706 13.7805 19.3713 15.2526 18.8412 16.0457C18.9706 16.0839 19.3059 16.129 19.6503 15.5124C19.9948 14.8959 19.9906 14.7237 20.115 14.4675C20.1302 14.5956 20.1258 14.6405 20.1258 14.6405C20.1258 14.6405 20.6275 14.0136 20.8652 13.2247C20.9132 13.5641 21.055 13.8631 20.8324 14.4855C20.634 15.0473 20.3745 15.1844 20.3745 15.1844C20.3745 15.1844 20.5032 15.1619 20.6928 15.045C20.7256 15.1281 20.7191 15.2228 20.7736 15.2563C20.8281 15.2898 20.9023 15.3462 20.9132 15.4001C20.972 15.3102 21.0636 15.1955 21.092 15.1102C21.0702 15.288 21.055 16.0653 21.1352 16.4608C21.3032 16.4451 21.4755 16.4338 21.5932 16.1214C21.5126 16.4271 21.5126 16.6113 21.5671 16.872C21.6565 16.8092 21.7377 16.6972 21.7377 16.6972Z" fill="#C0993A"/>
<path fill-rule="evenodd" clip-rule="evenodd" d="M15.9315 4.42775C15.9315 4.42775 15.7623 4.48969 15.4744 4.48969C15.2239 4.48969 15.2941 4.4045 14.9029 4.4045C14.3008 4.4045 12.1973 4.71105 11.828 4.7067C11.5883 4.70287 12.6367 4.79778 12.6367 4.79778L15.3162 4.83073L15.8546 4.79241L16.0547 4.43349L15.9315 4.42775Z" fill="#A88F33"/>
<path fill-rule="evenodd" clip-rule="evenodd" d="M8.95258 9.71118C8.95258 9.71118 8.61772 9.96846 8.4761 10.1653C8.33449 10.3621 8.25936 10.4917 8.09837 10.6518C8.13616 10.6532 8.17392 10.6481 8.20999 10.6367C8.20999 10.6367 8.20999 10.6794 8.18424 10.6907C8.20649 10.6882 8.22902 10.6907 8.25017 10.6981C8.27132 10.7055 8.29056 10.7176 8.30648 10.7335C8.25922 10.7594 8.13048 10.8893 8.23135 11.0428C8.30648 11.1595 8.46535 11.1702 8.46535 11.1702C8.46535 11.1702 8.42885 11.2762 8.58121 11.2654C8.90957 11.2503 9.27655 11.1053 9.44604 11.1421C9.61581 11.1849 9.71229 11.2006 9.8324 11.4104C9.95973 11.6179 10.0706 11.6504 10.0706 11.6504C10.0706 11.6504 10.1458 11.4578 10.1286 11.1703C10.1902 11.0154 10.2244 10.8507 10.2295 10.6839L10.1179 9.85571L9.6308 9.2351L8.99983 9.5876L8.95258 9.71118Z" fill="#E3C571"/>
<path fill-rule="evenodd" clip-rule="evenodd" d="M9.66121 9.60813C9.66121 9.60813 9.70909 9.72321 9.90923 9.73415C9.88744 9.78286 9.88744 9.78957 9.89403 9.82706C9.89833 9.86469 9.90478 9.91997 9.90478 9.91997C9.92682 9.90912 9.94673 9.89429 9.96356 9.87621C9.97446 9.92492 9.95267 10.0022 9.96356 10.0576C9.97028 10.0914 9.98122 10.1241 9.9961 10.1549C9.99928 10.1474 10.0029 10.14 10.007 10.1329C10.0113 10.1218 10.05 10.2524 10.1571 10.3517C10.157 10.3364 10.1607 10.3214 10.1679 10.3079C10.1695 10.3357 10.1785 10.3624 10.1939 10.3854C10.1859 10.3815 10.1786 10.3763 10.1723 10.3699C10.1723 10.3699 10.183 10.72 10.2418 10.901C10.2517 10.8893 10.2604 10.8767 10.2679 10.8633C10.2679 10.8524 10.2636 10.9608 10.2527 11.0384C10.2375 11.1158 10.2484 11.2242 10.2484 11.2242C10.2876 11.1928 10.3307 11.1667 10.3766 11.1467C10.4418 11.12 10.5486 11.0382 10.6137 10.8568C10.6515 10.754 10.6806 10.6482 10.7007 10.5404C10.7218 10.5816 10.7363 10.6259 10.7437 10.6717C10.7482 10.727 10.8504 10.6982 10.8504 10.6982L10.8722 10.457L11.0012 9.91048L11.1186 9.57196L11.6841 8.676L12.7057 7.87556L13.5974 8.08354L14.3497 7.04362L13.0536 6.2515L11.827 6.38203L10.7138 7.95067L9.82221 9.37346L9.66121 9.60813Z" fill="#D8B65B"/>
<path fill-rule="evenodd" clip-rule="evenodd" d="M16.1967 7.32071C16.1967 7.32071 16.1177 7.33659 15.8895 7.45555C15.6614 7.57451 15.5033 7.61227 15.4151 7.78726C15.327 7.96225 15.3203 8.10099 15.3203 8.10099C15.3203 8.10099 15.4762 8.03282 15.5666 8.01004C15.6614 7.98742 15.7676 7.99416 15.7563 8.03282C15.7454 8.05932 15.7303 8.08386 15.7116 8.10548C15.7116 8.10548 15.8903 8.10099 15.8855 8.18968C15.8808 8.27837 15.8517 8.37606 15.8179 8.41921C15.784 8.46415 15.644 8.53067 15.6282 8.58296C15.5898 8.68978 15.644 8.69428 15.6236 8.78058C15.6078 8.86478 15.5334 9.02838 15.2893 9.31469C15.0386 9.60115 14.932 9.80341 14.932 9.80341C14.932 9.80341 14.81 9.57388 14.7467 9.37612C14.7021 9.39874 14.4622 9.53283 14.4622 9.53283L13.9065 7.58515L13.9176 7.45555C13.9176 7.45555 13.9674 7.39427 13.9787 7.28056C13.8952 7.25329 13.8838 7.23052 13.7731 7.12384C13.6623 7.01717 13.572 6.88743 13.387 6.79873C13.3599 6.74869 13.3259 6.68067 13.1904 6.65325C13.0549 6.62584 12.9736 6.60336 12.9736 6.60336C12.9736 6.60336 13.0458 6.57595 13.0798 6.51916C12.9961 6.53055 12.9285 6.55782 12.7455 6.55332C12.5603 6.54868 12.5399 6.54194 12.4383 6.55782C12.3368 6.5737 12.2149 6.61925 12.1695 6.46238C12.1198 6.42373 12.0136 6.45789 11.9233 6.59183C11.8329 6.72577 11.8013 6.83274 11.6274 6.88503C11.6152 6.96217 11.5883 7.03622 11.5483 7.10317C11.4986 7.18737 11.4195 7.27142 11.3134 7.39637C11.1461 7.59414 11.1732 7.9191 10.9067 8.16691C10.6379 8.41456 10.9514 7.48042 10.9514 7.48042L11.3805 6.44665L12.6025 5.24433L14.5 5.11488L14.6852 6.10371L15.6114 6.42418L16.1964 7.32191L16.1967 7.32071Z" fill="#D3AE4D"/>
<path fill-rule="evenodd" clip-rule="evenodd" d="M16.3957 7.47071L15.6347 6.34478L15.1023 5.92437C15.1023 5.92437 14.7228 5.20777 14.697 5.18561C14.6754 5.17015 14.3175 5.13034 14.089 5.11488L14.1317 5.22323C14.1815 5.23986 14.2259 5.27053 14.2596 5.31175C14.3609 5.43118 14.4255 5.65677 14.1949 5.89797C14.2854 5.93107 14.3228 5.94172 14.4018 5.93107C14.3221 6.02849 14.141 6.23643 14.1302 6.41784C14.1194 6.566 14.21 6.61019 14.21 6.61019C14.21 6.61019 14.072 6.77395 14.0656 7.04767C14.1307 6.97226 14.2021 6.90269 14.2787 6.83972C14.4383 6.70847 14.6582 6.5609 14.807 6.46801C14.8049 6.50699 14.81 6.54601 14.822 6.58306C14.822 6.58306 15.1 6.34857 15.3336 6.45255C15.4392 6.50125 15.3917 6.65393 15.3917 6.65393C15.3917 6.65393 15.5363 6.59867 15.6376 6.70264C15.7389 6.80661 15.8833 7.07421 15.9566 7.17833C15.9889 7.22703 16.073 7.31992 16.1591 7.46356C16.2768 7.6649 16.375 7.87756 16.4524 8.09849C16.4567 8.00998 16.474 7.88617 16.623 7.88617L16.3957 7.47071Z" fill="#CAA13E"/>
<path fill-rule="evenodd" clip-rule="evenodd" d="M4.71318 10.7974C4.71318 10.7974 4.65772 10.6593 4.71318 10.3901C4.76864 10.1208 4.85526 9.99392 4.88409 9.59778C4.91292 9.20163 5.17045 8.70748 5.17045 8.70748L5.88291 8.38264L6.38686 8.52056L6.53553 9.19723L5.89842 9.54936C5.89842 9.54936 5.86521 9.69843 5.68537 9.81859C5.50554 9.93875 5.25693 10.0322 5.19708 10.1547C5.1613 10.2297 5.13519 10.309 5.11938 10.3907C5.11938 10.3907 4.93735 10.3528 4.82863 10.473C4.71318 10.5955 4.71757 10.7039 4.71318 10.7974Z" fill="#F4EFC8"/>
<path fill-rule="evenodd" clip-rule="evenodd" d="M6.16401 10.6112C6.16401 10.6112 6.10466 10.6488 6.0608 10.7423C6.01738 10.6717 5.91359 10.2519 5.90925 9.8742C5.90491 9.4965 5.88247 9.40288 5.96932 9.27271C6.05617 9.14254 6.39676 9.00538 6.34842 8.77096C6.30007 8.5479 6.098 8.45515 5.8499 8.51921C5.6762 8.56289 5.54694 8.93447 5.36688 9.11997C5.23067 9.26135 5.06826 9.23922 5.0244 9.31654C4.96506 9.42035 5.01992 9.52417 5.0024 9.59042C4.99791 9.61255 4.94305 9.7318 4.84419 9.87537C4.64444 10.1647 4.30631 10.5734 4.2623 10.94C4.27765 10.7324 4.26679 10.728 4.32165 10.4983L4.28865 10.4431L4.50577 9.72743L4.64632 9.13774L4.96042 8.15025L5.51365 7.14092L6.05168 6.53565L6.61157 6.57321L6.67743 7.41917L6.99805 9.00742L7.67214 9.84231L6.59174 10.5737L6.16401 10.6112Z" fill="#EBCC73"/>
<path fill-rule="evenodd" clip-rule="evenodd" d="M6.4304 10.9278C6.4304 10.9278 6.33315 10.9517 6.29834 10.9327C6.26354 10.9137 6.22903 10.8922 6.24048 10.8684C6.25193 10.8445 6.31452 10.8042 6.31452 10.7851C6.31581 10.7678 6.31049 10.7507 6.29968 10.7374C6.28888 10.7241 6.27345 10.7156 6.25667 10.7138C6.20339 10.7067 6.18721 10.7423 6.18721 10.7423C6.18721 10.7423 6.13622 10.702 6.09469 10.6952C6.11926 10.6922 6.14398 10.6905 6.16873 10.6904C6.10474 10.6606 6.03685 10.6406 5.96722 10.6309C6.02508 10.5954 6.13866 10.4906 6.2127 10.4906C6.28674 10.4906 6.33315 10.4788 6.32155 10.4384C6.30995 10.3979 6.25209 10.3385 6.18965 10.3146C6.2127 10.2861 6.22903 10.2433 6.17347 10.1264C6.11545 10.0099 6.13866 9.93134 6.15728 9.90296C6.17347 9.8672 6.23132 9.80306 6.25911 9.76259C6.28689 9.72213 6.3101 9.6674 6.35635 9.63886C6.37956 9.62223 6.4536 9.59181 6.52779 9.5628C6.60886 9.53425 6.67603 9.4985 6.72228 9.53425C6.77327 9.56985 6.75007 9.61753 6.75007 9.61753C6.75007 9.61753 6.9099 9.55793 7.0534 9.63415C7.19706 9.70535 7.5468 9.75068 7.5468 9.75068L7.67214 10.0101L6.84304 10.7404L6.50031 10.9165L6.4304 10.9278Z" fill="#E5C66B"/>
<path fill-rule="evenodd" clip-rule="evenodd" d="M7.60969 9.69843C7.60969 9.69843 7.36831 9.8609 7.31399 9.92007C7.34653 9.92455 7.40085 9.94654 7.37906 9.97938C7.35298 10.0122 7.19645 10.1264 7.10945 10.234C7.01814 10.3415 6.93114 10.4776 6.90075 10.5435C6.86821 10.6026 6.62024 10.7761 6.53553 10.7979C6.71384 10.7979 7.07261 10.5763 7.20735 10.5763C7.20305 10.6421 7.24433 10.7168 7.32044 10.7233C7.39655 10.7298 7.61614 10.7716 7.91185 10.5873C8.20755 10.4073 8.10979 10.2734 8.23364 10.1857C8.47072 10.0276 8.56632 9.88708 8.69676 9.79941C8.82719 9.71174 8.89471 9.69177 8.89471 9.69177C8.89471 9.69177 8.899 9.62595 8.93771 9.6326C8.9483 9.63383 8.95836 9.63795 8.9668 9.64453C8.97523 9.65111 8.98173 9.65989 8.98558 9.66993C8.98558 9.66993 9.21176 9.50746 9.50159 9.46362C9.49483 9.46057 9.48942 9.45511 9.4864 9.44829C9.4864 9.44829 9.50804 9.43729 9.51249 9.4263C9.51249 9.4263 9.52768 9.40431 9.53857 9.4153C9.54947 9.4263 9.56466 9.50746 9.58645 9.54045C9.63432 9.51846 9.72563 9.31215 9.72563 9.31215L9.94536 8.67791V8.09849L9.77336 8.13148L8.48333 8.68442L7.70042 9.50312L7.60969 9.69843Z" fill="#E6BD62"/>
<path fill-rule="evenodd" clip-rule="evenodd" d="M11.3051 6.88418C11.3765 6.86653 11.4449 6.83822 11.5082 6.80017C11.4815 6.87282 11.4815 6.9522 11.3658 7.12456C11.2501 7.29691 11.2457 7.32188 11.1523 7.50096C11.0589 7.68692 11.0477 7.9545 10.9587 8.0723C10.9986 8.05254 11.0414 8.03956 11.0854 8.03388C11.0854 8.03388 10.9965 8.11326 10.9587 8.19712C10.9209 8.28098 10.8541 8.45558 10.6896 8.56231C10.525 8.66905 10.3158 8.73691 10.0911 8.98865C9.86626 9.23575 9.63499 9.54877 9.51913 9.66133C9.57926 9.55475 9.66153 9.34158 9.68383 9.20106C9.70612 9.06055 9.67928 8.89253 9.71712 8.70672C9.75495 8.52091 9.75495 8.38697 9.9371 8.06258C10.1192 7.7382 10.431 6.61122 10.431 6.61122L11.1029 6.39357L11.3051 6.88418Z" fill="#B6933F"/>
<path fill-rule="evenodd" clip-rule="evenodd" d="M10.835 6.5093C10.835 6.5093 10.6257 6.8045 10.5682 7.06597C10.5108 7.32744 10.5635 7.30486 10.5291 7.43337C10.5085 7.51172 10.5085 7.59391 10.5291 7.67226C10.6016 7.55787 10.7009 7.46203 10.8187 7.39266C11.0166 7.2756 11.1777 7.1921 11.2737 7.09301C11.3703 6.98708 11.4508 6.81356 11.6601 6.6806C11.575 6.66931 11.4554 6.63098 11.4326 6.63603C11.5179 6.54139 11.7731 6.39714 12.0308 6.22362C12.2862 6.04534 12.2701 5.97343 12.6844 5.79545C12.5486 5.81804 12.4842 5.78416 12.3713 5.79545C12.4168 5.70082 12.5761 5.65566 12.7353 5.50026C12.8946 5.34486 12.6342 5.11488 12.6342 5.11488L11.4208 5.83378L10.8341 6.5099L10.835 6.5093Z" fill="#C49937"/>
<path fill-rule="evenodd" clip-rule="evenodd" d="M7.67214 5.98747L7.69904 5.77481L8.03765 5.23866L8.39193 4.29706V3.00976L8.36503 2.26533L8.42104 1.77781L8.46361 1.62285L8.50854 1.56297L8.79764 1.71136L9.19685 2.24751L9.23498 3.28229L8.847 4.91515L7.73939 6.10942L7.67214 5.98747Z" fill="#DFC068"/>
<path fill-rule="evenodd" clip-rule="evenodd" d="M8.64272 1.42644C8.64272 1.42644 8.46176 1.43101 8.42316 2.16695C8.38456 2.90289 8.36586 3.28981 8.33841 3.65446C8.31097 4.01912 8.24703 4.24045 8.21491 4.45529C8.18279 4.67013 8.16455 4.96297 8.06171 5.14198C8.01647 5.2247 7.91981 5.48422 7.69331 5.67886C7.43937 5.89355 7.05997 6.04351 7.00252 6.05472C6.90179 6.07698 6.39165 6.12623 6.18355 6.23815C6.11042 6.27619 5.9845 6.32087 5.84502 6.44842C5.56816 6.69216 5.19992 7.12833 4.93452 7.654C4.52737 8.4392 4.12023 10.6559 4.12023 10.6559L4.21176 10.5061C4.21176 10.5061 4.22322 10.307 4.42679 9.95797C4.62584 9.60909 4.56869 9.2176 4.8454 8.54875C4.95292 8.29381 5.08788 7.96277 5.25255 7.68084C5.51342 7.22226 5.82903 6.82856 6.14706 6.61386C6.66625 6.26499 7.23821 6.1889 7.23821 6.1889L7.85361 5.79078C7.85361 5.79078 7.96113 5.58729 8.10302 5.35461C8.30192 5.02815 8.55541 4.66349 8.61075 4.13339C8.6955 3.3482 8.49177 2.83374 8.50323 2.36852C8.51469 1.9033 8.51922 1.56106 8.61542 1.47819C8.71163 1.39532 8.64272 1.42644 8.64272 1.42644Z" fill="#A88F33"/>
<path fill-rule="evenodd" clip-rule="evenodd" d="M8.58269 4.97192C8.58269 4.97192 8.83527 4.31781 8.95089 3.73768C8.97222 3.62118 9.01474 3.50483 9.02541 3.41078C9.07859 2.86195 9.09346 2.63574 9.02541 2.33556C8.97222 2.11408 8.76791 1.91446 8.66141 1.75971C8.55715 1.59833 8.50818 1.53823 8.5295 1.50427C8.55083 1.47031 8.63377 1.4148 8.71459 1.42144C8.80051 1.42407 8.88502 1.44506 8.96298 1.48314C9.04095 1.52121 9.11074 1.57557 9.16811 1.64292C9.33201 1.84225 9.46181 2.5188 9.46181 2.5188L9.59834 3.41152L9.94536 4.5359L8.58269 4.97192Z" fill="#C99E3D"/>
<path fill-rule="evenodd" clip-rule="evenodd" d="M11.0814 4.32122C11.0814 4.32122 11.0316 4.34343 10.9414 4.32122C10.9452 4.35765 10.9388 4.39442 10.9229 4.42749C10.9069 4.46055 10.8821 4.48863 10.851 4.50862C10.7561 4.47067 9.86807 4.54658 9.86807 4.54658C9.86807 4.54658 9.45465 4.47509 9.32583 3.93509C9.23558 3.57572 9.39359 3.08044 9.34161 2.75462C9.26253 2.27478 9.15188 2.18093 9.14056 2.03163C9.12924 1.88232 9.11792 1.84422 9.11792 1.75052C9.06818 1.73934 9.03884 1.72375 8.98925 1.72375C8.97793 1.67962 9.00042 1.64108 8.95083 1.56297C8.97793 1.57415 9.1632 1.59651 9.38004 1.7995C9.55875 1.9647 9.55875 2.02486 9.5857 2.0584C9.61951 2.09179 9.89294 2.32318 10.0104 2.55383C10.1279 2.78448 10.3561 3.51997 10.4081 3.64045C10.4239 3.68958 10.4578 3.73871 10.5421 3.85021C10.6732 4.01099 10.8645 4.27709 11.0814 4.32122Z" fill="#B58634"/>
<path fill-rule="evenodd" clip-rule="evenodd" d="M9.66121 1.9892C9.79123 2.20815 9.90804 2.43533 10.011 2.66942C10.1376 2.96691 10.2127 3.21085 10.3716 3.40996C10.2857 3.15053 10.1333 2.64036 10.0432 2.4591C9.94234 2.26736 9.73634 2.06073 9.66121 1.9892Z" fill="#A88F33"/>
<path fill-rule="evenodd" clip-rule="evenodd" d="M8.09874 5.68334C8.09874 5.68334 7.8747 5.73903 7.45762 5.95973C7.32001 6.03099 7.18927 6.09109 7.06277 6.14693C6.73417 6.29622 6.38173 6.43419 6.10212 6.5103C6.12435 6.53705 6.13532 6.54807 6.13532 6.54807C6.13532 6.54807 6.13532 6.65739 6.19528 6.71969C6.16208 6.75319 5.71824 7.05633 5.84927 8.0705C5.93789 8.03714 6.04216 7.99247 6.05766 7.99247C6.08443 7.99703 6.09101 8.0705 6.1242 8.0705C6.1574 8.0705 6.2662 8.02641 6.38159 7.87654C6.3772 7.93678 6.31066 8.54305 6.66778 8.95095C6.73432 8.87293 6.90293 8.61431 6.90293 8.61431L6.90732 8.53188C6.90732 8.53188 6.92282 8.24432 7.01612 7.9813C7.10942 7.71829 7.2912 7.52433 7.2912 7.52433L8.24045 6.16235L8.09874 5.68334Z" fill="#E6C367"/>
<path fill-rule="evenodd" clip-rule="evenodd" d="M7.25475 7.6957C7.21213 7.72612 7.16518 7.74981 7.1155 7.76595C7.1003 7.71106 7.07851 7.52204 7.20685 7.33751C7.357 7.11547 7.68541 6.82767 7.77676 6.59882C7.83555 6.45152 7.80945 6.08247 8.3316 5.61C8.85375 5.13753 9.0581 4.97502 9.0581 4.97502L9.9022 4.54658L10.9399 4.95966L10.4243 7.00047L10.0241 7.95642L8.43227 7.65326L7.25475 7.6957Z" fill="#DCBA5A"/>
<path fill-rule="evenodd" clip-rule="evenodd" d="M7.81422 7.11248L8.01635 6.85976V6.68012C8.01635 6.68012 8.24059 6.6202 8.48254 6.37405C8.72449 6.12791 9.05982 5.65565 9.3552 5.68445C9.65057 5.71777 9.67941 6.32524 9.69053 6.4961C9.70165 6.66697 9.73942 7.05474 9.79928 7.26332C9.86588 7.47175 9.07987 8.26104 9.07987 8.26104L8.54606 8.6668L7.81422 7.11248Z" fill="#E9CE77"/>
<path fill-rule="evenodd" clip-rule="evenodd" d="M8.5246 9.23495C8.5246 9.23495 8.68703 8.96883 8.56799 8.91152C8.63814 8.74641 8.76759 8.57207 8.76759 8.57207C8.76759 8.57207 8.85972 8.33362 9.15811 8.03997C9.4565 7.74633 9.64091 7.55128 9.68922 7.35411C9.719 7.2256 9.7352 7.09407 9.73753 6.96188C9.76978 6.98943 9.80429 7.01397 9.84065 7.03521C9.88896 7.0582 10.1171 7.25537 10.0842 7.65228C10.0514 8.0492 9.91066 8.21432 9.91066 8.21432C9.91066 8.21432 9.7747 8.35645 9.67822 8.42993C9.57495 8.50327 9.53778 8.58809 9.36436 8.59505C9.38219 8.58024 9.40222 8.56859 9.42366 8.56058C9.42366 8.56058 9.24374 8.53774 9.14712 8.62937C9.0505 8.721 8.84511 9.0033 8.74199 9.08828C8.63886 9.15708 8.5246 9.23495 8.5246 9.23495Z" fill="#CDAE50"/>
<path fill-rule="evenodd" clip-rule="evenodd" d="M15.9124 4.87357C15.6478 4.7769 15.3697 4.72236 15.0882 4.71195C14.6177 4.69626 13.9301 4.7232 13.2558 4.72764C12.5301 4.73208 11.8715 4.47841 10.9576 4.43356C10.8076 4.34373 10.426 3.95079 9.23498 4.78373C9.3066 4.77929 10.0997 4.59962 10.3751 4.9455C10.6528 5.289 10.5744 5.87272 10.5365 6.01184C10.4647 6.32175 10.2317 6.773 10.1378 7.08957C10.0439 7.40614 10.066 7.57249 9.99884 7.79449C9.93165 8.01649 9.78384 8.12675 9.87111 8.38264C9.98762 8.31086 10.0483 8.31086 10.2429 7.87308C10.4375 7.4353 10.3975 7.12316 10.7202 6.75272C11.036 6.38006 11.5618 5.87035 11.7618 5.74233C11.9617 5.61431 13.5492 4.78817 15.2115 5.57627C15.6124 5.53365 15.9124 4.87357 15.9124 4.87357Z" fill="#D2A83E"/>
<path fill-rule="evenodd" clip-rule="evenodd" d="M9.94521 4.58635C9.9435 4.57045 9.93963 4.55481 9.9337 4.53978C9.91754 4.50884 9.89632 4.4803 9.87077 4.45514C9.87077 4.45514 9.46095 4.38751 9.25374 4.40856C8.89043 4.44454 8.56211 4.85282 8.40847 5.06226C8.25483 5.27169 8.06389 5.59519 7.85667 5.76238C7.85894 5.74609 7.85481 5.7296 7.84501 5.71581C7.84501 5.71581 7.85667 5.73059 7.8335 5.75178C7.81032 5.77298 7.81017 5.78343 7.82183 5.79361L7.85683 5.82527C7.86834 5.82527 8.18975 5.69405 8.6275 5.32329C9.09319 4.9362 9.44944 4.73764 9.63577 4.66959C9.73515 4.63123 9.83886 4.6033 9.94521 4.58635Z" fill="#C29637"/>
<path fill-rule="evenodd" clip-rule="evenodd" d="M17.475 2.98373C17.475 2.98373 17.4034 3.07055 17.314 3.16625C17.1152 3.37054 16.8561 3.60076 16.6349 3.83771C16.425 4.06377 16.1883 4.23984 15.9223 4.53539C15.6564 4.83093 15.348 5.159 15.27 5.2547C15.1985 5.3504 15.1427 5.50684 15.1427 5.58721C15.1047 5.56113 15.0601 5.53291 15.0601 5.53291C15.0789 5.56703 15.1014 5.59911 15.1271 5.62861C15.1829 5.70468 15.27 5.80052 15.3147 5.85897C15.3696 5.93338 15.4091 6.01753 15.4308 6.10667C15.4576 6.11097 15.6296 6.14363 15.8441 5.80023C16.0587 5.45684 16.3399 5.08092 16.3399 5.08092L16.7867 4.43539L17.0683 3.88785L17.4217 3.27498L17.475 2.98373Z" fill="#AC8132"/>
<path fill-rule="evenodd" clip-rule="evenodd" d="M17.9016 2.41543C17.9016 2.41543 17.6381 2.64127 17.5358 2.77677C17.4334 2.91227 17.1913 3.26789 17.1913 3.26789L17.2784 3.25644L17.7205 2.84542L17.8927 2.52338L17.9016 2.41543Z" fill="#A88F33"/>
<path fill-rule="evenodd" clip-rule="evenodd" d="M17.9028 20.175C17.9028 20.175 17.8985 19.9909 17.9989 19.8809C18.1014 19.7708 18.3611 19.6092 18.6142 19.003C18.8674 18.3968 18.8956 18.2599 18.8956 18.2599C18.8956 18.2599 18.4418 18.6595 18.162 18.7538C18.2275 18.6145 18.2646 18.5158 18.2974 18.4439C18.2602 18.4103 18.1032 18.3721 18.0879 18.3542C18.1751 18.2644 18.2231 18.0443 18.3999 17.8984C18.6269 17.7208 19.0415 17.4156 19.3637 17.1436C19.6859 16.8716 20.3194 16.2389 20.4002 16.0548C20.4482 16.1266 20.459 16.1714 20.459 16.1714C20.459 16.1714 20.1406 16.5981 19.9747 16.8696C19.8284 17.1032 19.8394 17.2356 19.8394 17.2356L20.1406 17.1024C20.1406 17.1024 20.2277 17.4347 19.8329 17.94C20.0055 17.8726 20.0751 17.913 20.1732 17.8568C20.0117 17.9624 19.7892 18.1061 19.5797 18.5012C19.3746 18.8963 19.0953 19.3566 18.624 19.6438C18.1657 19.9469 17.9016 20.1737 17.9016 20.1737L17.9028 20.175Z" fill="#A67A2E"/>
<path fill-rule="evenodd" clip-rule="evenodd" d="M16.6041 5.11363C16.6041 5.11363 16.4266 5.49938 16.4006 5.79958C16.3964 5.87188 16.379 5.92827 16.379 6.01172C16.3747 6.28024 16.3941 6.58045 16.3361 6.72029C16.3144 6.66391 16.3036 6.62553 16.2819 6.60306C16.2495 6.69783 16.191 6.99342 16.1433 7.10395C16.1218 7.0318 16.0741 6.78128 16.0785 6.48569C16.083 6.19009 16.0892 6.13356 16.0892 6.07272C16.0785 6.16287 16.02 6.28486 15.9983 6.35701C15.9659 6.29616 15.9291 6.21717 15.8857 6.15171C15.8598 6.19634 15.8274 6.26224 15.7993 6.29616C15.7948 6.26909 15.7841 6.19679 15.7776 6.09533C15.7733 5.97795 15.7667 5.82681 15.7733 5.79512C15.784 5.73428 15.875 5.49506 16.0677 5.27608C16.2972 5.01425 16.5332 4.51113 16.6024 4.35537C16.6717 4.19961 16.9661 3.55204 16.9661 3.55204H17.1913L16.8643 4.3283C16.8643 4.3283 16.6674 4.75257 16.5656 4.90848C16.4639 5.06439 16.2495 5.51113 16.1542 5.68489C16.2234 5.59012 16.2819 5.54043 16.3513 5.45013C16.4183 5.38691 16.6041 5.11363 16.6041 5.11363Z" fill="#8C6228"/>
<path fill-rule="evenodd" clip-rule="evenodd" d="M17.9792 2.41543C17.941 2.53514 17.8807 2.64629 17.8014 2.74288C17.6619 2.91234 17.3628 3.13884 17.2168 3.31962C17.0835 3.49587 16.8167 3.97663 16.9379 4.54658C16.9824 4.42299 17.0661 4.17808 17.2887 3.90103C17.5113 3.62398 17.7497 3.30588 17.8668 3.05871C17.9835 2.80912 17.9993 2.61235 17.9993 2.61235L18.0437 2.55516L18.0167 2.42463L17.9792 2.41543Z" fill="#CBA94C"/>
<path fill-rule="evenodd" clip-rule="evenodd" d="M22.4447 17.1911C22.4447 17.1911 22.3535 16.9491 22.3262 16.7293C22.2989 16.5095 22.3713 16.4658 22.2875 16.2142C22.2374 16.061 22.1464 16.0825 22.1236 16.061C22.1007 16.0395 22.0848 15.8079 22.0893 15.6813C22.0938 15.5547 22.0848 15.3905 22.062 15.3193C22.0279 15.2927 22.0051 15.2704 21.955 15.1062C21.8981 14.9419 21.8707 14.8597 21.8434 14.811C21.8161 14.7623 21.7362 14.7178 21.7362 14.6689C21.7362 14.5711 21.8274 14.5202 21.8274 14.4932C21.8229 14.4378 21.7545 14.4823 21.7362 14.4666C21.7136 14.44 21.7933 14.2801 21.7637 14.2579C21.7523 14.2469 21.6726 14.3401 21.652 14.3135C21.6292 14.2867 21.6019 14.0225 21.5609 13.8472C21.5223 13.6762 21.4812 13.5519 21.4767 13.5009C21.4722 13.452 21.1623 12.5904 21.0872 12.3817C21.0268 12.2054 20.9758 12.026 20.9347 11.8444C20.9119 11.74 20.896 11.5268 20.8846 11.549C20.8732 11.5713 20.8801 11.68 20.8618 11.6756C20.8458 11.6711 20.7889 11.2916 20.7708 11.2316C20.7549 11.1716 20.6591 10.9681 20.6357 10.8209C20.6129 10.672 20.5629 10.2834 20.5286 10.0192C20.4944 9.755 20.4785 9.64625 20.4785 9.58009C20.4841 9.41827 20.4749 9.25629 20.4512 9.09605C20.4061 8.8162 20.3161 8.47648 20.2371 8.27903C20.0846 7.90593 19.6791 6.95117 19.6066 6.71362C19.6066 6.65361 19.6863 6.68698 19.6863 6.68698C19.6863 6.68698 19.8843 7.17102 20.0301 7.54396C20.1713 7.91706 20.3057 8.24565 20.3399 8.27903C20.3672 8.31225 20.5813 8.67861 20.677 9.27813C20.7726 9.87766 20.8067 10.4305 20.8637 10.799C20.891 10.9747 20.9139 11.161 20.9707 11.3475C21.0322 11.5496 21.1278 11.7583 21.2531 12.078C21.3602 12.3467 21.4399 12.571 21.4831 12.7642C21.5333 13.0107 21.5333 13.1971 21.5628 13.3194C21.5903 13.4237 21.6311 13.6323 21.7269 13.9341C21.8227 14.2359 21.9637 14.6247 22.0593 14.8666C22.2462 15.3507 22.3295 15.7548 22.3577 15.9702C22.3827 16.1923 22.4675 16.9603 22.4447 17.1911Z" fill="#A88F33"/>
<path fill-rule="evenodd" clip-rule="evenodd" d="M17.9669 2.43809L17.9565 2.46559C17.9565 2.46559 17.9876 2.47707 17.9815 2.52301C17.9819 2.58585 17.9784 2.64865 17.9711 2.71096C17.9608 2.79119 17.94 2.85299 17.9359 2.90345C17.9359 3.01118 17.9504 3.13492 17.8127 3.44209C17.7716 3.52685 17.7463 3.60013 17.7255 3.65059C17.6736 3.77434 17.6632 3.79277 17.6175 3.85004C17.6902 3.80471 17.9519 3.6234 18.0847 3.65059C17.9934 3.70786 17.8542 3.82027 17.767 3.96698C17.7878 3.97151 17.875 3.98994 18.0133 3.96698C18.2438 3.928 18.5013 3.83629 18.7276 3.85457C18.9748 3.87058 18.8772 3.52685 18.8772 3.52685L18.5919 2.83471L18.0521 2.41543L17.9669 2.43809Z" fill="#BE9C44"/>
<path fill-rule="evenodd" clip-rule="evenodd" d="M19.4446 7.38723C19.4446 7.38723 19.1802 7.12971 19.0731 6.24594C18.966 5.35808 18.9888 4.05116 18.9888 4.05116L18.7746 3.54066C18.7746 3.54066 18.7295 3.20105 18.6173 3.07464C18.505 2.94822 18.2846 2.73503 18.1843 2.6307C18.0839 2.52638 17.97 2.3843 17.9016 2.36206C17.9358 2.30661 18.0886 1.99363 18.6742 1.98924C19.2598 1.98485 19.4404 2.30222 19.5016 2.41766C19.5627 2.53311 19.8389 3.0322 19.9413 3.98327C20.0371 4.93317 20.0417 5.00429 20.0258 5.33277C20.0144 5.51479 19.9528 5.93648 19.8455 6.387C19.7475 6.76889 19.6407 7.19424 19.4446 7.38723Z" fill="#A17C34"/>
<path fill-rule="evenodd" clip-rule="evenodd" d="M18.6973 8.1295C18.7746 8.13573 18.8519 8.11625 18.9193 8.07351C18.9932 8.06909 19.2611 8.1071 19.467 7.81434C19.481 7.88123 19.5171 8.06246 19.423 8.22335C19.4731 8.16736 19.547 8.14511 19.557 8.1295C19.561 8.21215 19.6309 8.4669 19.3351 9.08601C19.4149 8.98774 19.5089 8.99216 19.5929 8.98096C19.5969 9.09721 19.6528 9.48824 19.505 9.69849C19.407 9.84156 19.247 9.79677 19.247 9.79677C19.2494 9.76554 19.2494 9.73414 19.247 9.70291C19.2431 9.64251 19.2231 9.58224 19.2372 9.54202C19.1598 9.50254 19.0894 9.44801 19.0292 9.38098C18.8552 9.19769 18.6293 8.8849 18.6134 8.6524C18.5934 8.39308 18.8013 8.33724 18.8013 8.33724C18.7839 8.31982 18.769 8.29943 18.7573 8.27683C18.7473 8.23897 18.7373 8.17856 18.6973 8.1295Z" fill="#8C6228"/>
<path fill-rule="evenodd" clip-rule="evenodd" d="M16.9765 5.37477C16.9765 5.37477 16.9656 5.35918 16.9071 5.43049C16.918 5.35918 16.9289 5.29214 16.9332 5.22744C16.9609 5.16755 16.9967 5.112 17.0396 5.06248C17.007 5.12923 16.9852 5.18951 16.9852 5.18951C16.9852 5.18951 17.0657 5.03557 17.1829 4.94191C17.2632 4.87501 17.3652 4.84384 17.4086 4.78136C17.4564 4.71446 17.4455 4.70328 17.4564 4.69211C17.4564 4.69211 17.5628 4.6208 17.7257 4.41099C17.7473 4.38423 17.7799 4.35526 17.8017 4.3285C17.8384 4.31292 17.9253 4.27278 18.0273 4.21911C18.1338 4.15898 18.2532 4.07649 18.327 4.04268C18.4724 3.97578 18.6267 3.98254 18.6982 3.87756C18.7525 3.86198 18.811 3.69466 18.8003 3.55204C18.8805 3.58542 19.293 3.8486 19.4342 4.42407C19.5363 4.83223 19.3538 5.46122 19.2778 5.76469C19.2018 6.06816 19.1911 6.29326 19.0846 6.43147C18.95 6.61452 18.5159 6.87256 18.4094 7.00033C18.3183 7.10516 18.0448 7.37055 18.0555 7.56227C18.0664 7.70504 18.2379 7.78282 18.2749 7.80987C18.312 7.83693 18.3117 7.87015 18.3812 7.85398C18.4508 7.83781 18.4767 7.80487 18.505 7.80487C18.5375 7.80928 18.5375 7.81605 18.5527 7.81605C18.5637 7.81571 18.5746 7.81418 18.5853 7.81149C18.5853 7.81149 18.5744 8.01454 18.1121 8.07614C18.0794 8.0807 18.047 8.09173 18.0056 8.09849C18.06 8.07173 18.0925 8.07173 18.1511 7.98925C18.086 7.97808 17.8993 7.9669 17.8515 7.95132C17.8666 7.92456 17.9166 7.8531 17.9578 7.81972C17.9947 7.78635 17.9535 7.77561 17.921 7.79296C17.8651 7.83206 17.8114 7.87448 17.7603 7.92C17.7061 7.96911 17.6583 8.03601 17.5714 8.09643C17.5454 8.00719 17.5497 7.83766 17.6518 7.71504C17.6256 7.71945 17.5757 7.79752 17.5281 7.78194C17.5194 7.70058 17.5246 7.61831 17.5432 7.53875C17.5693 7.43833 17.7104 7.26219 17.7104 7.26219L18.392 6.01082L18.5374 5.06292L16.9765 5.37477Z" fill="#92723A"/>
<path fill-rule="evenodd" clip-rule="evenodd" d="M16.8903 5.44617C16.8903 5.44617 16.854 5.47346 16.9267 5.52579C16.916 5.54168 16.8903 5.5985 16.8582 5.63718C16.822 5.68216 16.7834 5.71005 16.7684 5.74873C16.7364 5.82835 16.7108 5.88292 16.7108 5.9171C16.7108 5.95129 16.7001 6.16959 16.6103 6.31052C16.5782 6.3606 16.5419 6.44471 16.5162 6.50153C16.4628 6.60154 16.4157 6.68145 16.405 6.72643C16.3838 6.80604 16.3688 7.02434 16.3688 7.02434C16.3688 7.02434 16.4159 6.96287 16.4329 6.94023C16.4071 6.99705 16.3794 7.05838 16.3388 7.10395C16.3645 7.08117 16.4393 7.02434 16.5654 6.90605C16.7407 6.74922 17.0143 6.48534 17.3478 6.27634C17.2472 6.31502 17.1618 6.31502 17.0935 6.32642C17.1469 6.26959 17.6278 5.66912 17.88 5.6123C17.8954 5.59163 17.903 5.56569 17.9015 5.53943L17.6854 5.51679L17.2472 5.61679L17.1833 5.25696L16.8903 5.44617Z" fill="#B18E3E"/>
<path fill-rule="evenodd" clip-rule="evenodd" d="M17.58 7.45755C17.58 7.45755 17.5194 7.51913 17.4633 7.67226C17.4202 7.62639 17.3832 7.5749 17.3533 7.51913C17.2703 7.3776 17.1425 7.19707 16.844 7.2999C16.8396 7.20399 16.8328 7.1537 16.844 7.08519C16.8934 7.0739 17.0437 6.95059 17.194 6.77005C17.2996 6.64674 17.3982 6.50505 17.4655 6.32467C17.5099 6.29034 17.5867 6.23328 17.6874 6.16703C17.831 6.0666 18.0038 5.92943 18.0307 5.77645C17.9634 5.80385 17.8198 5.87236 17.6043 5.86107C17.6874 5.82222 17.8152 5.78112 17.7995 5.61203C17.8332 5.58914 17.8602 5.57318 17.8602 5.57318C17.8349 5.5646 17.8083 5.56072 17.7816 5.56174C17.777 5.54578 17.7704 5.52305 17.7322 5.53434C17.6941 5.54563 17.6878 5.54578 17.6828 5.56174C17.6671 5.56641 17.6155 5.56174 17.5774 5.58929C17.5392 5.61685 17.4337 5.70794 17.3934 5.7239C17.409 5.6965 17.4314 5.65555 17.4314 5.65555C17.4314 5.65555 17.3215 5.66684 17.2429 5.70072C17.0993 5.75101 16.9334 5.8424 16.765 5.93139C16.7807 5.90398 16.7875 5.88622 16.7986 5.8811C16.8097 5.87598 16.8368 5.8698 16.8368 5.86514C16.8368 5.86047 16.8257 5.81997 16.8323 5.80355C16.8827 5.69503 16.942 5.59111 17.0098 5.49293C17.0884 5.38542 17.104 5.23245 17.104 5.23245L17.4473 5.05658L18.4122 4.83073L19.0383 4.86958L18.9597 5.31044L18.5899 6.08015L18.2736 6.78135L17.9122 7.21092L17.58 7.45755Z" fill="#543E26"/>
<path fill-rule="evenodd" clip-rule="evenodd" d="M19.1505 5.57819C19.1505 5.57819 18.7847 6.05798 18.6824 6.13188C18.7477 5.98422 19.1505 5.10525 19.2963 4.86072C19.2637 4.83304 19.2201 4.83304 19.3224 4.4045C19.2354 4.6212 19.2049 4.73434 19.1331 4.79198C19.0614 4.84961 19.0525 4.83121 19.004 4.83121C19.0131 4.81366 19.0169 4.79351 19.0147 4.77358C19.0147 4.77358 18.7078 4.73434 18.4981 4.73434C18.2884 4.73434 17.8734 4.85433 17.6425 4.9512C17.4597 5.03195 17.3573 5.03195 17.292 5.08259C17.2267 5.14022 17.1897 5.20257 17.157 5.21869C17.1309 5.23481 17.0069 5.27633 16.9785 5.32013C16.9523 5.36575 16.9089 5.41699 16.9089 5.42855C16.9089 5.44011 16.8979 5.45638 16.9307 5.44467C16.9414 5.44011 17.0221 5.39388 17.1135 5.33624C17.2375 5.26249 17.3878 5.17718 17.4967 5.12639C17.8079 4.99484 17.906 5.01796 18.0452 4.99028C18.191 4.9626 18.4001 4.89797 18.5393 4.89797C18.6786 4.89341 18.9421 4.89797 19.0031 4.90953C18.977 4.93265 18.9552 4.96032 18.9661 5.05719C18.9661 5.08487 18.9443 5.11483 18.923 5.18174C18.8579 5.37092 18.7337 5.68464 18.6647 5.84386C18.569 6.06056 18.4602 6.2429 18.4064 6.35589C18.3526 6.46888 18.2342 6.76648 18.1169 6.9257C17.9997 7.08492 17.9384 7.18179 17.9017 7.21646C17.8649 7.25113 17.6012 7.45628 17.6208 7.53018C17.6687 7.51407 17.9714 7.39332 18.1911 7.13115C18.4108 6.86898 18.4546 6.709 18.6265 6.5659C18.7985 6.4228 18.9335 6.18298 19.014 5.98468C19.0815 5.80006 19.0657 5.74197 19.1505 5.57819Z" fill="#806031"/>
<path fill-rule="evenodd" clip-rule="evenodd" d="M11.1429 8.99244C11.1429 8.99244 11.0939 9.20139 10.9826 9.3048C10.8737 9.40595 10.6801 9.49316 10.658 9.6632C10.6313 9.83309 10.8515 9.91818 10.8515 9.91818C10.8515 9.91818 10.7313 10.1226 10.7313 10.2764C10.7313 10.435 10.7269 10.4648 10.7425 10.6163C10.7248 10.6281 10.7098 10.6436 10.6985 10.6618C10.6985 10.6618 10.7095 10.8088 10.8186 10.9006C10.9277 10.9923 11.0209 11.0476 11.0765 11.0246C11.085 11.0433 11.0924 11.0625 11.0988 11.0821C11.0988 11.0821 11.1812 10.8662 11.2368 10.6778C11.2923 10.4849 11.3413 10.5123 11.3635 10.2528C11.3856 9.99328 11.6274 9.54767 11.6274 9.54767L11.7924 9.16687L11.5233 8.95095L11.1429 8.99244Z" fill="#B6903C"/>
<path fill-rule="evenodd" clip-rule="evenodd" d="M11.6422 9.37718C11.5857 9.43351 11.5334 9.49381 11.486 9.55758C11.4135 9.65445 11.3569 9.74234 11.2503 9.77989C11.1437 9.81745 11.0757 9.81716 11.0824 9.92071C11.0892 10.0243 11.189 10.068 11.2457 10.1208C11.3069 10.1758 11.3569 10.2682 11.3297 10.3717C11.3636 10.3563 11.4249 10.3386 11.4815 10.2199C11.5382 10.1011 11.9344 9.37732 11.9344 9.37732L11.6422 9.37718Z" fill="#685026"/>
<path fill-rule="evenodd" clip-rule="evenodd" d="M13.176 7.68605C13.176 7.68605 13.2087 7.59298 13.176 7.5254C13.1431 7.45552 12.9441 7.43218 12.8456 7.35293C12.7428 7.27138 12.6181 7.21471 12.5153 7.2505C12.5306 7.21087 12.5919 7.12456 12.5415 7.10598C12.4934 7.0897 12.3141 7.17586 12.266 7.21548C12.2178 7.2551 12.1084 7.30164 12.0866 7.32974C12.0648 7.35785 12.0275 7.41129 12.0056 7.38795C11.9837 7.37167 11.9728 7.32974 11.9356 7.35293C11.8984 7.37612 11.7194 7.53231 11.6863 7.62323C11.6533 7.71415 11.5791 7.91688 11.356 8.1474C11.1329 8.37792 11.0366 8.5272 11.1022 8.61336C11.1678 8.69951 11.1985 8.6367 11.2095 8.71119C11.2179 8.78431 11.2142 8.85844 11.1985 8.93019C11.1723 9.05136 11.1286 9.16547 11.1876 9.18881C11.3385 9.24011 11.4852 9.14274 11.5179 9.17253C11.5835 9.23535 11.4807 9.46142 11.636 9.50565C11.7936 9.55172 11.9489 9.46602 11.9489 9.46602L12.5219 9.13752L13.0732 8.82775L13.3552 8.23356L13.2039 7.73734L13.176 7.68605Z" fill="#D4B968"/>
<path fill-rule="evenodd" clip-rule="evenodd" d="M12.5402 9.10784C12.5402 9.10784 12.4427 8.95985 12.5624 8.82933C12.6821 8.69881 12.8525 8.64375 12.9189 8.56203C12.9063 8.54647 12.8893 8.53497 12.8701 8.52897C12.9142 8.45024 12.9815 8.38693 13.0628 8.34761C13.0297 8.31455 12.9853 8.28803 12.9367 8.28803C12.8281 8.28803 12.7615 8.35431 12.6619 8.35431C12.5646 8.35431 12.5535 8.30566 12.5535 8.30566C12.5535 8.30566 12.7174 8.29022 12.7018 8.21724C12.6863 8.13989 12.658 8.13989 12.658 8.13989C12.658 8.13989 12.9747 8.00879 13.03 7.93887C13.0853 7.86895 13.0788 7.78636 13.0899 7.75329C13.1274 7.75329 13.3467 7.63836 13.4353 7.68701C13.5239 7.73567 13.4618 7.86822 13.4618 7.86822C13.4618 7.86822 13.73 7.66706 13.8667 7.46983C13.9863 7.4809 14.0419 7.38811 14.1295 7.38811C14.2381 7.38811 14.4086 7.53611 14.4418 7.85206C14.464 8.03326 14.4971 8.13712 14.464 8.45759C14.4485 8.6388 14.4529 9.02569 14.5077 9.21767C14.5453 9.37019 14.6339 9.35475 14.6339 9.35475C14.6203 9.40122 14.5933 9.4427 14.5564 9.47405C14.4965 9.52926 14.4899 9.67521 14.4965 9.73042C14.5053 9.77078 14.5164 9.81061 14.5298 9.84972C14.5298 9.84972 14.459 9.93144 14.4412 9.98679C14.4257 10.042 14.3527 10.0796 14.2994 10.0796C14.2461 10.0796 14.2728 10.0751 14.202 10.0796C14.1312 10.0841 14.109 10.095 14.0647 10.0796C14.0203 10.0641 13.9871 10.0464 14.0049 9.90478C14.0204 9.76334 13.4579 9.43413 13.4579 9.43413L12.5381 9.10711L12.5402 9.10784Z" fill="#CCA849"/>
<path fill-rule="evenodd" clip-rule="evenodd" d="M11.509 10.5298C11.509 10.5298 11.715 10.7979 12.562 10.7979C12.9651 10.7979 13.1055 10.7603 13.189 10.7381C13.2796 10.7159 13.6192 10.5853 13.9612 10.1908C14.2692 9.83412 14.2013 9.68791 14.2013 9.68791L14.0222 9.66133L13.4399 9.73889L11.7172 10.4568L11.509 10.5298Z" fill="#585136"/>
<path fill-rule="evenodd" clip-rule="evenodd" d="M12.2146 10.4878C12.2146 10.4878 11.5082 10.6403 11.5082 10.2064C11.5082 9.78316 11.9442 9.3387 12.0533 9.26043C12.1667 9.18203 12.437 9.09303 12.437 9.09303H13.089L13.2131 9.41264L13.1587 10.1025L12.2146 10.4878Z" fill="#252211"/>
<path fill-rule="evenodd" clip-rule="evenodd" d="M12.7858 9.27933C12.7858 9.27933 12.6535 9.15549 12.3525 9.32228C12.0514 9.48907 11.8079 9.83769 11.793 10.1542C11.7781 10.4343 12.0193 10.6429 12.3951 10.6537C12.6748 10.6645 12.8435 10.632 12.929 10.6108C12.9076 10.5847 12.7965 10.4436 12.7965 10.4436L12.7858 9.27933Z" fill="#C3B378"/>
<path fill-rule="evenodd" clip-rule="evenodd" d="M12.6876 9.2424C12.6876 9.2424 12.6548 9.21321 12.5578 9.27159C12.4769 9.3197 12.3589 9.44687 12.267 9.53684C12.2079 9.59041 12.1707 9.61462 12.1373 9.656C12.0016 9.8361 11.8879 10.1305 11.9536 10.2765C12.0193 10.4224 12.2357 10.5903 12.7869 10.476L12.686 9.24256L12.6876 9.2424Z" fill="#E6D89C"/>
<path fill-rule="evenodd" clip-rule="evenodd" d="M12.47 9.57445C12.47 9.57445 12.3781 9.70831 12.3781 9.92196C12.3781 10.1399 12.5091 10.4873 12.9919 10.5131C13.3619 10.5348 13.6101 10.0126 13.879 9.80973C14.0836 9.6544 14.2077 9.64998 14.2077 9.64998C14.2077 9.64998 13.9986 9.43661 13.4401 9.16023C12.8884 8.88185 12.27 8.84515 11.9344 9.27246C12.0931 9.26165 12.6057 9.13861 12.6057 9.13861L12.8563 9.21414L12.47 9.57445Z" fill="#252211"/>
<path fill-rule="evenodd" clip-rule="evenodd" d="M13.1835 9.86366C13.1688 9.82514 13.1582 9.77356 13.2193 9.76083C13.2804 9.7481 13.3077 9.75557 13.3288 9.81173C13.3499 9.8679 13.3704 9.91473 13.3392 9.93798C13.3077 9.95851 13.2257 9.93832 13.1835 9.86366ZM13.0845 9.5007C13.0845 9.5007 13.0635 9.51869 13.074 9.48272C13.0782 9.43911 13.1056 9.36173 13.1729 9.37989C13.2403 9.39805 13.2257 9.48798 13.2146 9.51377C13.2035 9.53956 13.1473 9.58317 13.1051 9.56468C13.0997 9.563 13.0948 9.55981 13.0906 9.55536C13.0865 9.55091 13.0833 9.54533 13.0812 9.53906C13.0791 9.5328 13.0783 9.52603 13.0788 9.51931C13.0793 9.51258 13.0816 9.50643 13.0845 9.5007Z" fill="#6F674D"/>
<path fill-rule="evenodd" clip-rule="evenodd" d="M7.10383 9.67538C7.10383 9.67538 7.28511 9.80844 7.4957 9.80326C7.70416 9.79868 7.97231 9.588 8.09603 9.45332C8.16929 9.37481 8.23199 9.29187 8.29996 9.22682C8.35737 9.17079 8.39619 9.14388 8.42369 9.10574C8.46266 9.06139 8.5039 8.97801 8.5246 8.95095C8.47414 8.98909 8.40088 9.05651 8.32519 9.1013C8.25193 9.14566 8.09376 9.22904 8.02956 9.25151C7.96777 9.27398 7.32605 9.60634 7.32605 9.60634L7.10383 9.67538Z" fill="#AC924C"/>
<path fill-rule="evenodd" clip-rule="evenodd" d="M7.38799 8.00746C7.38799 8.00746 7.48732 7.93854 7.67944 7.89477C7.8647 7.84933 8.23747 7.81434 8.23747 7.81434L8.5447 7.95066L8.66667 8.42172L8.44328 8.91127L8.15868 9.09303L7.83551 8.56456L7.38873 8.00837L7.38799 8.00746Z" fill="#9F8E57"/>
<path fill-rule="evenodd" clip-rule="evenodd" d="M6.9228 8.45032L6.81968 8.52472C6.81968 8.52472 6.84611 8.4781 6.86792 8.33628C6.88973 8.19447 7.00383 7.84927 7.17035 7.65023C7.33688 7.45118 7.33255 7.46179 7.33255 7.46179C7.31723 7.45908 7.30148 7.45956 7.28636 7.46319C7.27125 7.46683 7.25711 7.47354 7.24488 7.48287C7.26683 7.43597 7.40708 7.26847 7.54732 7.18472C7.68756 7.10097 7.7423 7.07459 7.88904 7.14284C8.03578 7.2111 8.07304 7.24655 8.1805 7.24237C8.28795 7.23818 8.37981 7.12805 8.37981 7.12805C8.37981 7.12805 8.40176 7.19574 8.32074 7.3525C8.23971 7.50925 7.9198 7.8289 7.9198 7.8289L7.25369 8.26928L6.9228 8.45032Z" fill="#EAC970"/>
<path fill-rule="evenodd" clip-rule="evenodd" d="M7.5306 8.02546C7.5306 8.02546 7.97777 8.09143 8.11387 7.95514C8.11789 7.97051 8.13424 7.97051 8.13424 7.98153C8.13314 7.98984 8.12957 7.99753 8.12406 8.00343C8.13886 8.00087 8.15381 7.99942 8.1688 7.99908C8.1867 8.00484 8.20511 8.00854 8.22372 8.0101C8.23872 8.00974 8.25367 8.00824 8.26847 8.0056C8.26706 8.01653 8.26362 8.02705 8.25838 8.03651C8.25313 8.04598 8.24617 8.0542 8.23792 8.0607C8.25829 8.0607 8.27811 8.06505 8.27811 8.08259C8.27811 8.10013 8.28213 8.15305 8.25775 8.16407C8.23755 8.17012 8.21605 8.16853 8.1968 8.15958C8.19841 8.20122 8.20886 8.2419 8.22734 8.27847C8.26753 8.35981 8.35327 8.45245 8.46847 8.42578C8.46847 8.42578 8.52929 8.5841 8.27329 8.93599C8.23886 8.98442 8.20216 9.05039 8.15755 9.10534C8.13992 9.14692 8.12645 9.19042 8.11736 9.2351C8.11736 9.2351 8.55033 9.05474 8.67424 8.64341C8.8003 8.2299 8.82468 7.82306 8.8003 7.44261C8.79615 7.33474 8.77994 7.25789 8.75556 7.2028C8.6946 7.06636 8.5238 7.0884 8.45481 7.16539C8.35514 7.27326 8.18849 7.54149 7.95687 7.72621C7.7211 7.91092 7.71158 7.94369 7.5306 8.02546Z" fill="#D7BC6B"/>
<path fill-rule="evenodd" clip-rule="evenodd" d="M6.8309 8.55299C6.8309 8.55299 6.73922 8.60711 6.69115 8.81002C6.64308 9.01792 6.73433 9.27137 6.78715 9.35148C6.83996 9.43158 6.95985 9.65048 7.20854 9.66133C7.2701 9.66101 7.33097 9.64848 7.38758 9.62449C7.47439 9.585 7.55582 9.53476 7.62994 9.47499C7.73701 9.39489 7.82423 9.32563 7.81329 9.31906C7.78709 9.30821 7.15399 8.78831 7.15399 8.78831L6.91595 8.52472L6.8309 8.55299Z" fill="#585136"/>
<path fill-rule="evenodd" clip-rule="evenodd" d="M7.47284 9.51926C7.47284 9.51926 7.59345 9.50702 7.66501 9.45251C7.73657 9.398 7.24591 8.80887 7.24591 8.80887L7.28068 9.44533L7.47284 9.51926Z" fill="#453A25"/>
<path fill-rule="evenodd" clip-rule="evenodd" d="M6.88593 8.53162C6.88593 8.53162 6.8218 8.6554 6.8218 8.68802C6.81109 8.79434 6.84322 9.12861 6.86887 9.23493C6.89453 9.34783 7.0335 9.51926 7.21321 9.51926C7.32428 9.51926 7.47834 9.44985 7.47834 9.43254C7.47834 9.41079 7.32005 9.38961 7.27734 9.30876C7.25169 9.26584 7.24098 9.15909 7.23506 9.0512C7.23083 8.98179 7.23083 8.90581 7.25648 8.87948C7.31427 8.81438 7.32484 8.62764 7.32484 8.62764L7.53006 8.24057H7.26015L6.93723 8.44462L6.88593 8.53162Z" fill="#84754B"/>
<path fill-rule="evenodd" clip-rule="evenodd" d="M6.81968 8.61758C6.81968 8.61758 7.04116 8.33005 7.24079 8.26406C7.44042 8.19808 7.52975 8.23773 7.52975 8.23773L7.41325 8.52974L7.24744 8.70976L7.25866 8.80194C7.25866 8.80194 7.23164 9.04562 7.39745 9.21464C7.56327 9.38366 7.68641 9.37715 7.75817 9.37715C7.82993 9.37715 8.03591 9.31781 8.14119 9.07413C8.23525 8.84593 8.31365 8.55319 8.12554 8.25972C7.94171 7.9677 7.61702 7.95642 7.55426 7.95642C7.49151 7.95642 6.99879 7.98101 6.81968 8.61758Z" fill="#252211"/>
<path fill-rule="evenodd" clip-rule="evenodd" d="M12.5357 9.64782C12.4582 9.60629 12.5316 9.35241 12.609 9.27416C12.6865 9.19592 12.7849 9.10577 12.9568 9.09337C13.0195 9.08854 13.0802 9.13491 13.0699 9.18385C13.0553 9.27417 12.9463 9.40119 12.8479 9.4915C12.7117 9.61611 12.6237 9.69419 12.5357 9.64782Z" fill="#F7F7E7"/>
<path fill-rule="evenodd" clip-rule="evenodd" d="M8.09181 8.38289C8.14903 8.37902 8.22314 8.4216 8.23793 8.4789C8.25273 8.54149 8.20193 8.6668 8.09181 8.6668C8.00291 8.6668 7.95629 8.56498 7.95629 8.53568C7.95729 8.5116 7.96457 8.48809 7.97751 8.46716C7.98169 8.46122 7.9923 8.3927 8.09181 8.38289Z" fill="#F8F6DE"/>
<path fill-rule="evenodd" clip-rule="evenodd" d="M7.22762 8.38264C7.22762 8.38264 7.08107 8.46189 7.01319 8.62773C6.96468 8.7502 6.95001 8.88724 6.9712 9.01987C6.98184 9.0818 7.03488 9.23539 7.071 9.28996C7.10711 9.34453 7.15596 9.38178 7.19207 9.37672C7.22818 9.37165 7.30236 9.26022 7.30236 9.19339C7.30236 9.12657 7.3067 8.8439 7.37669 8.69015C7.43827 8.53656 7.22762 8.38264 7.22762 8.38264Z" fill="#D4C38B"/>
<path fill-rule="evenodd" clip-rule="evenodd" d="M7.16166 8.43008C7.1367 8.44704 7.09515 8.47137 7.10544 8.5029C7.11586 8.53202 7.20321 8.5509 7.23448 8.62196C7.26986 8.69477 7.26986 8.77239 7.25944 8.80887C7.28661 8.79381 7.31127 8.77322 7.33226 8.74806C7.37806 8.68741 7.43415 8.60499 7.48201 8.60499C7.51327 8.60499 7.5444 8.62196 7.57361 8.62196C7.61941 8.62196 7.66508 8.60499 7.67139 8.54914C7.68167 8.47633 7.58403 8.41072 7.52781 8.42288C7.53823 8.37487 7.55277 8.30398 7.50696 8.25533C7.46116 8.20668 7.31772 8.29181 7.28645 8.31614C7.25519 8.34046 7.16166 8.43008 7.16166 8.43008Z" fill="#E2D59D"/>
<path fill-rule="evenodd" clip-rule="evenodd" d="M10.7452 13.168L11.087 13.0712L11.184 13.1376C11.184 13.1376 11.2531 13.2795 11.3618 13.2971C11.3271 13.368 11.2369 13.4286 11.2417 13.4788C11.2464 13.5291 11.2925 13.5675 11.2925 13.5675C11.2925 13.5675 10.9853 14.0549 11.5904 14.5462C11.4472 14.6015 11.2648 14.6776 11.1678 14.7215C11.2369 14.7369 11.3848 14.7653 11.4472 14.819C11.5096 14.8728 11.5096 14.8899 11.5673 14.9232C11.625 14.9565 11.6595 15.0007 11.6481 15.0206C11.6088 14.9984 11.4772 14.9321 11.4542 14.994C11.4312 15.056 10.8838 15.0317 10.8838 15.0317L9.96005 15.2023C9.96005 15.2023 9.9946 15.1137 9.89763 15.0317C9.78452 14.9343 9.646 15.0361 9.49818 14.9276C9.30424 14.7857 9.29724 14.6217 9.23498 14.5598C9.29724 14.5221 9.42435 14.4667 9.72683 14.4283C9.71526 14.4061 9.67599 14.3396 9.69913 14.2799C9.72683 14.2023 9.84222 14.1535 9.80766 14.0608C9.85851 14.0497 9.8815 14.0497 10.0086 13.8968C10.1287 13.7438 10.2025 13.7107 10.2949 13.6996C10.3874 13.6885 10.4428 13.6996 10.6137 13.5466C10.7337 13.4381 10.6945 13.345 10.6945 13.345C10.6945 13.345 10.7728 13.3209 10.7452 13.168Z" fill="#CBAC5A"/>
<path fill-rule="evenodd" clip-rule="evenodd" d="M9.8103 13.1851C9.81456 13.1621 9.83191 13.1506 9.94838 13.1621C10.0648 13.1736 10.8026 13.0889 11.0033 13.0774C11.2061 13.0614 11.9201 13.0728 12.2675 13.1506C12.6149 13.2285 12.9664 13.3202 13.1368 13.3659C13.3075 13.4163 13.3612 13.4344 13.3547 13.4574C13.3504 13.4803 13.312 13.5026 13.29 13.4963C13.2685 13.4918 12.7032 13.3085 12.5286 13.2699C12.354 13.2312 11.7497 13.1278 11.4194 13.134C11.1109 13.1387 10.9879 13.1295 10.727 13.1615C10.4659 13.1959 10.0344 13.2417 9.90501 13.2234C9.77702 13.2074 9.80375 13.208 9.8103 13.1851Z" fill="#D6BC6F"/>
<path fill-rule="evenodd" clip-rule="evenodd" d="M11.5779 14.9559C11.5779 14.9559 12.0372 15.2028 12.203 15.5054C12.324 15.73 12.1314 15.8414 12.1314 15.8414C12.1314 15.8414 12.3913 15.8414 12.3577 15.9838C12.342 16.0726 11.9096 16.3128 11.6206 16.4397C11.3272 16.5666 11.3384 16.56 11.195 16.5821C11.056 16.6044 10.6752 16.5381 10.5967 16.6488C10.5183 16.7596 10.5524 16.8736 10.5743 16.8914C10.5967 16.9069 10.7782 16.9292 10.7782 16.9292C10.7782 16.9292 10.7401 17.0338 10.3639 17.0449C9.98758 17.0561 9.89336 17.0826 9.87091 17.1228C9.84847 17.1605 9.94254 17.1384 10.1152 17.1668C10.2877 17.1935 10.5296 17.2108 10.5296 17.2108C10.5296 17.2108 10.4511 17.2775 10.2473 17.3309C10.0143 17.3909 9.6491 17.4466 9.53938 17.5134C9.59535 17.5512 9.67834 17.6068 9.71659 17.6112C9.62252 17.6335 9.4902 17.6824 9.4679 17.7002C9.50142 17.7225 9.54632 17.7492 9.54632 17.7492C9.54632 17.7492 9.35803 17.9739 9.24831 18.0296C9.13858 18.0853 8.50682 18.3766 8.28944 18.321C7.74731 18.1786 7.68012 17.589 7.54795 17.5446C7.34858 17.4779 7.25451 17.6112 7.07745 17.5178C7.15587 17.4622 7.19854 17.4289 7.28139 17.391C7.19175 17.3471 6.72804 17.0551 6.72804 17.0551C6.67955 16.9501 6.62573 16.8477 6.56678 16.7481C6.47714 16.5946 6.34526 16.3898 6.24632 16.2096C6.0313 15.8136 6.02008 15.6312 5.82514 15.4065C5.85882 15.3625 5.97519 15.3687 5.97519 15.3687L7.6085 15.9027L10.5046 15.986L11.2578 14.9182L11.5779 14.9559Z" fill="#DFC677"/>
<path fill-rule="evenodd" clip-rule="evenodd" d="M7.24591 16.4793C7.26324 16.4987 7.28344 16.5152 7.3058 16.5284C7.36144 16.5664 7.44358 16.6112 7.49908 16.678C7.52134 16.6446 7.57683 16.5842 7.67479 16.678C7.77275 16.7718 7.89443 16.7049 7.97014 16.7272C8.04789 16.7541 8.05228 16.7652 8.05228 16.7652C8.05228 16.7652 8.09621 16.7272 8.19446 16.687C8.2545 16.6646 8.32551 16.649 8.40326 16.6268C8.47428 16.6112 8.55204 16.5888 8.60548 16.5888C8.65439 16.6222 8.82981 16.8096 9.53397 16.533C10.1982 16.2739 10.3513 16.2449 10.4625 16.285C10.4736 16.2582 10.4847 16.2068 10.6557 16.2136C10.6557 16.1422 10.5136 15.8987 10.5136 15.8987L9.72945 15.6285H9.30057L8.0145 15.8653L7.30184 16.2741L7.24591 16.4793Z" fill="#C4A859"/>
<path fill-rule="evenodd" clip-rule="evenodd" d="M6.81968 16.0526C6.81968 16.0526 6.83527 16.1671 7.01377 16.2881C7.19022 16.4089 7.24565 16.481 7.24565 16.481C7.24565 16.481 7.27918 16.4391 7.30594 16.3963C7.3327 16.3496 7.35505 16.2966 7.3996 16.2818C7.48886 16.2457 7.69177 16.3135 7.73647 16.3029C7.77441 16.2924 7.76323 16.2182 7.80337 16.2182C7.89704 16.2138 7.95718 16.2753 7.9907 16.2753C8.02423 16.2753 8.10657 16.2711 8.11774 16.2542C8.12892 16.2373 8.13333 16.0611 8.26052 15.9763C8.39888 15.883 8.56842 15.9233 8.61341 15.9445C8.61341 15.9763 8.61782 16.0549 8.70708 16.059C8.79633 16.0632 8.80515 16.0484 8.88352 16.0739C8.9619 16.0993 9.05527 16.0697 9.09761 16.1947C9.13555 16.1842 9.2248 16.1736 9.20245 16.0526C9.24657 16.0209 9.28509 15.9996 9.3789 15.8745C9.40125 15.8428 9.43904 15.8067 9.46815 15.76C9.54623 15.76 9.6399 15.7452 9.76473 15.8491C9.7268 15.8745 9.70445 15.891 9.69342 15.9169C9.72607 15.9476 9.75588 15.981 9.78252 16.0165C9.81605 16.0585 9.8384 16.1099 9.88075 16.1206C9.97441 16.146 10.1284 16.1099 10.3001 16.1206C10.4652 16.1312 10.6034 16.1884 10.6637 16.2244C10.6861 16.214 10.6861 16.2096 10.7418 16.2203C10.7975 16.2309 10.8399 16.2351 10.7797 16.1673C10.8131 16.1821 10.8511 16.214 10.8846 16.1821C10.9181 16.1502 10.9447 16.1037 11.0384 16.093C11.1321 16.0824 11.1656 16.0972 11.2035 16.004C11.2526 15.8895 11.0831 15.8895 11.0831 15.8895C11.0831 15.8895 11.1612 15.8215 11.2482 15.7325C11.3531 15.6392 11.4735 15.5183 11.5024 15.3698C11.5516 15.0962 11.2706 15.0602 11.2706 15.0602L9.90765 15.459L8.2414 15.3804L6.81968 16.0526Z" fill="#927D49"/>
<path fill-rule="evenodd" clip-rule="evenodd" d="M5.58097 12.1071C5.58097 12.1071 5.53714 12.1638 5.51011 12.2978C5.48308 12.4318 5.49462 12.4159 5.47241 12.5112C5.4502 12.6066 5.17742 13.5557 5.2797 13.8759C5.38197 14.196 5.55905 14.3141 5.6698 14.5729C5.69201 14.6297 5.71363 14.6638 5.72517 14.7138C5.76287 14.8817 5.7297 15.0112 5.77397 15.1793C5.78946 15.236 5.82949 15.3019 5.88925 15.37C6.02075 15.5107 6.23509 15.6446 6.32757 15.74C6.45819 15.8808 6.64448 16.167 6.88161 16.1941C7.00799 16.21 7.18755 16.1555 7.336 16.0648C7.46749 15.9807 7.54873 15.8627 7.68665 15.7954C7.7841 15.7454 7.88828 15.7273 7.98135 15.7045C8.17421 15.6659 8.34939 15.6596 8.45356 15.6818C8.61311 15.7159 8.98992 15.834 9.1987 15.834C9.36185 15.8313 9.52408 15.8084 9.68188 15.7659C9.99878 15.6705 10.3822 15.5069 10.6349 15.4343C10.7834 15.3894 10.903 15.3776 11.025 15.3504C11.2334 15.3004 11.4084 15.2323 11.5082 15.1028C11.4417 15.0233 11.3598 14.9007 10.9163 14.9052C10.4133 14.9166 9.83251 15.2026 9.54658 15.2481C9.26065 15.2936 9.13661 15.3321 8.81737 15.214C8.50441 15.0947 8.49403 15.0158 8.49403 15.0158C8.49403 15.0158 8.16544 14.7804 8.02795 14.1802C7.89047 13.58 8.02796 13.1426 8.38489 12.7269C8.47796 12.6202 8.45575 12.5249 8.45575 12.5249C8.45575 12.5249 8.69069 12.2002 8.62641 11.8962C8.55554 11.5942 8.10115 11.6555 8.10115 11.6555L5.58097 12.1071Z" fill="#6E6342"/>
<path fill-rule="evenodd" clip-rule="evenodd" d="M5.99388 13.0712C5.97451 13.1115 5.9654 13.1569 5.96752 13.2025C5.97187 13.2681 5.98954 13.3533 6.16738 13.5456C6.31901 13.7134 6.28599 13.9007 6.28599 13.9007C6.28599 13.9007 6.36231 13.9177 6.56941 13.8104C6.73205 13.7252 6.78665 13.8761 6.78665 13.8761C6.83399 13.8487 6.88531 13.8305 6.93828 13.8226C6.98628 13.8177 7.03273 13.8013 7.07442 13.7745C7.07442 13.7745 7.26558 13.991 7.43257 14.0932C7.5842 14.1833 7.67211 14.2441 7.74684 14.1833C7.81708 14.1297 7.81708 14.0202 7.81259 13.9716C7.79516 13.9267 7.77309 13.8843 7.74684 13.845C7.69846 13.7672 7.62156 13.6771 7.61649 13.6045C7.60549 13.4367 7.73076 13.237 7.70426 13.1884C7.67775 13.1398 7.57913 13.1276 7.33524 13.225C7.08267 13.3174 5.99287 13.0716 5.99287 13.0716L5.99388 13.0712Z" fill="#39331F"/>
<path fill-rule="evenodd" clip-rule="evenodd" d="M6.60566 14.0657C6.60566 14.0657 6.50878 13.9686 6.54275 13.4975C6.58388 13.4968 6.62495 13.501 6.6652 13.51C6.6652 13.51 6.71802 13.8751 6.60566 14.0657Z" fill="#292311"/>
<path fill-rule="evenodd" clip-rule="evenodd" d="M5.63927 11.6685C5.65721 11.6553 5.67385 11.6404 5.68897 11.624C5.64432 11.7073 5.4382 12.0408 5.60533 12.5659C5.77247 13.0886 6.19231 13.4784 6.70934 13.4965C7.22637 13.5146 7.49813 13.2621 7.80888 12.8836C7.93077 12.7327 8.07082 12.5433 8.19494 12.415C8.38009 12.2143 8.5246 12.158 8.5246 11.9643C8.5246 11.5677 8.11815 11.3896 7.51986 11.2116C6.92157 11.0337 6.38192 11.0557 6.10197 11.1775C5.82887 11.3103 5.7116 11.4499 5.63927 11.6685Z" fill="#252211"/>
<path fill-rule="evenodd" clip-rule="evenodd" d="M7.53062 14.3148L7.58609 14.2861C7.58609 14.2861 7.59995 14.0598 7.68981 14.0658C7.77949 14.0802 7.82165 14.2005 7.81314 14.2433C7.8076 14.2861 7.78522 14.3578 7.69536 14.3491C7.57758 14.352 7.53062 14.3148 7.53062 14.3148Z" fill="#3F3824"/>
<path fill-rule="evenodd" clip-rule="evenodd" d="M7.38799 13.4994C7.38799 13.4994 7.42775 13.4845 7.47639 13.5356C7.51615 13.5356 7.6895 13.5143 7.74384 13.5505C7.79818 13.5868 7.81422 13.6186 7.81422 13.6186C7.81422 13.6186 7.61117 13.6655 7.50051 13.6186C7.38799 13.5782 7.38799 13.4994 7.38799 13.4994Z" fill="#2D2815"/>
<path fill-rule="evenodd" clip-rule="evenodd" d="M8.38252 13.5831C8.38252 13.5766 8.24787 13.5286 8.10565 13.513C8.08066 13.5104 8.07556 13.5195 8.05633 13.5195C8.04383 13.5169 8.0389 13.4974 8.0389 13.4974L7.95801 13.5195C7.95801 13.5195 7.94551 13.5286 7.98793 13.5452C8.02525 13.5608 8.08773 13.5738 8.10516 13.5997C8.12259 13.6256 8.12259 13.6346 8.13015 13.6386C8.13508 13.6411 8.22238 13.6386 8.2648 13.6256C8.30722 13.6126 8.38762 13.5916 8.38252 13.5831Z" fill="#82764F"/>
<path fill-rule="evenodd" clip-rule="evenodd" d="M7.24591 14.024C7.24591 14.024 7.27259 13.9282 7.45231 13.924C7.63715 13.917 7.67214 14.0101 7.67214 14.0101L7.56488 14.0657C7.56488 14.0657 7.48359 14.006 7.24591 14.024Z" fill="#2D2816"/>
<path fill-rule="evenodd" clip-rule="evenodd" d="M8.24045 13.3461C8.24045 13.3461 8.15979 13.4625 7.9814 13.4974C7.96618 13.4683 7.93346 13.4102 7.9814 13.3172C8.02933 13.2242 8.08372 13.195 8.13812 13.224C8.16212 13.2292 8.1845 13.2434 8.20263 13.2651C8.22077 13.2867 8.23389 13.3148 8.24045 13.3461Z" fill="#574F35"/>
<path fill-rule="evenodd" clip-rule="evenodd" d="M8.56305 13.4378C8.56768 13.4195 8.55183 13.4159 8.56305 13.4068C8.57427 13.3976 8.63576 13.3795 8.64713 13.3885C8.65161 13.3922 8.64713 13.4068 8.64713 13.4246C8.64713 13.4424 8.64713 13.4607 8.63576 13.4738C8.6199 13.4921 8.57457 13.5013 8.55183 13.4958C8.52909 13.4904 8.5246 13.4648 8.5246 13.4597C8.53582 13.4561 8.56305 13.447 8.56305 13.4378ZM8.95053 13.2407C8.95053 13.2315 8.98913 13.2132 9.01187 13.2132C9.04583 13.2132 9.04583 13.2351 9.05047 13.2407C9.06169 13.2443 9.06169 13.237 9.07306 13.2534C9.08443 13.2699 9.10044 13.2991 9.08892 13.3174C9.0774 13.3357 9.03222 13.3483 9.021 13.3447C9.00514 13.3355 8.95517 13.2534 8.95053 13.2407Z" fill="#82764F"/>
<path fill-rule="evenodd" clip-rule="evenodd" d="M8.24045 13.4976C8.24045 13.4976 8.24045 13.5132 8.24045 13.5923C8.24045 13.6143 8.24045 13.6395 8.24045 13.6395C8.24045 13.6395 8.24045 13.5671 8.24045 13.4976Z" fill="#6E6342"/>
<path fill-rule="evenodd" clip-rule="evenodd" d="M8.09984 13.0504C8.09049 13.039 8.12779 13.0112 8.1502 13.0158C8.17261 13.0204 8.18197 13.039 8.20622 13.0436C8.23048 13.0481 8.23429 13.032 8.24316 13.0204C8.25202 13.0088 8.28428 13.0158 8.28982 13.0204C8.29327 13.0255 8.2964 13.0309 8.29918 13.0365C8.29957 13.0278 8.30142 13.0192 8.30462 13.0113C8.30782 13.0034 8.3123 12.9965 8.31777 12.9908C8.32493 12.9843 8.3332 12.9799 8.34194 12.9779C8.35068 12.9759 8.35967 12.9763 8.36825 12.9792C8.37194 12.9954 8.39066 13.0532 8.38696 13.0647C8.38327 13.0763 8.32725 13.0926 8.31777 13.0809C8.32713 13.1088 8.36825 13.1666 8.37379 13.178C8.37933 13.1894 8.33267 13.2173 8.31408 13.2127C8.28797 13.2105 8.12779 13.0943 8.09984 13.0504ZM8.34449 12.6666C8.34103 12.655 8.33441 12.6452 8.32577 12.6389C8.31272 12.6343 8.26975 12.6389 8.26975 12.6666C8.26975 12.6944 8.30669 12.8495 8.34818 12.9303C8.39497 13.0112 8.42661 13.0782 8.45837 13.0968C8.46835 13.1024 8.47967 13.1031 8.49007 13.0988C8.50046 13.0945 8.50915 13.0855 8.51439 13.0736C8.51809 13.062 8.52744 12.9765 8.52375 12.7753C8.52006 12.5741 8.51439 12.3799 8.50504 12.3683C8.49568 12.3568 8.45837 12.3569 8.44532 12.3799C8.43227 12.4029 8.3483 12.632 8.34449 12.6666Z" fill="#585136"/>
<path fill-rule="evenodd" clip-rule="evenodd" d="M8.09837 13.8026C8.09837 13.8026 8.04815 13.7647 7.99936 13.7906C7.95349 13.8165 7.95633 13.918 7.95633 13.918C7.96664 13.9229 7.97779 13.9246 7.9888 13.9231C7.99981 13.9216 8.01035 13.9169 8.0195 13.9094C8.05108 13.8836 8.09118 13.8405 8.09837 13.8026Z" fill="#574F35"/>
<path fill-rule="evenodd" clip-rule="evenodd" d="M8.28483 14.0029C8.28039 13.9608 8.24045 13.9608 8.24045 13.939C8.2432 13.9286 8.24955 13.9194 8.25848 13.9128C8.26741 13.9062 8.27841 13.9027 8.28971 13.9028C8.3122 13.9028 8.33409 13.9283 8.36161 13.9449C8.38854 13.9598 8.42893 13.987 8.43336 14.0194C8.4378 14.0518 8.38898 14.1407 8.33469 14.1407C8.28039 14.1407 8.29607 14.0454 8.28483 14.0029ZM8.71801 13.9453C8.71801 13.9453 8.62821 13.9709 8.63487 13.9453C8.64152 13.9198 8.66194 13.9135 8.69109 13.9135C8.70589 13.8987 8.72581 13.8896 8.74716 13.8878C8.75937 13.8872 8.77136 13.891 8.78074 13.8984C8.78074 13.8984 8.8414 13.8729 8.8593 13.8878C8.8772 13.9026 8.86389 13.9026 8.87498 13.9198C8.88911 13.9388 8.89838 13.9606 8.90206 13.9836C8.90206 14.0006 8.83474 14.0368 8.78074 14.0305C8.71801 14.0177 8.72911 13.956 8.71801 13.9453ZM9.24085 13.8494C9.24085 13.8494 9.26778 13.8643 9.24544 13.8814C9.22975 13.8963 9.15119 13.9236 9.08373 13.9283C9.01642 13.9283 8.95591 13.9389 8.95591 13.9177C8.95591 13.8965 9.01198 13.8538 9.04556 13.8431C9.0523 13.8351 9.06085 13.8287 9.07059 13.8243C9.08032 13.8198 9.09099 13.8176 9.10178 13.8176C9.12871 13.8176 9.23404 13.8069 9.26334 13.8027C9.29026 13.7984 9.31275 13.8132 9.29692 13.8346C9.29026 13.8495 9.24085 13.8494 9.24085 13.8494ZM9.39575 13.192C9.39575 13.192 9.36202 13.2601 9.32399 13.2601C9.28582 13.2559 9.28582 13.2452 9.28582 13.2345C9.28582 13.2197 9.32399 13.1813 9.31941 13.1707C9.30831 13.1707 9.28124 13.1707 9.28582 13.1451C9.28582 13.1238 9.32399 13.0983 9.35758 13.103C9.38295 13.0832 9.41455 13.072 9.44738 13.0712C9.48555 13.0712 9.51913 13.0817 9.51913 13.103C9.51913 13.1244 9.47475 13.1711 9.45848 13.1819C9.44057 13.1989 9.41809 13.2096 9.39575 13.192ZM8.88401 14.4503C8.88401 14.4503 8.83962 14.4547 8.83962 14.4759C8.83962 14.4865 8.85072 14.4865 8.86655 14.4802C8.87567 14.4797 8.8847 14.4783 8.89347 14.4759C8.89791 14.4802 8.89791 14.5014 8.93164 14.5014C8.95934 14.4979 8.98604 14.4892 9.0102 14.4759C9.03713 14.4653 9.05962 14.4545 9.05962 14.4338C9.04837 14.3975 9.02588 14.3804 8.9923 14.3804C8.97509 14.3794 8.95793 14.3831 8.94289 14.3911C8.94289 14.3911 8.93164 14.3698 8.89347 14.3911C8.8553 14.4124 8.85974 14.4124 8.87099 14.4231C8.89111 14.4401 8.88401 14.4503 8.88401 14.4503ZM8.63043 14.6718C8.63043 14.6611 8.6865 14.6398 8.70218 14.6463C8.71786 14.6505 8.76269 14.7313 8.76269 14.7399C8.76269 14.7505 8.70662 14.7761 8.68413 14.7761C8.66164 14.7761 8.62362 14.7399 8.62362 14.734C8.62362 14.7298 8.65055 14.7235 8.65055 14.7191C8.65721 14.7086 8.63043 14.6825 8.63043 14.6718ZM8.45289 14.3609C8.46414 14.3567 8.46414 14.346 8.47982 14.3354C8.48473 14.3323 8.49032 14.3303 8.49617 14.3295C8.50202 14.3288 8.50796 14.3294 8.51355 14.3312C8.51751 14.3245 8.52299 14.3187 8.52959 14.3142C8.53619 14.3098 8.54375 14.3068 8.55172 14.3055C8.57865 14.3013 8.60113 14.3055 8.5961 14.3161C8.5961 14.3481 8.61859 14.3693 8.61859 14.3949C8.61859 14.4204 8.60291 14.4524 8.54684 14.4738C8.49077 14.4886 8.41443 14.4886 8.40318 14.4844C8.39194 14.4802 8.3807 14.4375 8.39194 14.4162C8.40318 14.3949 8.43484 14.3716 8.45289 14.3609Z" fill="#82764F"/>
<path fill-rule="evenodd" clip-rule="evenodd" d="M8.5246 14.3499C8.5246 14.3499 8.5246 14.3959 8.5246 14.4189C8.5246 14.4412 8.5246 14.4645 8.5246 14.4877C8.5246 14.5014 8.5246 14.4786 8.5246 14.4647C8.5246 14.4556 8.5246 14.3738 8.5246 14.3499Z" fill="#6E6342"/>
<path fill-rule="evenodd" clip-rule="evenodd" d="M8.22909 14.2193C8.25857 14.2238 8.30894 14.2193 8.3474 14.2303C8.37707 14.2413 8.39777 14.2634 8.36809 14.2898C8.33842 14.3162 8.30953 14.3558 8.24373 14.3491C8.16974 14.3448 8.09868 14.3162 8.09868 14.2941C8.09744 14.2802 8.09994 14.2662 8.10604 14.253C8.11214 14.2397 8.12171 14.2276 8.13421 14.2171C8.16389 14.1996 8.17872 14.2106 8.22909 14.2193Z" fill="#585136"/>
<path fill-rule="evenodd" clip-rule="evenodd" d="M8.12514 14.3499C8.12514 14.3499 8.05426 14.4079 8.03643 14.4359C8.01422 14.4637 7.90563 14.6075 7.87246 14.6377C7.88348 14.6173 7.89604 14.5979 7.91002 14.5797C7.86617 14.609 7.83331 14.6533 7.81693 14.705C7.79033 14.791 7.96555 14.8374 8.08071 14.8723C8.19587 14.9071 8.24045 14.9182 8.24045 14.9182C8.19805 14.8514 8.16165 14.7808 8.13171 14.707C8.08787 14.5979 8.06522 14.5863 8.09401 14.5352C8.11622 14.4841 8.14954 14.4493 8.14954 14.4098C8.13624 14.3731 8.12514 14.3499 8.12514 14.3499Z" fill="#574F35"/>
<path fill-rule="evenodd" clip-rule="evenodd" d="M5.68336 14.4565C5.6994 14.4593 5.71585 14.4593 5.7319 14.4565C5.76489 14.4522 6.10888 14.3307 6.46828 14.3525C6.73732 14.3681 7.004 14.4103 7.26409 14.4783C7.71606 14.5928 8.27819 14.8197 8.64195 14.9492C8.73888 14.9851 8.83378 15.0489 8.90354 15.0742C9.18141 15.1782 9.19231 15.1782 9.35551 15.2058C9.54735 15.2312 9.74354 15.1697 9.9486 15.1273C10.1999 15.0742 10.6297 15.0488 11.0067 14.9958C11.1286 14.9795 11.2489 14.9533 11.3661 14.9173C11.3661 14.9173 11.0663 15.2058 10.3475 15.3096C10.057 15.3521 9.76173 15.3557 9.47018 15.3203C9.24085 15.299 9.08883 15.2671 8.97417 15.2354C8.8441 15.1993 8.57728 15.1038 8.24884 15.0257C8.01951 14.9684 7.76373 14.926 7.4706 14.873C6.74745 14.7456 5.96297 14.5985 5.68336 14.4565Z" fill="#252211"/>
<path fill-rule="evenodd" clip-rule="evenodd" d="M4.83241 13.0712C4.65228 13.2237 4.4612 13.3694 4.27461 13.5105L3.71216 13.9427C3.52092 14.0838 3.33419 14.2295 3.1428 14.3708C2.95142 14.512 2.76033 14.6462 2.55738 14.7761C2.73751 14.6236 2.9286 14.4823 3.11984 14.3435C3.31107 14.2046 3.50937 14.0685 3.69385 13.9277L4.2563 13.4949C4.44979 13.3538 4.63652 13.2078 4.83241 13.0712ZM3.83735 14.6652C3.83735 14.6652 4.03999 14.4966 4.29277 14.2599C4.60695 13.9663 4.99182 13.5904 5.11476 13.5222L3.83735 14.6652Z" fill="#CFB66C"/>
<path fill-rule="evenodd" clip-rule="evenodd" d="M3.83607 14.6336C3.94069 14.5344 4.05235 14.4376 4.16401 14.3428L4.33503 14.2031C4.38734 14.1585 4.44685 14.1084 4.499 14.0588C4.60346 13.9597 4.70573 13.8536 4.81019 13.7522C4.86196 13.7013 4.9167 13.6531 4.97416 13.608C5.00288 13.5838 5.03478 13.5634 5.06906 13.547C5.09772 13.5313 5.12858 13.5024 5.16882 13.4974C5.14518 13.5313 5.11667 13.547 5.09287 13.5763C5.06436 13.5989 5.04056 13.6259 5.01691 13.6484C4.9646 13.698 4.90525 13.743 4.85294 13.7882C4.74128 13.8784 4.62492 13.9665 4.51325 14.0609C4.40159 14.1552 4.29713 14.257 4.18531 14.3517C4.06425 14.4487 3.95259 14.5429 3.83607 14.6336ZM5.25684 13.7319C5.25684 13.7319 4.4824 14.4511 4.32313 14.5682L5.25684 13.7319Z" fill="#CFB66C"/>
<path fill-rule="evenodd" clip-rule="evenodd" d="M5.22036 13.7816C5.14888 13.8563 5.07223 13.9269 4.99089 13.993L4.74985 14.2C4.67191 14.2704 4.59864 14.341 4.51588 14.4114C4.43055 14.4775 4.35261 14.5421 4.2623 14.6031L4.49627 14.396C4.57437 14.3256 4.6597 14.2662 4.74262 14.1957L4.97659 13.9886C5.05694 13.916 5.13503 13.8454 5.22036 13.7816ZM5.25684 14.1626C5.18359 14.3473 5.09728 14.5275 4.99844 14.7023C4.79372 15.0724 4.48663 15.5348 4.35245 15.7706L5.25684 14.1626Z" fill="#CFB66C"/>
<path fill-rule="evenodd" clip-rule="evenodd" d="M5.25684 14.2078C5.25684 14.2871 5.23375 14.3557 5.20611 14.4243C5.17917 14.4929 5.14845 14.5601 5.11408 14.6258C5.07945 14.6901 5.04027 14.7588 5.00109 14.821C4.9619 14.8831 4.91589 14.9473 4.88126 15.0117L4.64859 15.3933C4.56795 15.5205 4.48958 15.6484 4.40438 15.7706C4.46194 15.6334 4.54031 15.5048 4.61411 15.3783C4.69476 15.2511 4.76842 15.1239 4.84192 14.9924C4.87781 14.9268 4.9101 14.8596 4.93867 14.791C4.97314 14.7223 5.00762 14.658 5.03541 14.5958C5.06988 14.5273 5.09752 14.4629 5.13215 14.4008C5.17118 14.3343 5.20384 14.27 5.25684 14.2078Z" fill="#CFB66C"/>
<path fill-rule="evenodd" clip-rule="evenodd" d="M6.02266 15.9127C6.02266 15.9127 5.8049 16.213 5.82668 16.5936C5.88605 16.3942 5.96096 16.0892 6.02266 15.9127ZM6.22968 16.2138C6.22968 16.2138 6.15259 17.03 6.08872 17.4313C6.17902 16.9674 6.19658 17.0064 6.22968 16.2138ZM7.67214 17.4795C7.67214 17.4795 7.34622 18.477 7.33954 18.7542C7.4101 18.4692 7.54656 17.8876 7.67214 17.4795Z" fill="#DEC270"/>
<path fill-rule="evenodd" clip-rule="evenodd" d="M8.38252 15.9127C8.38252 15.9127 8.95081 16.8325 9.37706 17.6176C9.26171 17.2225 8.99638 16.4979 8.38252 15.9127Z" fill="#CBAF59"/>
<path fill-rule="evenodd" clip-rule="evenodd" d="M9.94536 17.1914C10.2083 17.6977 10.4455 18.2195 10.6557 18.7542C10.6159 18.3847 10.508 17.7522 9.94536 17.1914Z" fill="#E3C677"/>
<path fill-rule="evenodd" clip-rule="evenodd" d="M14.1226 18.5176C14.2114 18.4616 14.3869 18.1568 14.5402 18.0808C14.6934 18.0023 14.8089 17.9867 14.9467 17.8321C15.0843 17.6707 15.1224 17.5722 15.4241 17.4446C15.8462 17.2607 15.5559 17.0233 15.5559 17.0233C15.6024 16.9772 15.6521 16.9346 15.7047 16.8957C15.8136 16.8129 15.9401 16.712 15.9291 16.535C15.9136 16.2371 15.8581 15.8047 15.6159 15.5538C15.8514 15.5045 16.3022 15.471 16.5823 15.3994C16.9065 15.3164 17.0554 15.1999 17.0554 15.1999C17.0554 15.1999 16.8688 14.8796 17.1709 14.5571C17.4729 14.2346 17.7195 14.0419 17.9016 13.6811C17.6929 13.6542 17.3745 13.5423 16.5622 13.8536C16.6061 13.8744 16.6484 13.8983 16.6889 13.9252C16.6889 13.9252 16.1892 14.0642 16.007 14.2188C15.6893 14.4897 15.6493 14.7115 15.3051 14.8774C14.9609 15.0432 14.6143 14.9983 14.3279 15.1327C14.0415 15.2671 13.9992 15.3814 13.8947 15.4307C13.9169 15.4576 13.8903 15.5023 13.9324 15.5404C13.9058 15.5785 13.7503 15.8338 13.5926 15.8338C13.6081 15.8944 13.7414 15.9391 13.7414 15.9391C13.7414 15.9391 13.6437 16.0109 13.3949 16.0287C13.5214 16.1616 13.6415 16.3065 13.9724 16.5171C13.9457 16.5731 13.8346 16.656 13.8791 16.7613C13.928 16.8666 14.0548 17.01 14.561 17.1265C14.3033 17.1376 14.0014 17.1981 13.5946 17.1422C13.1882 17.0928 13.1216 17.0638 12.8706 17.1265C12.8973 17.1534 12.9683 17.1534 13.0305 17.225C12.9639 17.2294 12.5463 17.1757 12.4041 17.364C12.2554 17.5587 12.1909 17.8792 12.2021 18.0942C12.1243 18.1323 12.0488 18.1995 12.0865 18.3384C12.1243 18.4774 12.322 18.5221 12.4486 18.6094C12.5751 18.7035 12.5863 18.737 12.7063 18.7147C12.8328 18.6878 13.0194 18.5602 13.1283 18.5602C13.2372 18.5602 13.3148 18.6431 13.3148 18.6431C13.3148 18.6431 13.6103 18.4997 13.6392 18.5266C13.6658 18.5534 13.6435 18.7259 13.6724 18.7528C13.7017 18.773 14.0337 18.5737 14.1226 18.5176Z" fill="#ECD592"/>
<path fill-rule="evenodd" clip-rule="evenodd" d="M20.5163 9.65799C19.134 6.06474 15.7168 5.39904 15.7168 5.39904H5.96737L6.00498 9.05907H7.94658V17.2319H5.96722V20.8854H15.4469C17.7316 20.8854 19.5629 18.5744 19.5629 18.5744C22.4957 14.3845 20.5163 9.65799 20.5163 9.65799ZM15.4978 16.112C15.4978 16.112 14.7542 17.1919 13.9452 17.1919H12.3268L12.2885 9.06802H14.3654C14.3654 9.06802 15.3276 9.27055 15.9999 11.1874C15.9999 11.1874 16.8912 13.9318 15.4978 16.112Z" fill="white" fill-opacity="0.8"/>
</svg>
