<svg width="26" height="26" viewBox="0 0 26 26" fill="none" xmlns="http://www.w3.org/2000/svg">
<rect width="26" height="26" rx="5" fill="#FF2525"/>
<rect x="4" y="3" width="18" height="20" rx="6" fill="white"/>
<path d="M14.3857 14.1976V14.2018C17.5521 14.0597 19.9159 13.5079 19.9159 12.8474C19.9159 12.187 17.5541 11.6352 14.3857 11.4931V13.65C14.2938 13.6584 13.8004 13.7002 12.814 13.7002C11.9926 13.7002 11.3969 13.6646 11.19 13.65V11.491C8.01734 11.631 5.64728 12.1849 5.64728 12.8453C5.64728 13.5079 8.0153 14.0597 11.19 14.1997V14.1976C11.3949 14.208 11.9738 14.231 12.7993 14.231C13.8319 14.231 14.2958 14.2039 14.3857 14.1976Z" fill="#FF2525"/>
<path fill-rule="evenodd" clip-rule="evenodd" d="M26 13C26 20.1797 20.1797 26 13.0001 26C5.82025 26 0 20.1797 0 13C0 5.8203 5.82025 0 13.0001 0C20.1797 0 26 5.8203 26 13ZM14.3857 9.33827V11.2695L14.3878 11.2716C17.9743 11.4367 20.6704 12.1494 20.6704 13C20.6704 13.8527 17.9743 14.5634 14.3878 14.7285V20.9191H11.1921V14.7285C7.60148 14.5613 4.89903 13.8506 4.89903 12.9979C4.89903 12.1452 7.59933 11.4346 11.1921 11.2695V9.33827H6.77169V6.39341H18.8061V9.33827H14.3857Z" fill="#FF2525"/>
</svg>
