<svg width="26" height="26" viewBox="0 0 26 26" fill="none" xmlns="http://www.w3.org/2000/svg">
<rect x="1" y="1" width="24" height="24" rx="4" fill="url(#paint0_linear_2_360)" stroke="black" stroke-width="2"/>
<path d="M12.1574 16.7904H17.8781V19.6123H14.5027V22H11.5673V19.6863H8.04689C8.04689 18.744 7.90188 17.8067 8.12188 16.9384C8.19686 16.5042 8.70697 16.0701 9.07694 15.636C10.1771 14.3336 11.2773 13.0312 12.4524 11.7288C12.8924 11.2206 13.3325 10.7865 13.8476 10.2093H8.34694V7.38737H11.5723V5H14.4327V7.31308H17.9531C17.9531 8.2553 18.0981 9.19272 17.8781 10.061C17.8031 10.4951 17.293 10.9292 16.923 11.3634C15.8229 12.6658 14.7227 13.9682 13.5476 15.2706C13.1074 15.7791 12.6675 16.2822 12.1574 16.7904Z" fill="black"/>
<defs>
<linearGradient id="paint0_linear_2_360" x1="4.07401" y1="21.9145" x2="22.0202" y2="3.96832" gradientUnits="userSpaceOnUse">
<stop stop-color="#CF8724"/>
<stop offset="1" stop-color="#FDCE58"/>
</linearGradient>
</defs>
</svg>
