<svg width="30" height="30" viewBox="0 0 30 30" fill="none" xmlns="http://www.w3.org/2000/svg">
<rect width="30" height="30" rx="5" fill="#FF2525"/>
<rect x="4.61572" y="3.46161" width="20.7692" height="23.0769" rx="6" fill="white"/>
<path d="M16.5989 16.3818V16.3867C20.2524 16.2227 22.9799 15.586 22.9799 14.824C22.9799 14.0619 20.2548 13.4253 16.5989 13.2613V15.75C16.4928 15.7597 15.9236 15.8079 14.7854 15.8079C13.8376 15.8079 13.1503 15.7669 12.9116 15.75V13.2589C9.25078 13.4204 6.51609 14.0595 6.51609 14.8215C6.51609 15.586 9.24842 16.2227 12.9116 16.3842V16.3818C13.1479 16.3939 13.8159 16.4204 14.7684 16.4204C15.9599 16.4204 16.4952 16.3891 16.5989 16.3818Z" fill="#FF2525"/>
<path fill-rule="evenodd" clip-rule="evenodd" d="M30 15C30 23.2843 23.2843 30 15.0001 30C6.71568 30 0 23.2843 0 15C0 6.71573 6.71568 0 15.0001 0C23.2843 0 30 6.71573 30 15ZM16.5989 10.7749V13.0032L16.6013 13.0056C20.7396 13.1961 23.8505 14.0185 23.8505 15C23.8505 15.9839 20.7396 16.8039 16.6013 16.9944V24.1375H12.9139V16.9944C8.77094 16.8015 5.65272 15.9815 5.65272 14.9976C5.65272 14.0137 8.76846 13.1937 12.9139 13.0032V10.7749H7.81349V7.37702H21.6994V10.7749H16.5989Z" fill="#FF2525"/>
</svg>
