<svg width="24" height="15" viewBox="0 0 24 15" fill="none" xmlns="http://www.w3.org/2000/svg">
<rect width="23.6842" height="15" rx="3" fill="#FED130"/>
<mask id="mask0_2_380" style="mask-type:alpha" maskUnits="userSpaceOnUse" x="0" y="0" width="24" height="15">
<rect width="23.6842" height="15" fill="#404040"/>
</mask>
<g mask="url(#mask0_2_380)">
<g style="mix-blend-mode:plus-lighter" filter="url(#filter0_f_2_380)">
<ellipse cx="10.8091" cy="3.40707" rx="10.8091" ry="3.40707" transform="matrix(0.986302 -0.164948 0.133711 0.99102 5.94083 18.0889)" fill="white"/>
</g>
<g filter="url(#filter1_f_2_380)">
<ellipse cx="7.47097" cy="2.71439" rx="7.47097" ry="2.71439" transform="matrix(0.992701 -0.120604 0.0975477 0.995231 -6.65708 -4.1842)" fill="#FFE68D"/>
</g>
</g>
<path fill-rule="evenodd" clip-rule="evenodd" d="M12.671 1.91584C12.6417 1.57923 12.3748 1.31244 12.0382 1.2831C11.7986 1.26218 11.5414 1.25085 11.2737 1.25085C11.0059 1.25085 10.7487 1.26219 10.5091 1.2831C10.1725 1.31244 9.90574 1.57924 9.87635 1.91584C9.85548 2.15542 9.84415 2.41267 9.84415 2.68041C9.84415 2.94815 9.85548 3.20539 9.87635 3.44497C9.90574 3.78158 10.1725 4.04837 10.5091 4.07771C10.7487 4.09863 11.0059 4.10996 11.2737 4.10996C11.5414 4.10996 11.7986 4.09863 12.0382 4.07771C12.3748 4.04837 12.6416 3.78157 12.671 3.44497C12.6919 3.20539 12.7033 2.94814 12.7033 2.68041C12.7033 2.41268 12.6919 2.15542 12.671 1.91584ZM10.6471 2.91601H10.4082L10.6864 2.02736C10.7233 1.9094 10.8326 1.82911 10.9562 1.82911H11.9868L11.9147 2.05918C11.9002 2.10551 11.8573 2.13702 11.8088 2.13702H11.0937C11.0233 2.13702 10.9611 2.18271 10.9401 2.24983L10.7568 2.83533C10.7418 2.88334 10.6974 2.91601 10.6471 2.91601V2.91601ZM11.9646 2.93038C11.91 3.10504 11.7482 3.22392 11.5651 3.22392H11.2331C11.2166 3.22392 11.2021 3.23462 11.1971 3.25033L11.1364 3.44442C11.1201 3.49635 11.072 3.53171 11.0175 3.53171H10.7864L10.9454 3.02397C10.9655 2.95974 11.025 2.91602 11.0923 2.91602H11.5601C11.6115 2.91602 11.657 2.8826 11.6724 2.8335L11.6987 2.74934C11.7094 2.71529 11.6839 2.68069 11.6483 2.68069H11.0528L11.1259 2.44726C11.1397 2.40296 11.1808 2.37282 11.2272 2.37282L12.1392 2.37281L11.9646 2.93037V2.93038Z" fill="#282822"/>
<path d="M14.4556 2.31586H13.5801L13.5801 2.52621H14.2803L14.2803 2.80598H13.5801L13.5801 3.13059C13.5801 3.26114 13.4738 3.36762 13.3435 3.36762H13.2294L13.2294 2.2016C13.2294 2.07105 13.3357 1.96457 13.466 1.96457H14.4556V2.31586ZM15.7163 3.36762H14.9553C14.8447 3.36762 14.7498 3.32555 14.6715 3.24141C14.592 3.15551 14.5525 3.05735 14.5525 2.94622C14.5525 2.83683 14.592 2.73937 14.6715 2.65348C14.7498 2.56863 14.8447 2.52621 14.9553 2.52621H15.6023L15.6023 2.42034C15.6023 2.39229 15.5918 2.3681 15.5704 2.34776C15.5501 2.32638 15.5256 2.31586 15.4977 2.31586H14.6396L14.6396 1.96457H15.5151C15.6348 1.96457 15.7377 2.0077 15.8234 2.09394C15.9099 2.17983 15.9529 2.28256 15.9529 2.40246L15.9529 3.13059C15.9529 3.26114 15.8466 3.36762 15.7163 3.36762ZM15.6023 3.01633L15.6023 2.80598H15.0077C14.9797 2.80598 14.9549 2.8165 14.9339 2.83788C14.9126 2.85822 14.9021 2.88241 14.9021 2.91045C14.9021 2.9385 14.9126 2.96339 14.9339 2.98443C14.9549 3.00581 14.9797 3.01633 15.0077 3.01633H15.6023ZM17.4492 2.94622C17.4492 3.05735 17.4097 3.15551 17.3302 3.24141C17.2511 3.32555 17.1567 3.36762 17.0475 3.36762H16.1369V3.25336C16.1369 3.12281 16.2432 3.01633 16.3735 3.01633H16.995C17.023 3.01633 17.0475 3.00581 17.0678 2.98443C17.0891 2.96339 17.0996 2.9385 17.0996 2.91045C17.0996 2.88241 17.0891 2.85822 17.0678 2.83788C17.0475 2.8165 17.023 2.80598 16.995 2.80598H16.4526C16.342 2.80598 16.2472 2.76356 16.1688 2.67872C16.0893 2.59282 16.0498 2.49501 16.0498 2.38458C16.0498 2.27519 16.0893 2.17773 16.1688 2.09184C16.2472 2.00699 16.342 1.96457 16.4526 1.96457H17.3621L17.3621 2.07883C17.3621 2.20938 17.2558 2.31586 17.1255 2.31586H16.5051C16.4771 2.31586 16.4522 2.32638 16.4312 2.34776C16.4099 2.3681 16.3994 2.39229 16.3994 2.42033C16.3994 2.44838 16.4099 2.47327 16.4312 2.49431C16.4522 2.51569 16.4771 2.52621 16.5051 2.52621H17.0475C17.1574 2.52621 17.2518 2.56863 17.3302 2.65347C17.4097 2.73937 17.4492 2.83683 17.4492 2.94622ZM18.7723 2.31586H18.3345L18.3345 3.13059C18.3345 3.26114 18.2282 3.36762 18.0979 3.36762H17.9839L17.9839 2.31586H17.5461L17.5461 1.96457H18.7723L18.7723 2.31586Z" fill="#282822"/>
<path d="M20.3069 2.97081C20.3069 3.07843 20.267 3.17169 20.1868 3.25057C20.1077 3.32875 20.0135 3.36767 19.905 3.36767H18.9068L18.9068 1.96462H19.905C20.0135 1.96462 20.1077 2.00354 20.1868 2.08172C20.267 2.1599 20.3069 2.2528 20.3069 2.36043C20.3069 2.49962 20.247 2.60129 20.1273 2.66544C20.247 2.72995 20.3069 2.83197 20.3069 2.9708L20.3069 2.97081ZM19.9582 2.42039C19.9582 2.39234 19.9477 2.36815 19.9263 2.34781C19.906 2.32643 19.8815 2.31591 19.8535 2.31591H19.2576L19.2576 2.52626H19.8535C19.8815 2.52626 19.906 2.51575 19.9263 2.49436C19.9477 2.47332 19.9582 2.44843 19.9582 2.42039ZM19.9582 2.9105C19.9582 2.88246 19.9477 2.85827 19.9263 2.83793C19.906 2.81655 19.8815 2.80603 19.8535 2.80603H19.2576L19.2576 3.01638H19.8535C19.8815 3.01638 19.906 3.00586 19.9263 2.98448C19.9477 2.96344 19.9582 2.93855 19.9582 2.9105H19.9582ZM20.5883 3.36767H20.4742L20.4742 1.96462H20.825L20.825 3.13064C20.825 3.26119 20.7187 3.36767 20.5883 3.36767ZM22.2187 2.31591H21.7807L21.7807 3.13064C21.7807 3.26119 21.6744 3.36767 21.544 3.36767H21.4299L21.4299 2.31591H20.9919L20.9919 1.96462H22.2187L22.2187 2.31591Z" fill="white"/>
<path fill-rule="evenodd" clip-rule="evenodd" d="M11.12 2.45147L11.0465 2.68642L11.6461 2.68641C11.682 2.68641 11.7076 2.72125 11.6969 2.75551L11.6703 2.84022C11.6549 2.88964 11.6091 2.92328 11.5573 2.92328H11.0862C11.0184 2.92328 10.9585 2.96729 10.9382 3.03194L10.7782 3.54301L11.0109 3.54301C11.0658 3.54301 11.1142 3.50742 11.1306 3.45515L11.1918 3.25979C11.1968 3.24398 11.2114 3.23321 11.228 3.23321H11.5624C11.7467 3.23321 11.9096 3.11355 11.9647 2.93775L12.1404 2.37653H11.2221C11.1753 2.37653 11.134 2.40688 11.12 2.45146L11.12 2.45147Z" fill="white"/>
<path fill-rule="evenodd" clip-rule="evenodd" d="M11.9855 1.82999L11.913 2.06102C11.8984 2.10754 11.8553 2.1392 11.8064 2.1392H11.0871C11.0163 2.1392 10.9538 2.18508 10.9326 2.25248L10.7577 2.83391C10.7426 2.8821 10.6979 2.9149 10.6473 2.9149H10.407L10.6774 2.02906C10.7145 1.91062 10.8244 1.83 10.9488 1.83L11.9855 1.82999Z" fill="white"/>
<path d="M1.97798 11.8642C1.89546 11.9143 1.83666 11.9644 1.80156 12.0146C1.76707 12.0647 1.74983 12.124 1.74983 12.1924C1.74983 12.2704 1.76984 12.332 1.80987 12.3774C1.85051 12.4219 1.90655 12.4442 1.97798 12.4442C2.05003 12.4442 2.10606 12.4219 2.14609 12.3774C2.18673 12.332 2.20705 12.2704 2.20705 12.1924C2.20705 12.1248 2.1895 12.0659 2.1544 12.0158C2.11992 11.9648 2.06111 11.9143 1.97798 11.8642ZM1.97798 11.6494C2.03586 11.6183 2.0802 11.5825 2.11099 11.5419C2.14239 11.5006 2.1581 11.4572 2.1581 11.4119C2.1581 11.3578 2.14239 11.3156 2.11099 11.2854C2.07958 11.2543 2.03525 11.2388 1.97798 11.2388C1.92317 11.2388 1.87945 11.2543 1.84682 11.2854C1.8148 11.3156 1.79879 11.3562 1.79879 11.4071C1.79879 11.4564 1.81418 11.5018 1.84497 11.5431C1.87576 11.5837 1.9201 11.6191 1.97798 11.6494ZM2.12946 11.7544C2.21937 11.8172 2.2831 11.8841 2.32067 11.9549C2.35884 12.0257 2.37793 12.112 2.37793 12.2139C2.37793 12.3467 2.34314 12.4498 2.27356 12.523C2.20397 12.5954 2.10545 12.6316 1.97798 12.6316C1.85113 12.6316 1.75291 12.5938 1.68332 12.5182C1.61374 12.4426 1.57895 12.3364 1.57895 12.1995C1.57895 12.1041 1.59835 12.0217 1.63714 11.9525C1.67594 11.8825 1.73936 11.8164 1.82742 11.7544C1.76338 11.7019 1.71535 11.6462 1.68332 11.5873C1.65192 11.5284 1.63622 11.466 1.63622 11.3999C1.63622 11.2949 1.66701 11.2114 1.72859 11.1493C1.79016 11.0864 1.8733 11.055 1.97798 11.055C2.08266 11.055 2.16579 11.0857 2.22737 11.1469C2.28957 11.2082 2.32067 11.2893 2.32067 11.3904C2.32067 11.4612 2.30496 11.5264 2.27356 11.5861C2.24215 11.6458 2.19412 11.7019 2.12946 11.7544Z" fill="#282822"/>
<path d="M3.1178 12.4442C3.16953 12.4442 3.20801 12.4402 3.23326 12.4323C3.25851 12.4235 3.27698 12.4096 3.28868 12.3905C3.30839 12.3587 3.32286 12.2978 3.3321 12.2079C3.34195 12.1172 3.34687 11.9963 3.34687 11.8451C3.34687 11.7011 3.34256 11.5845 3.33394 11.4954C3.32594 11.4063 3.31331 11.3411 3.29607 11.2997C3.28622 11.275 3.26836 11.2575 3.2425 11.2472C3.21664 11.2368 3.17507 11.2317 3.1178 11.2317C3.06115 11.2317 3.01989 11.2368 2.99403 11.2472C2.96817 11.2575 2.95031 11.275 2.94046 11.2997C2.92321 11.3426 2.91028 11.4087 2.90166 11.4978C2.89366 11.5861 2.88965 11.7019 2.88965 11.8451C2.88965 11.9692 2.89304 12.0742 2.89981 12.1602C2.90659 12.2461 2.91706 12.3097 2.93122 12.3511C2.9423 12.3869 2.95954 12.4116 2.98294 12.4251C3.00696 12.4378 3.05191 12.4442 3.1178 12.4442ZM3.51776 11.8451C3.51776 12.0162 3.50883 12.157 3.49097 12.2676C3.47311 12.3782 3.44602 12.4637 3.40969 12.5242C3.38752 12.5608 3.35272 12.5878 3.30531 12.6053C3.25789 12.6228 3.19539 12.6316 3.1178 12.6316C3.0396 12.6316 2.97709 12.6228 2.93029 12.6053C2.88411 12.587 2.84901 12.5584 2.82499 12.5194C2.7899 12.4621 2.76342 12.3766 2.74556 12.2628C2.7277 12.149 2.71877 12.0098 2.71877 11.8451C2.71877 11.6796 2.7277 11.5396 2.74556 11.425C2.76403 11.3096 2.79051 11.2233 2.82499 11.166C2.84901 11.127 2.88411 11.0984 2.93029 11.0801C2.97709 11.0618 3.0396 11.0526 3.1178 11.0526C3.18615 11.0526 3.24342 11.0602 3.28961 11.0753C3.33579 11.0896 3.37058 11.1115 3.39398 11.1409C3.43462 11.1903 3.46541 11.2746 3.48635 11.394C3.50729 11.5133 3.51776 11.6637 3.51776 11.8451Z" fill="#282822"/>
<path d="M4.25762 12.4442C4.30935 12.4442 4.34784 12.4402 4.37308 12.4323C4.39833 12.4235 4.41681 12.4096 4.42851 12.3905C4.44821 12.3587 4.46268 12.2978 4.47192 12.2079C4.48177 12.1172 4.4867 11.9963 4.4867 11.8451C4.4867 11.7011 4.48239 11.5845 4.47377 11.4954C4.46576 11.4063 4.45314 11.3411 4.43589 11.2997C4.42604 11.275 4.40818 11.2575 4.38232 11.2472C4.35646 11.2368 4.31489 11.2317 4.25762 11.2317C4.20097 11.2317 4.15971 11.2368 4.13385 11.2472C4.10799 11.2575 4.09013 11.275 4.08028 11.2997C4.06304 11.3426 4.0501 11.4087 4.04148 11.4978C4.03348 11.5861 4.02948 11.7019 4.02948 11.8451C4.02948 11.9692 4.03286 12.0742 4.03964 12.1602C4.04641 12.2461 4.05688 12.3097 4.07104 12.3511C4.08212 12.3869 4.09937 12.4116 4.12277 12.4251C4.14678 12.4378 4.19174 12.4442 4.25762 12.4442ZM4.65758 11.8451C4.65758 12.0162 4.64865 12.157 4.63079 12.2676C4.61293 12.3782 4.58584 12.4637 4.54951 12.5242C4.52734 12.5608 4.49255 12.5878 4.44513 12.6053C4.39772 12.6228 4.33521 12.6316 4.25762 12.6316C4.17942 12.6316 4.11692 12.6228 4.07012 12.6053C4.02393 12.587 3.98883 12.5584 3.96482 12.5194C3.92972 12.4621 3.90324 12.3766 3.88538 12.2628C3.86752 12.149 3.85859 12.0098 3.85859 11.8451C3.85859 11.6796 3.86752 11.5396 3.88538 11.425C3.90385 11.3096 3.93033 11.2233 3.96482 11.166C3.98883 11.127 4.02393 11.0984 4.07012 11.0801C4.11692 11.0618 4.17942 11.0526 4.25762 11.0526C4.32598 11.0526 4.38324 11.0602 4.42943 11.0753C4.47561 11.0896 4.51041 11.1115 4.53381 11.1409C4.57445 11.1903 4.60524 11.2746 4.62617 11.394C4.64711 11.5133 4.65758 11.6637 4.65758 11.8451Z" fill="#282822"/>
<path d="M5.39745 12.4442C5.44917 12.4442 5.48766 12.4402 5.51291 12.4323C5.53815 12.4235 5.55663 12.4096 5.56833 12.3905C5.58803 12.3587 5.6025 12.2978 5.61174 12.2079C5.62159 12.1172 5.62652 11.9963 5.62652 11.8451C5.62652 11.7011 5.62221 11.5845 5.61359 11.4954C5.60558 11.4063 5.59296 11.3411 5.57572 11.2997C5.56586 11.275 5.54801 11.2575 5.52214 11.2472C5.49628 11.2368 5.45472 11.2317 5.39745 11.2317C5.34079 11.2317 5.29954 11.2368 5.27367 11.2472C5.24781 11.2575 5.22995 11.275 5.2201 11.2997C5.20286 11.3426 5.18993 11.4087 5.18131 11.4978C5.1733 11.5861 5.1693 11.7019 5.1693 11.8451C5.1693 11.9692 5.17268 12.0742 5.17946 12.1602C5.18623 12.2461 5.1967 12.3097 5.21086 12.3511C5.22195 12.3869 5.23919 12.4116 5.26259 12.4251C5.28661 12.4378 5.33156 12.4442 5.39745 12.4442ZM5.7974 11.8451C5.7974 12.0162 5.78847 12.157 5.77061 12.2676C5.75276 12.3782 5.72566 12.4637 5.68933 12.5242C5.66716 12.5608 5.63237 12.5878 5.58495 12.6053C5.53754 12.6228 5.47504 12.6316 5.39745 12.6316C5.31924 12.6316 5.25674 12.6228 5.20994 12.6053C5.16376 12.587 5.12866 12.5584 5.10464 12.5194C5.06954 12.4621 5.04306 12.3766 5.0252 12.2628C5.00735 12.149 4.99842 12.0098 4.99842 11.8451C4.99842 11.6796 5.00735 11.5396 5.0252 11.425C5.04368 11.3096 5.07016 11.2233 5.10464 11.166C5.12866 11.127 5.16376 11.0984 5.20994 11.0801C5.25674 11.0618 5.31924 11.0526 5.39745 11.0526C5.4658 11.0526 5.52307 11.0602 5.56925 11.0753C5.61544 11.0896 5.65023 11.1115 5.67363 11.1409C5.71427 11.1903 5.74506 11.2746 5.766 11.394C5.78693 11.5133 5.7974 11.6637 5.7974 11.8451Z" fill="#282822"/>
<path d="M7.67709 12.4442C7.72882 12.4442 7.7673 12.4402 7.79255 12.4323C7.8178 12.4235 7.83627 12.4096 7.84797 12.3905C7.86768 12.3587 7.88215 12.2978 7.89139 12.2079C7.90124 12.1172 7.90617 11.9963 7.90617 11.8451C7.90617 11.7011 7.90185 11.5845 7.89323 11.4954C7.88523 11.4063 7.8726 11.3411 7.85536 11.2997C7.84551 11.275 7.82765 11.2575 7.80179 11.2472C7.77593 11.2368 7.73436 11.2317 7.67709 11.2317C7.62044 11.2317 7.57918 11.2368 7.55332 11.2472C7.52746 11.2575 7.5096 11.275 7.49975 11.2997C7.4825 11.3426 7.46957 11.4087 7.46095 11.4978C7.45295 11.5861 7.44894 11.7019 7.44894 11.8451C7.44894 11.9692 7.45233 12.0742 7.4591 12.1602C7.46588 12.2461 7.47635 12.3097 7.49051 12.3511C7.50159 12.3869 7.51884 12.4116 7.54223 12.4251C7.56625 12.4378 7.6112 12.4442 7.67709 12.4442ZM8.07705 11.8451C8.07705 12.0162 8.06812 12.157 8.05026 12.2676C8.0324 12.3782 8.00531 12.4637 7.96898 12.5242C7.94681 12.5608 7.91201 12.5878 7.8646 12.6053C7.81718 12.6228 7.75468 12.6316 7.67709 12.6316C7.59889 12.6316 7.53638 12.6228 7.48958 12.6053C7.4434 12.587 7.4083 12.5584 7.38429 12.5194C7.34919 12.4621 7.32271 12.3766 7.30485 12.2628C7.28699 12.149 7.27806 12.0098 7.27806 11.8451C7.27806 11.6796 7.28699 11.5396 7.30485 11.425C7.32332 11.3096 7.3498 11.2233 7.38429 11.166C7.4083 11.127 7.4434 11.0984 7.48958 11.0801C7.53638 11.0618 7.59889 11.0526 7.67709 11.0526C7.74544 11.0526 7.80271 11.0602 7.8489 11.0753C7.89508 11.0896 7.92987 11.1115 7.95327 11.1409C7.99392 11.1903 8.0247 11.2746 8.04564 11.394C8.06658 11.5133 8.07705 11.6637 8.07705 11.8451Z" fill="#282822"/>
<path d="M8.81692 12.4442C8.86864 12.4442 8.90713 12.4402 8.93237 12.4323C8.95762 12.4235 8.9761 12.4096 8.9878 12.3905C9.0075 12.3587 9.02197 12.2978 9.03121 12.2079C9.04106 12.1172 9.04599 11.9963 9.04599 11.8451C9.04599 11.7011 9.04168 11.5845 9.03306 11.4954C9.02505 11.4063 9.01243 11.3411 8.99519 11.2997C8.98533 11.275 8.96747 11.2575 8.94161 11.2472C8.91575 11.2368 8.87418 11.2317 8.81692 11.2317C8.76026 11.2317 8.719 11.2368 8.69314 11.2472C8.66728 11.2575 8.64942 11.275 8.63957 11.2997C8.62233 11.3426 8.60939 11.4087 8.60077 11.4978C8.59277 11.5861 8.58877 11.7019 8.58877 11.8451C8.58877 11.9692 8.59215 12.0742 8.59893 12.1602C8.6057 12.2461 8.61617 12.3097 8.63033 12.3511C8.64142 12.3869 8.65866 12.4116 8.68206 12.4251C8.70607 12.4378 8.75103 12.4442 8.81692 12.4442ZM9.21687 11.8451C9.21687 12.0162 9.20794 12.157 9.19008 12.2676C9.17222 12.3782 9.14513 12.4637 9.1088 12.5242C9.08663 12.5608 9.05184 12.5878 9.00442 12.6053C8.95701 12.6228 8.8945 12.6316 8.81692 12.6316C8.73871 12.6316 8.67621 12.6228 8.62941 12.6053C8.58322 12.587 8.54812 12.5584 8.52411 12.5194C8.48901 12.4621 8.46253 12.3766 8.44467 12.2628C8.42681 12.149 8.41788 12.0098 8.41788 11.8451C8.41788 11.6796 8.42681 11.5396 8.44467 11.425C8.46314 11.3096 8.48962 11.2233 8.52411 11.166C8.54812 11.127 8.58322 11.0984 8.62941 11.0801C8.67621 11.0618 8.73871 11.0526 8.81692 11.0526C8.88527 11.0526 8.94254 11.0602 8.98872 11.0753C9.0349 11.0896 9.0697 11.1115 9.0931 11.1409C9.13374 11.1903 9.16453 11.2746 9.18546 11.394C9.2064 11.5133 9.21687 11.6637 9.21687 11.8451Z" fill="#282822"/>
<path d="M9.95674 12.4442C10.0085 12.4442 10.047 12.4402 10.0722 12.4323C10.0974 12.4235 10.1159 12.4096 10.1276 12.3905C10.1473 12.3587 10.1618 12.2978 10.171 12.2079C10.1809 12.1172 10.1858 11.9963 10.1858 11.8451C10.1858 11.7011 10.1815 11.5845 10.1729 11.4954C10.1649 11.4063 10.1523 11.3411 10.135 11.2997C10.1252 11.275 10.1073 11.2575 10.0814 11.2472C10.0556 11.2368 10.014 11.2317 9.95674 11.2317C9.90008 11.2317 9.85883 11.2368 9.83296 11.2472C9.8071 11.2575 9.78924 11.275 9.77939 11.2997C9.76215 11.3426 9.74922 11.4087 9.7406 11.4978C9.73259 11.5861 9.72859 11.7019 9.72859 11.8451C9.72859 11.9692 9.73197 12.0742 9.73875 12.1602C9.74552 12.2461 9.75599 12.3097 9.77015 12.3511C9.78124 12.3869 9.79848 12.4116 9.82188 12.4251C9.8459 12.4378 9.89085 12.4442 9.95674 12.4442ZM10.3567 11.8451C10.3567 12.0162 10.3478 12.157 10.3299 12.2676C10.312 12.3782 10.285 12.4637 10.2486 12.5242C10.2265 12.5608 10.1917 12.5878 10.1442 12.6053C10.0968 12.6228 10.0343 12.6316 9.95674 12.6316C9.87853 12.6316 9.81603 12.6228 9.76923 12.6053C9.72305 12.587 9.68795 12.5584 9.66393 12.5194C9.62883 12.4621 9.60235 12.3766 9.58449 12.2628C9.56664 12.149 9.55771 12.0098 9.55771 11.8451C9.55771 11.6796 9.56664 11.5396 9.58449 11.425C9.60297 11.3096 9.62945 11.2233 9.66393 11.166C9.68795 11.127 9.72305 11.0984 9.76923 11.0801C9.81603 11.0618 9.87853 11.0526 9.95674 11.0526C10.0251 11.0526 10.0824 11.0602 10.1285 11.0753C10.1747 11.0896 10.2095 11.1115 10.2329 11.1409C10.2736 11.1903 10.3043 11.2746 10.3253 11.394C10.3462 11.5133 10.3567 11.6637 10.3567 11.8451Z" fill="#282822"/>
<path d="M11.0966 12.4442C11.1483 12.4442 11.1868 12.4402 11.212 12.4323C11.2373 12.4235 11.2557 12.4096 11.2674 12.3905C11.2871 12.3587 11.3016 12.2978 11.3109 12.2079C11.3207 12.1172 11.3256 11.9963 11.3256 11.8451C11.3256 11.7011 11.3213 11.5845 11.3127 11.4954C11.3047 11.4063 11.2921 11.3411 11.2748 11.2997C11.265 11.275 11.2471 11.2575 11.2213 11.2472C11.1954 11.2368 11.1538 11.2317 11.0966 11.2317C11.0399 11.2317 10.9986 11.2368 10.9728 11.2472C10.9469 11.2575 10.9291 11.275 10.9192 11.2997C10.902 11.3426 10.889 11.4087 10.8804 11.4978C10.8724 11.5861 10.8684 11.7019 10.8684 11.8451C10.8684 11.9692 10.8718 12.0742 10.8786 12.1602C10.8853 12.2461 10.8958 12.3097 10.91 12.3511C10.9211 12.3869 10.9383 12.4116 10.9617 12.4251C10.9857 12.4378 11.0307 12.4442 11.0966 12.4442ZM11.4965 11.8451C11.4965 12.0162 11.4876 12.157 11.4697 12.2676C11.4519 12.3782 11.4248 12.4637 11.3884 12.5242C11.3663 12.5608 11.3315 12.5878 11.2841 12.6053C11.2367 12.6228 11.1741 12.6316 11.0966 12.6316C11.0184 12.6316 10.9559 12.6228 10.9091 12.6053C10.8629 12.587 10.8278 12.5584 10.8038 12.5194C10.7687 12.4621 10.7422 12.3766 10.7243 12.2628C10.7065 12.149 10.6975 12.0098 10.6975 11.8451C10.6975 11.6796 10.7065 11.5396 10.7243 11.425C10.7428 11.3096 10.7693 11.2233 10.8038 11.166C10.8278 11.127 10.8629 11.0984 10.9091 11.0801C10.9559 11.0618 11.0184 11.0526 11.0966 11.0526C11.1649 11.0526 11.2222 11.0602 11.2684 11.0753C11.3145 11.0896 11.3493 11.1115 11.3727 11.1409C11.4134 11.1903 11.4442 11.2746 11.4651 11.394C11.486 11.5133 11.4965 11.6637 11.4965 11.8451Z" fill="#282822"/>
<path d="M13.3762 12.4442C13.4279 12.4442 13.4664 12.4402 13.4917 12.4323C13.5169 12.4235 13.5354 12.4096 13.5471 12.3905C13.5668 12.3587 13.5813 12.2978 13.5905 12.2079C13.6004 12.1172 13.6053 11.9963 13.6053 11.8451C13.6053 11.7011 13.601 11.5845 13.5923 11.4954C13.5843 11.4063 13.5717 11.3411 13.5545 11.2997C13.5446 11.275 13.5268 11.2575 13.5009 11.2472C13.475 11.2368 13.4335 11.2317 13.3762 11.2317C13.3196 11.2317 13.2783 11.2368 13.2524 11.2472C13.2266 11.2575 13.2087 11.275 13.1989 11.2997C13.1816 11.3426 13.1687 11.4087 13.1601 11.4978C13.1521 11.5861 13.1481 11.7019 13.1481 11.8451C13.1481 11.9692 13.1514 12.0742 13.1582 12.1602C13.165 12.2461 13.1755 12.3097 13.1896 12.3511C13.2007 12.3869 13.2179 12.4116 13.2413 12.4251C13.2654 12.4378 13.3103 12.4442 13.3762 12.4442ZM13.7762 11.8451C13.7762 12.0162 13.7672 12.157 13.7494 12.2676C13.7315 12.3782 13.7044 12.4637 13.6681 12.5242C13.6459 12.5608 13.6111 12.5878 13.5637 12.6053C13.5163 12.6228 13.4538 12.6316 13.3762 12.6316C13.298 12.6316 13.2355 12.6228 13.1887 12.6053C13.1425 12.587 13.1074 12.5584 13.0834 12.5194C13.0483 12.4621 13.0218 12.3766 13.004 12.2628C12.9861 12.149 12.9772 12.0098 12.9772 11.8451C12.9772 11.6796 12.9861 11.5396 13.004 11.425C13.0224 11.3096 13.0489 11.2233 13.0834 11.166C13.1074 11.127 13.1425 11.0984 13.1887 11.0801C13.2355 11.0618 13.298 11.0526 13.3762 11.0526C13.4446 11.0526 13.5018 11.0602 13.548 11.0753C13.5942 11.0896 13.629 11.1115 13.6524 11.1409C13.693 11.1903 13.7238 11.2746 13.7448 11.394C13.7657 11.5133 13.7762 11.6637 13.7762 11.8451Z" fill="#282822"/>
<path d="M14.516 12.4442C14.5678 12.4442 14.6062 12.4402 14.6315 12.4323C14.6567 12.4235 14.6752 12.4096 14.6869 12.3905C14.7066 12.3587 14.7211 12.2978 14.7303 12.2079C14.7402 12.1172 14.7451 11.9963 14.7451 11.8451C14.7451 11.7011 14.7408 11.5845 14.7322 11.4954C14.7242 11.4063 14.7115 11.3411 14.6943 11.2997C14.6844 11.275 14.6666 11.2575 14.6407 11.2472C14.6149 11.2368 14.5733 11.2317 14.516 11.2317C14.4594 11.2317 14.4181 11.2368 14.3923 11.2472C14.3664 11.2575 14.3485 11.275 14.3387 11.2997C14.3214 11.3426 14.3085 11.4087 14.2999 11.4978C14.2919 11.5861 14.2879 11.7019 14.2879 11.8451C14.2879 11.9692 14.2913 12.0742 14.298 12.1602C14.3048 12.2461 14.3153 12.3097 14.3294 12.3511C14.3405 12.3869 14.3578 12.4116 14.3812 12.4251C14.4052 12.4378 14.4501 12.4442 14.516 12.4442ZM14.916 11.8451C14.916 12.0162 14.9071 12.157 14.8892 12.2676C14.8713 12.3782 14.8442 12.4637 14.8079 12.5242C14.7857 12.5608 14.751 12.5878 14.7035 12.6053C14.6561 12.6228 14.5936 12.6316 14.516 12.6316C14.4378 12.6316 14.3753 12.6228 14.3285 12.6053C14.2823 12.587 14.2472 12.5584 14.2232 12.5194C14.1881 12.4621 14.1616 12.3766 14.1438 12.2628C14.1259 12.149 14.117 12.0098 14.117 11.8451C14.117 11.6796 14.1259 11.5396 14.1438 11.425C14.1623 11.3096 14.1887 11.2233 14.2232 11.166C14.2472 11.127 14.2823 11.0984 14.3285 11.0801C14.3753 11.0618 14.4378 11.0526 14.516 11.0526C14.5844 11.0526 14.6416 11.0602 14.6878 11.0753C14.734 11.0896 14.7688 11.1115 14.7922 11.1409C14.8329 11.1903 14.8636 11.2746 14.8846 11.394C14.9055 11.5133 14.916 11.6637 14.916 11.8451Z" fill="#282822"/>
<path d="M15.6559 12.4442C15.7076 12.4442 15.7461 12.4402 15.7713 12.4323C15.7966 12.4235 15.815 12.4096 15.8267 12.3905C15.8464 12.3587 15.8609 12.2978 15.8701 12.2079C15.88 12.1172 15.8849 11.9963 15.8849 11.8451C15.8849 11.7011 15.8806 11.5845 15.872 11.4954C15.864 11.4063 15.8514 11.3411 15.8341 11.2997C15.8243 11.275 15.8064 11.2575 15.7805 11.2472C15.7547 11.2368 15.7131 11.2317 15.6559 11.2317C15.5992 11.2317 15.5579 11.2368 15.5321 11.2472C15.5062 11.2575 15.4884 11.275 15.4785 11.2997C15.4613 11.3426 15.4483 11.4087 15.4397 11.4978C15.4317 11.5861 15.4277 11.7019 15.4277 11.8451C15.4277 11.9692 15.4311 12.0742 15.4379 12.1602C15.4446 12.2461 15.4551 12.3097 15.4693 12.3511C15.4804 12.3869 15.4976 12.4116 15.521 12.4251C15.545 12.4378 15.59 12.4442 15.6559 12.4442ZM16.0558 11.8451C16.0558 12.0162 16.0469 12.157 16.029 12.2676C16.0112 12.3782 15.9841 12.4637 15.9477 12.5242C15.9256 12.5608 15.8908 12.5878 15.8434 12.6053C15.7959 12.6228 15.7334 12.6316 15.6559 12.6316C15.5776 12.6316 15.5151 12.6228 15.4683 12.6053C15.4222 12.587 15.3871 12.5584 15.363 12.5194C15.3279 12.4621 15.3015 12.3766 15.2836 12.2628C15.2657 12.149 15.2568 12.0098 15.2568 11.8451C15.2568 11.6796 15.2657 11.5396 15.2836 11.425C15.3021 11.3096 15.3286 11.2233 15.363 11.166C15.3871 11.127 15.4222 11.0984 15.4683 11.0801C15.5151 11.0618 15.5776 11.0526 15.6559 11.0526C15.7242 11.0526 15.7815 11.0602 15.8277 11.0753C15.8738 11.0896 15.9086 11.1115 15.932 11.1409C15.9727 11.1903 16.0035 11.2746 16.0244 11.394C16.0453 11.5133 16.0558 11.6637 16.0558 11.8451Z" fill="#282822"/>
<path d="M16.7957 12.4442C16.8474 12.4442 16.8859 12.4402 16.9111 12.4323C16.9364 12.4235 16.9549 12.4096 16.9666 12.3905C16.9863 12.3587 17.0007 12.2978 17.01 12.2079C17.0198 12.1172 17.0247 11.9963 17.0247 11.8451C17.0247 11.7011 17.0204 11.5845 17.0118 11.4954C17.0038 11.4063 16.9912 11.3411 16.9739 11.2997C16.9641 11.275 16.9462 11.2575 16.9204 11.2472C16.8945 11.2368 16.8529 11.2317 16.7957 11.2317C16.739 11.2317 16.6978 11.2368 16.6719 11.2472C16.646 11.2575 16.6282 11.275 16.6183 11.2997C16.6011 11.3426 16.5882 11.4087 16.5795 11.4978C16.5715 11.5861 16.5675 11.7019 16.5675 11.8451C16.5675 11.9692 16.5709 12.0742 16.5777 12.1602C16.5845 12.2461 16.5949 12.3097 16.6091 12.3511C16.6202 12.3869 16.6374 12.4116 16.6608 12.4251C16.6848 12.4378 16.7298 12.4442 16.7957 12.4442ZM17.1956 11.8451C17.1956 12.0162 17.1867 12.157 17.1688 12.2676C17.151 12.3782 17.1239 12.4637 17.0876 12.5242C17.0654 12.5608 17.0306 12.5878 16.9832 12.6053C16.9358 12.6228 16.8733 12.6316 16.7957 12.6316C16.7175 12.6316 16.655 12.6228 16.6082 12.6053C16.562 12.587 16.5269 12.5584 16.5029 12.5194C16.4678 12.4621 16.4413 12.3766 16.4234 12.2628C16.4056 12.149 16.3966 12.0098 16.3966 11.8451C16.3966 11.6796 16.4056 11.5396 16.4234 11.425C16.4419 11.3096 16.4684 11.2233 16.5029 11.166C16.5269 11.127 16.562 11.0984 16.6082 11.0801C16.655 11.0618 16.7175 11.0526 16.7957 11.0526C16.864 11.0526 16.9213 11.0602 16.9675 11.0753C17.0137 11.0896 17.0485 11.1115 17.0719 11.1409C17.1125 11.1903 17.1433 11.2746 17.1642 11.394C17.1852 11.5133 17.1956 11.6637 17.1956 11.8451Z" fill="#282822"/>
<path d="M19.0753 12.4442C19.127 12.4442 19.1655 12.4402 19.1908 12.4323C19.216 12.4235 19.2345 12.4096 19.2462 12.3905C19.2659 12.3587 19.2804 12.2978 19.2896 12.2079C19.2995 12.1172 19.3044 11.9963 19.3044 11.8451C19.3044 11.7011 19.3001 11.5845 19.2915 11.4954C19.2835 11.4063 19.2708 11.3411 19.2536 11.2997C19.2437 11.275 19.2259 11.2575 19.2 11.2472C19.1742 11.2368 19.1326 11.2317 19.0753 11.2317C19.0187 11.2317 18.9774 11.2368 18.9515 11.2472C18.9257 11.2575 18.9078 11.275 18.898 11.2997C18.8807 11.3426 18.8678 11.4087 18.8592 11.4978C18.8512 11.5861 18.8472 11.7019 18.8472 11.8451C18.8472 11.9692 18.8506 12.0742 18.8573 12.1602C18.8641 12.2461 18.8746 12.3097 18.8887 12.3511C18.8998 12.3869 18.9171 12.4116 18.9405 12.4251C18.9645 12.4378 19.0094 12.4442 19.0753 12.4442ZM19.4753 11.8451C19.4753 12.0162 19.4663 12.157 19.4485 12.2676C19.4306 12.3782 19.4035 12.4637 19.3672 12.5242C19.345 12.5608 19.3102 12.5878 19.2628 12.6053C19.2154 12.6228 19.1529 12.6316 19.0753 12.6316C18.9971 12.6316 18.9346 12.6228 18.8878 12.6053C18.8416 12.587 18.8065 12.5584 18.7825 12.5194C18.7474 12.4621 18.7209 12.3766 18.7031 12.2628C18.6852 12.149 18.6763 12.0098 18.6763 11.8451C18.6763 11.6796 18.6852 11.5396 18.7031 11.425C18.7215 11.3096 18.748 11.2233 18.7825 11.166C18.8065 11.127 18.8416 11.0984 18.8878 11.0801C18.9346 11.0618 18.9971 11.0526 19.0753 11.0526C19.1437 11.0526 19.2009 11.0602 19.2471 11.0753C19.2933 11.0896 19.3281 11.1115 19.3515 11.1409C19.3921 11.1903 19.4229 11.2746 19.4439 11.394C19.4648 11.5133 19.4753 11.6637 19.4753 11.8451Z" fill="#282822"/>
<path d="M20.2151 12.4442C20.2669 12.4442 20.3054 12.4402 20.3306 12.4323C20.3558 12.4235 20.3743 12.4096 20.386 12.3905C20.4057 12.3587 20.4202 12.2978 20.4294 12.2079C20.4393 12.1172 20.4442 11.9963 20.4442 11.8451C20.4442 11.7011 20.4399 11.5845 20.4313 11.4954C20.4233 11.4063 20.4107 11.3411 20.3934 11.2997C20.3836 11.275 20.3657 11.2575 20.3398 11.2472C20.314 11.2368 20.2724 11.2317 20.2151 11.2317C20.1585 11.2317 20.1172 11.2368 20.0914 11.2472C20.0655 11.2575 20.0476 11.275 20.0378 11.2997C20.0206 11.3426 20.0076 11.4087 19.999 11.4978C19.991 11.5861 19.987 11.7019 19.987 11.8451C19.987 11.9692 19.9904 12.0742 19.9972 12.1602C20.0039 12.2461 20.0144 12.3097 20.0286 12.3511C20.0396 12.3869 20.0569 12.4116 20.0803 12.4251C20.1043 12.4378 20.1493 12.4442 20.2151 12.4442ZM20.6151 11.8451C20.6151 12.0162 20.6062 12.157 20.5883 12.2676C20.5704 12.3782 20.5434 12.4637 20.507 12.5242C20.4849 12.5608 20.4501 12.5878 20.4026 12.6053C20.3552 12.6228 20.2927 12.6316 20.2151 12.6316C20.1369 12.6316 20.0744 12.6228 20.0276 12.6053C19.9814 12.587 19.9464 12.5584 19.9223 12.5194C19.8872 12.4621 19.8608 12.3766 19.8429 12.2628C19.825 12.149 19.8161 12.0098 19.8161 11.8451C19.8161 11.6796 19.825 11.5396 19.8429 11.425C19.8614 11.3096 19.8878 11.2233 19.9223 11.166C19.9464 11.127 19.9814 11.0984 20.0276 11.0801C20.0744 11.0618 20.1369 11.0526 20.2151 11.0526C20.2835 11.0526 20.3408 11.0602 20.3869 11.0753C20.4331 11.0896 20.4679 11.1115 20.4913 11.1409C20.532 11.1903 20.5628 11.2746 20.5837 11.394C20.6046 11.5133 20.6151 11.6637 20.6151 11.8451Z" fill="#282822"/>
<path d="M21.355 12.4442C21.4067 12.4442 21.4452 12.4402 21.4704 12.4323C21.4957 12.4235 21.5141 12.4096 21.5258 12.3905C21.5455 12.3587 21.56 12.2978 21.5693 12.2079C21.5791 12.1172 21.584 11.9963 21.584 11.8451C21.584 11.7011 21.5797 11.5845 21.5711 11.4954C21.5631 11.4063 21.5505 11.3411 21.5332 11.2997C21.5234 11.275 21.5055 11.2575 21.4797 11.2472C21.4538 11.2368 21.4122 11.2317 21.355 11.2317C21.2983 11.2317 21.2571 11.2368 21.2312 11.2472C21.2053 11.2575 21.1875 11.275 21.1776 11.2997C21.1604 11.3426 21.1474 11.4087 21.1388 11.4978C21.1308 11.5861 21.1268 11.7019 21.1268 11.8451C21.1268 11.9692 21.1302 12.0742 21.137 12.1602C21.1437 12.2461 21.1542 12.3097 21.1684 12.3511C21.1795 12.3869 21.1967 12.4116 21.2201 12.4251C21.2441 12.4378 21.2891 12.4442 21.355 12.4442ZM21.7549 11.8451C21.7549 12.0162 21.746 12.157 21.7281 12.2676C21.7103 12.3782 21.6832 12.4637 21.6468 12.5242C21.6247 12.5608 21.5899 12.5878 21.5425 12.6053C21.4951 12.6228 21.4326 12.6316 21.355 12.6316C21.2768 12.6316 21.2143 12.6228 21.1675 12.6053C21.1213 12.587 21.0862 12.5584 21.0622 12.5194C21.0271 12.4621 21.0006 12.3766 20.9827 12.2628C20.9649 12.149 20.9559 12.0098 20.9559 11.8451C20.9559 11.6796 20.9649 11.5396 20.9827 11.425C21.0012 11.3096 21.0277 11.2233 21.0622 11.166C21.0862 11.127 21.1213 11.0984 21.1675 11.0801C21.2143 11.0618 21.2768 11.0526 21.355 11.0526C21.4233 11.0526 21.4806 11.0602 21.5268 11.0753C21.573 11.0896 21.6077 11.1115 21.6311 11.1409C21.6718 11.1903 21.7026 11.2746 21.7235 11.394C21.7444 11.5133 21.7549 11.6637 21.7549 11.8451Z" fill="#282822"/>
<path d="M22.4948 11.8642C22.4123 11.9143 22.3535 11.9644 22.3184 12.0146C22.2839 12.0647 22.2666 12.124 22.2666 12.1924C22.2666 12.2704 22.2866 12.332 22.3267 12.3774C22.3673 12.4219 22.4234 12.4442 22.4948 12.4442C22.5668 12.4442 22.6229 12.4219 22.6629 12.3774C22.7035 12.332 22.7239 12.2704 22.7239 12.1924C22.7239 12.1248 22.7063 12.0659 22.6712 12.0158C22.6367 11.9648 22.5779 11.9143 22.4948 11.8642ZM22.4948 11.6494C22.5527 11.6183 22.597 11.5825 22.6278 11.5419C22.6592 11.5006 22.6749 11.4572 22.6749 11.4119C22.6749 11.3578 22.6592 11.3156 22.6278 11.2854C22.5964 11.2543 22.5521 11.2388 22.4948 11.2388C22.44 11.2388 22.3963 11.2543 22.3636 11.2854C22.3316 11.3156 22.3156 11.3562 22.3156 11.4071C22.3156 11.4564 22.331 11.5018 22.3618 11.5431C22.3926 11.5837 22.4369 11.6191 22.4948 11.6494ZM22.6463 11.7544C22.7362 11.8172 22.7999 11.8841 22.8375 11.9549C22.8757 12.0257 22.8947 12.112 22.8947 12.2139C22.8947 12.3467 22.8599 12.4498 22.7904 12.523C22.7208 12.5954 22.6223 12.6316 22.4948 12.6316C22.3679 12.6316 22.2697 12.5938 22.2001 12.5182C22.1305 12.4426 22.0958 12.3364 22.0958 12.1995C22.0958 12.1041 22.1152 12.0217 22.1539 11.9525C22.1927 11.8825 22.2562 11.8164 22.3442 11.7544C22.2802 11.7019 22.2322 11.6462 22.2001 11.5873C22.1687 11.5284 22.153 11.466 22.153 11.3999C22.153 11.2949 22.1838 11.2114 22.2454 11.1493C22.307 11.0864 22.3901 11.055 22.4948 11.055C22.5995 11.055 22.6826 11.0857 22.7442 11.1469C22.8064 11.2082 22.8375 11.2893 22.8375 11.3904C22.8375 11.4612 22.8218 11.5264 22.7904 11.5861C22.759 11.6458 22.7109 11.7019 22.6463 11.7544Z" fill="#282822"/>
<path fill-rule="evenodd" clip-rule="evenodd" d="M2.28448 5.52631H2.78579V6.18772H1.57895V6.17979C1.57895 6.00648 1.65328 5.84026 1.7856 5.71771C1.91791 5.59516 2.09736 5.52631 2.28448 5.52631ZM5.07087 6.96137V8.43987H2.8588V5.52632H5.07087V6.26919H5.11597H5.14394H6.31574V6.96137H5.14394H5.11349H5.07087ZM2.78578 8.43985H1.61037V8.51768H6.31143C6.29227 8.67752 6.21014 8.82519 6.08078 8.93245C5.95141 9.03971 5.78388 9.09902 5.61026 9.09903H2.28448C2.19184 9.09904 2.10009 9.08214 2.01449 9.04931C1.92889 9.01648 1.85112 8.96835 1.7856 8.90767C1.72008 8.847 1.66811 8.77497 1.63266 8.69569C1.5972 8.61641 1.57895 8.53144 1.57895 8.44562V7.81283H2.78578V8.43985ZM2.78579 7.03916H1.57895V7.7351H2.78579V7.03916ZM5.14389 7.81283H6.31578V8.43985H5.14389V7.81283ZM2.78579 6.26544H1.57895V6.96132H2.78579V6.26544ZM6.31578 7.03916H5.14389V7.73503H6.31578V7.03916ZM6.31571 6.1798V6.19135H5.14421V5.52632H5.61025C5.7029 5.52632 5.79464 5.54323 5.88024 5.57607C5.96584 5.60891 6.04361 5.65704 6.10912 5.71773C6.17463 5.77841 6.22659 5.85045 6.26204 5.92973C6.29748 6.00901 6.31572 6.09398 6.31571 6.1798Z" fill="url(#paint0_linear_2_380)"/>
<defs>
<filter id="filter0_f_2_380" x="-73.6135" y="-64.1366" width="181.342" height="167.638" filterUnits="userSpaceOnUse" color-interpolation-filters="sRGB">
<feFlood flood-opacity="0" result="BackgroundImageFix"/>
<feBlend mode="normal" in="SourceGraphic" in2="BackgroundImageFix" result="shape"/>
<feGaussianBlur stdDeviation="40" result="effect1_foregroundBlur_2_380"/>
</filter>
<filter id="filter1_f_2_380" x="-56.3971" y="-55.2323" width="114.843" height="105.697" filterUnits="userSpaceOnUse" color-interpolation-filters="sRGB">
<feFlood flood-opacity="0" result="BackgroundImageFix"/>
<feBlend mode="normal" in="SourceGraphic" in2="BackgroundImageFix" result="shape"/>
<feGaussianBlur stdDeviation="25" result="effect1_foregroundBlur_2_380"/>
</filter>
<linearGradient id="paint0_linear_2_380" x1="2.83566" y1="7.33872" x2="5.22604" y2="8.4437" gradientUnits="userSpaceOnUse">
<stop stop-color="#A9ACAC"/>
<stop offset="0.411458" stop-color="white"/>
<stop offset="0.734375" stop-color="#D2D2D4"/>
<stop offset="1" stop-color="#899099"/>
</linearGradient>
</defs>
</svg>
