<svg width="31" height="36" viewBox="0 0 31 36" fill="none" xmlns="http://www.w3.org/2000/svg">
<path fill-rule="evenodd" clip-rule="evenodd" d="M30.1552 5.73401C31 7.68293 31 10.2342 31 15.3368V17.4946C31 20.5726 31 22.1114 30.6869 23.3669C29.9441 26.3445 27.9636 28.6729 25.4307 29.546C24.3627 29.9141 23.0538 29.9141 20.4355 29.9141H19.5849L19.484 29.9143C17.9027 29.9261 16.3621 30.5065 15.0695 31.5774L14.9873 31.6463L10.9406 35.0443C9.55342 36.209 7.73052 34.5268 8.36364 32.6661C8.81214 31.348 7.98639 29.9141 6.77879 29.9141H5.84607C2.61738 29.9141 0 26.8372 0 23.0414V15.3368C0 10.2342 0 7.68293 0.844699 5.73401C1.58771 4.0197 2.77332 2.6259 4.23158 1.75242C5.8894 0.759399 8.0596 0.759399 12.4 0.759399H18.6C22.9405 0.759399 25.1106 0.759399 26.7685 1.75242C28.2267 2.6259 29.4123 4.0197 30.1552 5.73401ZM15.5 10.3258C14.858 10.3258 14.3375 10.9377 14.3375 11.6924C14.3375 12.4472 14.858 13.059 15.5 13.059H21.7C22.342 13.059 22.8625 12.4472 22.8625 11.6924C22.8625 10.9377 22.342 10.3258 21.7 10.3258H15.5ZM9.3 17.6145C8.65797 17.6145 8.1375 18.2263 8.1375 18.9811C8.1375 19.7358 8.65797 20.3477 9.3 20.3477H21.7C22.342 20.3477 22.8625 19.7358 22.8625 18.9811C22.8625 18.2263 22.342 17.6145 21.7 17.6145H9.3Z" fill="#FED130"/>
</svg>
