<svg width="29" height="36" viewBox="0 0 29 36" fill="none" xmlns="http://www.w3.org/2000/svg">
<path d="M10.875 12.264C16.2672 12.264 21.7237 10.288 21.7488 6.51177C21.7488 6.46898 21.7468 6.42636 21.7431 6.38537C21.5967 2.69148 16.2054 0.759399 10.875 0.759399C5.54459 0.759399 0.153307 2.69148 0.00694792 6.38447C0.00317187 6.42636 0.0018125 6.46898 0.00120833 6.51087C0.0262812 10.288 5.48281 12.264 10.875 12.264ZM10.875 2.20395C16.2137 2.20395 20.5417 4.14416 20.5417 6.53759C20.5417 8.93103 16.2137 10.8712 10.875 10.8712C5.53628 10.8712 1.20833 8.93103 1.20833 6.53759C1.20833 4.14416 5.53628 2.20395 10.875 2.20395Z" fill="#FED130"/>
<path d="M10.875 9.42669C15.5464 9.42669 19.3333 8.1332 19.3333 6.53759C19.3333 4.94199 15.5464 3.6485 10.875 3.6485C6.20359 3.6485 2.41667 4.94199 2.41667 6.53759C2.41667 8.1332 6.20359 9.42669 10.875 9.42669Z" fill="#FED130"/>
<path d="M19.3333 12.3158C17.4214 12.3158 15.5525 12.9936 13.9628 14.2634C12.3731 15.5332 11.1341 17.3381 10.4025 19.4497C9.67085 21.5614 9.47942 23.885 9.85241 26.1267C10.2254 28.3684 11.1461 30.4276 12.498 32.0438C13.8499 33.66 15.5723 34.7606 17.4475 35.2065C19.3226 35.6524 21.2663 35.4236 23.0326 34.5489C24.799 33.6742 26.3087 32.193 27.3709 30.2926C28.4331 28.3921 29 26.1578 29 23.8722C28.9971 20.8083 27.9777 17.8709 26.1655 15.7044C24.3533 13.5379 21.8962 12.3192 19.3333 12.3158ZM19.3333 33.984C17.6604 33.984 16.0251 33.391 14.6341 32.2799C13.2432 31.1688 12.159 29.5895 11.5189 27.7418C10.8787 25.8941 10.7112 23.861 11.0375 21.8995C11.3639 19.938 12.1695 18.1362 13.3524 16.722C14.5353 15.3079 16.0424 14.3448 17.6832 13.9546C19.324 13.5645 21.0246 13.7647 22.5702 14.5301C24.1158 15.2954 25.4368 16.5915 26.3662 18.2543C27.2956 19.9172 27.7917 21.8722 27.7917 23.8722C27.7891 26.5531 26.8971 29.1233 25.3115 31.0189C23.7258 32.9146 21.5758 33.981 19.3333 33.984Z" fill="#FED130"/>
<path d="M19.3333 15.2049C17.8994 15.2049 16.4977 15.7132 15.3055 16.6656C14.1132 17.618 13.1839 18.9716 12.6352 20.5553C12.0865 22.1391 11.9429 23.8818 12.2226 25.5631C12.5024 27.2444 13.1929 28.7887 14.2068 30.0009C15.2207 31.213 16.5126 32.0385 17.9189 32.3729C19.3253 32.7074 20.783 32.5357 22.1078 31.8797C23.4326 31.2237 24.5648 30.1128 25.3615 28.6875C26.1581 27.2621 26.5833 25.5864 26.5833 23.8722C26.5811 21.5743 25.8166 19.3712 24.4574 17.7464C23.0983 16.1215 21.2555 15.2075 19.3333 15.2049ZM22.9583 20.9831H18.125V22.4276H20.5417C21.1824 22.4285 21.7966 22.7332 22.2497 23.2748C22.7027 23.8164 22.9576 24.5508 22.9583 25.3167V26.7613C22.9576 27.5272 22.7027 28.2616 22.2497 28.8032C21.7966 29.3448 21.1824 29.6495 20.5417 29.6504V31.0949H18.125V29.6504H15.7083V26.7613H20.5417V25.3167H18.125C17.4843 25.3158 16.87 25.0111 16.417 24.4695C15.964 23.9279 15.7091 23.1936 15.7083 22.4276V20.9831C15.7091 20.2171 15.964 19.4828 16.417 18.9412C16.87 18.3996 17.4843 18.0949 18.125 18.094V16.6494H20.5417V18.094H22.9583V20.9831Z" fill="#FED130"/>
<path d="M0 19.5385V23.8722C0 27.3609 4.62746 29.3183 9.57438 29.6106C9.00228 28.2243 8.64299 26.7265 8.51361 25.1883C3.98584 24.6952 0 22.7763 0 19.5385Z" fill="#FED130"/>
<path d="M8.46226 23.6866C8.47748 22.2472 8.6931 20.821 9.10026 19.4663C4.3358 19.0795 0 17.137 0 13.7603V18.0422C0 21.2677 3.95578 23.1846 8.46226 23.6866Z" fill="#FED130"/>
<path d="M12.5717 13.6937C12.0095 13.7372 11.442 13.7603 10.875 13.7603C5.47088 13.7603 0 11.7755 0 7.98214V12.264C0 15.7656 4.66175 17.7247 9.62936 18.006C10.3393 16.3324 11.3429 14.8615 12.5717 13.6937Z" fill="#FED130"/>
</svg>
