<svg width="29" height="36" viewBox="0 0 29 36" fill="none" xmlns="http://www.w3.org/2000/svg">
<path fill-rule="evenodd" clip-rule="evenodd" d="M8.37778 19.271H0.966667C0.433067 19.271 0 18.7533 0 18.1154V6.91966C0 5.28637 0.542622 3.71934 1.50929 2.56372C2.47596 1.40809 3.78676 0.759399 5.15298 0.759399H24.1667C26.836 0.759399 29 3.34646 29 6.53753V34.2726C29 34.6932 28.8092 35.08 28.5025 35.2833C28.1944 35.4867 27.8194 35.4744 27.5216 35.2525L22.9139 31.8103L18.9286 35.2125C18.5922 35.5006 18.1411 35.5006 17.8047 35.2125L13.8556 31.8411L9.9064 35.2125C9.61124 35.4652 9.22458 35.4975 8.90236 35.3003C8.58013 35.1015 8.37778 34.7055 8.37778 34.2726V19.271ZM5.15556 3.07065H5.15298C4.29844 3.07065 3.48 3.47589 2.8768 4.19854C2.27231 4.91965 1.93333 5.89808 1.93333 6.91966V16.9597H8.37778V6.92274C8.37778 4.79485 6.93551 3.07065 5.15556 3.07065ZM14.5 16.1677H22.8778C23.4114 16.1677 23.8444 15.65 23.8444 15.0121C23.8444 14.3742 23.4114 13.8565 22.8778 13.8565H14.5C13.9664 13.8565 13.5333 14.3742 13.5333 15.0121C13.5333 15.65 13.9664 16.1677 14.5 16.1677ZM14.5 10.0044H22.8778C23.4114 10.0044 23.8444 9.48669 23.8444 8.84878C23.8444 8.21088 23.4114 7.69316 22.8778 7.69316H14.5C13.9664 7.69316 13.5333 8.21088 13.5333 8.84878C13.5333 9.48669 13.9664 10.0044 14.5 10.0044ZM14.5 22.3311H22.8778C23.4114 22.3311 23.8444 21.8134 23.8444 21.1755C23.8444 20.5376 23.4114 20.0198 22.8778 20.0198H14.5C13.9664 20.0198 13.5333 20.5376 13.5333 21.1755C13.5333 21.8134 13.9664 22.3311 14.5 22.3311Z" fill="#FED130"/>
</svg>
