<svg width="29" height="36" viewBox="0 0 29 36" fill="none" xmlns="http://www.w3.org/2000/svg">
<path d="M1.20833 33.2617C1.06575 33.2617 0.921957 33.2314 0.782999 33.1693C0.31175 32.9584 0 32.4196 0 31.8172V26.039C0 25.2416 0.540125 24.5945 1.20833 24.5945H5.43749C5.91237 24.5945 6.34133 24.9253 6.53708 25.4424C6.73404 25.9581 6.65912 26.5634 6.34737 26.991L2.11821 32.7692C1.88379 33.0884 1.54908 33.2617 1.20833 33.2617Z" fill="white"/>
<path d="M10.2708 35.4286C4.95173 35.4286 1.7859 29.3022 0.671821 26.6688C0.370946 25.9567 0.608988 25.0885 1.2047 24.7274C1.8004 24.3662 2.52782 24.6537 2.82869 25.3644C3.74098 27.5211 6.29298 32.5395 10.2708 32.5395C10.939 32.5395 11.4791 33.1866 11.4791 33.984C11.4791 34.7814 10.939 35.4286 10.2708 35.4286Z" fill="white"/>
<path d="M27.7917 11.5935H23.5625C23.0876 11.5935 22.6587 11.2627 22.4629 10.7456C22.266 10.2299 22.3409 9.6246 22.6526 9.19701L26.8818 3.41882C27.2141 2.96523 27.7494 2.80633 28.2158 3.01868C28.6882 3.22958 29 3.7684 29 4.37077V10.149C29 10.9464 28.4599 11.5935 27.7917 11.5935Z" fill="white"/>
<path d="M27.2539 11.6224C26.8129 11.6224 26.3863 11.3321 26.1737 10.8294C25.2614 8.66975 22.7106 3.6485 18.7291 3.6485C18.0609 3.6485 17.5208 3.00134 17.5208 2.20395C17.5208 1.40656 18.0609 0.759399 18.7291 0.759399C24.0531 0.759399 27.2165 6.89151 28.3306 9.52637C28.6314 10.2385 28.3922 11.1067 27.7977 11.4664C27.6225 11.5733 27.4364 11.6224 27.2539 11.6224Z" fill="white"/>
<path d="M19.9375 35.4286C24.9426 35.4286 29 30.578 29 24.5945C29 18.6109 24.9426 13.7603 19.9375 13.7603C14.9324 13.7603 10.875 18.6109 10.875 24.5945C10.875 30.578 14.9324 35.4286 19.9375 35.4286Z" fill="white"/>
<path d="M24.1666 26.5735C24.1666 25.6028 23.7788 24.7447 23.1867 24.1842C23.4199 23.7205 23.5625 23.1831 23.5625 22.601C23.5625 21.2258 22.7952 20.073 21.75 19.6873V18.4551C21.75 17.8571 21.344 17.3717 20.8437 17.3717C20.3435 17.3717 19.9375 17.8571 19.9375 18.4551V19.5385H19.3333V18.4551C19.3333 17.8571 18.9273 17.3717 18.4271 17.3717C17.9268 17.3717 17.5208 17.8571 17.5208 18.4551V19.5385H17.2187C16.7185 19.5385 16.3125 20.0239 16.3125 20.6219V28.567C16.3125 29.165 16.7185 29.6504 17.2187 29.6504H17.5208V30.7338C17.5208 31.3318 17.9268 31.8172 18.4271 31.8172C18.9273 31.8172 19.3333 31.3318 19.3333 30.7338V29.6504H19.9375V30.7338C19.9375 31.3318 20.3435 31.8172 20.8437 31.8172C21.344 31.8172 21.75 31.3318 21.75 30.7338V29.633C23.0936 29.5406 24.1666 28.2159 24.1666 26.5735ZM18.125 21.7054H21.0008C21.4141 21.7054 21.75 22.1069 21.75 22.6154C21.75 23.1095 21.4141 23.511 21.0008 23.511H18.125V21.7054ZM21.605 27.4836H18.125V25.6779H21.605C22.0182 25.6779 22.3541 26.0795 22.3541 26.5879C22.3541 27.082 22.0182 27.4836 21.605 27.4836Z" fill="#FED130"/>
<path d="M9.06249 22.4276C14.0676 22.4276 18.125 17.577 18.125 11.5935C18.125 5.61 14.0676 0.759399 9.06249 0.759399C4.05742 0.759399 0 5.61 0 11.5935C0 17.577 4.05742 22.4276 9.06249 22.4276Z" fill="white"/>
<path d="M8.60332 8.70442H11.1771C11.6773 8.70442 12.0833 8.21905 12.0833 7.62101C12.0833 7.02296 11.6773 6.5376 11.1771 6.5376H9.96874V5.45418C9.96874 4.85614 9.56274 4.37077 9.06249 4.37077C8.56224 4.37077 8.15624 4.85614 8.15624 5.45418V6.59104C6.95758 6.84673 6.04166 8.09626 6.04166 9.61448C6.04166 11.3032 7.19078 12.6769 8.60332 12.6769H9.52166C9.93491 12.6769 10.2708 13.0785 10.2708 13.587C10.2708 14.081 9.93491 14.4826 9.52166 14.4826H6.94791C6.44766 14.4826 6.04166 14.968 6.04166 15.566C6.04166 16.1641 6.44766 16.6494 6.94791 16.6494H8.15624V17.7328C8.15624 18.3309 8.56224 18.8163 9.06249 18.8163C9.56274 18.8163 9.96874 18.3309 9.96874 17.7328V16.596C11.1674 16.3403 12.0833 15.0908 12.0833 13.5725C12.0833 11.8839 10.9342 10.5101 9.52166 10.5101H8.60332C8.19007 10.5101 7.85416 10.1085 7.85416 9.60004C7.85416 9.106 8.19007 8.70442 8.60332 8.70442Z" fill="#FED130"/>
</svg>
