<svg width="29" height="36" viewBox="0 0 29 36" fill="none" xmlns="http://www.w3.org/2000/svg">
<path d="M15.9562 13.0362L14.5001 9.50951L13.0441 13.0361C12.9202 13.3359 12.6811 13.5437 12.4044 13.5917L9.14927 14.1573L11.5049 16.9022C11.7051 17.1354 11.7965 17.4716 11.7492 17.8011L11.1933 21.6769L14.1046 19.8471C14.3521 19.6915 14.6479 19.6915 14.8954 19.8471L17.807 21.6769L17.2507 17.8013C17.2033 17.4718 17.2947 17.1355 17.495 16.9022L19.8506 14.1573L16.5958 13.5917C16.3191 13.5437 16.08 13.3359 15.9562 13.0362Z" fill="#FED130"/>
<path d="M25.8752 0.759399H3.12464C1.40174 0.759399 0 2.4351 0 4.49487V27.3413C0 29.4011 1.40174 31.0768 3.12464 31.0768H10.508L13.8992 35.131C14.0585 35.3215 14.2746 35.4286 14.4999 35.4286C14.7252 35.4286 14.9413 35.3216 15.1007 35.131L18.4919 31.0768H25.8752C27.5983 31.0768 29 29.4011 29 27.3413V4.49487C29 2.4351 27.5983 0.759399 25.8752 0.759399ZM22.2695 14.1754L19.0009 17.984L19.765 23.3066C19.779 23.3795 19.7863 23.4555 19.7863 23.5336C19.7863 24.0937 19.4071 24.5479 18.9389 24.5493C18.9377 24.5493 18.9366 24.5493 18.9354 24.5493C18.8002 24.5493 18.6645 24.5108 18.5402 24.4326L14.5 21.8936L10.4602 24.4326C10.174 24.6125 9.82709 24.5825 9.56547 24.3553C9.30385 24.128 9.17284 23.7429 9.22749 23.3619L9.99888 17.984L6.73044 14.1754C6.49878 13.9055 6.41546 13.5019 6.51537 13.1342C6.61534 12.7664 6.88121 12.4984 7.20123 12.4429L11.7179 11.6582L13.7381 6.76509C13.8811 6.4184 14.1765 6.19894 14.4999 6.19894C14.8232 6.19894 15.1186 6.4184 15.2618 6.76502L17.2821 11.6582L21.7985 12.4429C22.1185 12.4985 22.3844 12.7664 22.4843 13.1342C22.5844 13.5019 22.5011 13.9056 22.2695 14.1754Z" fill="#FED130"/>
</svg>
